<svg width="75" height="48" viewBox="0 0 75 48" fill="none" xmlns="http://www.w3.org/2000/svg">
<g clip-path="url(#clip0_1273_2026)">
<path d="M72.6603 1.61887L70.1303 1.35989L68.3956 1.19402L65.0992 0.918834C63.006 0.752928 61.1188 0.635586 59.5283 0.570842C56.3514 0.433261 54.3694 0.497979 54.3406 0.79742C54.3118 1.09686 56.2319 1.56223 59.3676 2.08828C60.9334 2.34725 62.8041 2.62241 64.8849 2.89757L68.1525 3.30222H68.3214C66.1952 3.78376 63.2615 4.54854 59.7343 5.62896C49.8841 8.64938 40.4128 12.7529 31.5007 17.8615C26.5937 20.6936 21.9229 23.903 17.5322 27.4598C13.9413 30.3653 10.6032 33.5596 7.55233 37.0095C5.49052 39.3298 3.63112 41.8164 1.99378 44.4429C0.852406 46.3164 0.403296 47.4292 0.473345 47.4778C0.831828 47.7044 3.31237 43.5648 8.71434 38.0332C11.8654 34.798 15.2413 31.7816 18.8178 29.0055C23.1974 25.5957 27.8109 22.4861 32.6255 19.6986C42.8773 13.7543 52.9149 9.72401 60.2329 7.04928C66.4507 5.30929 69.4505 4.27336 70.8803 3.63806L70.0891 4.81561L68.4039 7.37297C67.3449 8.99156 66.4136 10.4888 65.6596 11.7472C64.1556 14.2642 63.3521 15.8909 63.5993 16.0487C63.8466 16.2065 65.0827 14.8833 66.8957 12.5808C67.8105 11.4316 68.8736 10.0396 70.0356 8.4696L71.8362 5.9891L72.8581 4.55663L74.3745 2.37961C74.419 2.32169 74.4469 2.25304 74.4552 2.18089C74.4635 2.10874 74.4518 2.03574 74.4215 1.96953C74.3911 1.90332 74.3432 1.84636 74.2828 1.8046C74.2223 1.76283 74.1514 1.73783 74.0777 1.73218L72.6603 1.61887Z" fill="#2CB6B6"/>
</g>
<defs>
<clipPath id="clip0_1273_2026">
<rect width="74" height="47" fill="white" transform="translate(0.501953 0.502075)"/>
</clipPath>
</defs>
</svg>
