<svg width="160" height="155" viewBox="0 0 160 155" fill="none" xmlns="http://www.w3.org/2000/svg">
<g clip-path="url(#clip0_697_743)">
<path d="M37.7818 16.9997L35.7721 18.4201L38.7213 22.5659L37.8572 23.1782L31.0444 13.6118L34.3805 11.2378C34.7344 10.952 35.1437 10.7425 35.5827 10.6225C36.0217 10.5025 36.4808 10.4746 36.931 10.5407C37.3813 10.6067 37.813 10.7651 38.199 11.006C38.5849 11.2469 38.9167 11.5651 39.1735 11.9405C39.6594 12.5918 39.8779 13.4039 39.7846 14.2108C39.6912 15.0177 39.2929 15.7585 38.6711 16.282L44.037 18.7915L43.0321 19.4992L37.7818 16.9997ZM37.5708 15.9959C38.842 15.0925 39.1434 13.7172 38.3194 12.5578C37.4955 11.3984 36.0736 11.2077 34.8025 12.1111L32.4663 13.7724L35.2346 17.6572L37.5708 15.9959Z" fill="#00ABB1"/>
<path d="M50.2166 12.9342C50.3561 13.6863 50.2462 14.4633 49.9034 15.1472C49.5606 15.8311 49.0038 16.3846 48.3175 16.7236C46.4737 17.7275 44.1977 17.1754 42.9466 14.8415C41.776 12.6481 42.4844 10.3896 44.2228 9.46102C46.2877 8.36183 48.2421 9.18998 49.3676 11.2428C49.4292 11.3491 49.4829 11.4599 49.5283 11.5741L43.9414 14.5554L43.9716 14.6106C44.8458 16.2117 46.5188 16.6685 47.8954 15.9357C48.4196 15.6876 48.8435 15.2686 49.0974 14.7476C49.3513 14.2267 49.42 13.6349 49.2922 13.0698L50.2166 12.9342ZM48.2069 11.3231C48.0571 11.0051 47.8421 10.7221 47.5759 10.4924C47.3096 10.2627 46.9979 10.0914 46.6612 9.9897C46.3244 9.88797 45.97 9.85804 45.621 9.90184C45.2719 9.94565 44.9359 10.0622 44.6348 10.244C44.0276 10.5824 43.5756 11.1431 43.3741 11.8078C43.1726 12.4726 43.2374 13.1895 43.5546 13.8075L48.2069 11.3231Z" fill="#00ABB1"/>
<path d="M51.8946 10.3695C52.6081 12.2366 54.271 12.9543 55.7532 12.3771C56.3015 12.1769 56.7673 11.7996 57.0767 11.305C57.3861 10.8105 57.5215 10.2269 57.4614 9.64675L58.411 9.67184C58.4547 10.4312 58.2506 11.1842 57.8293 11.8177C57.408 12.4513 56.7923 12.9311 56.0747 13.1852C53.9847 13.9832 51.8293 12.9443 50.9652 10.6757C50.101 8.40702 51.0204 6.1886 53.0954 5.39558C53.7955 5.08907 54.5796 5.03198 55.3167 5.23389C56.0539 5.4358 56.6992 5.88444 57.1449 6.50478L56.4515 7.16228C56.1316 6.6859 55.6579 6.33342 55.1094 6.16355C54.5609 5.99368 53.9706 6.0167 53.437 6.22874C51.9449 6.83605 51.1862 8.46224 51.8946 10.3695Z" fill="#00ABB1"/>
<path d="M59.7576 9.50616C59.4311 8.20621 60.1445 7.2275 61.4909 6.67038L63.4554 5.85729C64.0935 5.5963 64.1638 5.27005 64.0784 4.9137C63.8222 3.90988 62.968 3.34774 61.712 3.65892C60.4559 3.97011 59.8531 4.83841 60.0038 5.98277L59.0542 6.01288C58.8683 4.50715 59.848 3.2373 61.4909 2.83076C63.5006 2.32885 64.7014 3.33266 65.0631 4.77315L66.0328 8.64289C66.1339 9.08733 66.2821 9.51974 66.475 9.9328L65.5254 10.1687C65.3487 9.74911 65.2058 9.31611 65.0983 8.87378C64.9559 9.41323 64.6663 9.90255 64.2617 10.2872C63.8572 10.6718 63.3537 10.9366 62.8073 11.0521C61.1995 11.4536 60.034 10.6154 59.7576 9.50616ZM64.616 7.06688L64.3949 6.19859C64.2553 6.34742 64.0834 6.46243 63.8925 6.53486L61.8326 7.38811C60.9634 7.73945 60.5263 8.39194 60.7323 9.21507C60.9132 9.92277 61.6618 10.4699 62.742 10.2189C63.0818 10.1523 63.4038 10.0147 63.6868 9.81526C63.9698 9.61582 64.2076 9.35896 64.3845 9.06147C64.5613 8.76399 64.6733 8.43257 64.7132 8.08887C64.7531 7.74517 64.72 7.39691 64.616 7.06688Z" fill="#00ABB1"/>
<path d="M71.6096 2.19835C71.3779 2.16664 71.1429 2.16664 70.9112 2.19835C69.5798 2.38908 68.7207 3.38791 68.987 5.17471L69.61 9.42085L68.6051 9.56642L67.4546 1.74665L68.4243 1.6061L68.6353 3.06165C68.7564 2.55601 69.0317 2.10042 69.4232 1.75786C69.8147 1.4153 70.3031 1.20269 70.8208 1.14937C71.0254 1.11655 71.2341 1.11655 71.4388 1.14937L71.6096 2.19835Z" fill="#00ABB1"/>
<path d="M74.1569 9.04944C74.2442 9.67374 74.5635 10.2423 75.0513 10.6422C75.5391 11.0421 76.1597 11.244 76.7896 11.2076C78.8797 11.1173 79.4474 9.70192 79.3721 8.04561L79.3118 6.59006C79.1008 7.1036 78.7405 7.54215 78.2775 7.84903C77.8145 8.15592 77.2699 8.31708 76.7143 8.31164C74.6443 8.39697 73.1119 6.80589 73.0165 4.62258C72.921 2.43927 74.2776 0.737803 76.3777 0.647459C76.926 0.583594 77.4809 0.684644 77.9714 0.937687C78.4619 1.19073 78.8656 1.58426 79.1309 2.06787L79.0706 0.71271L80.0754 0.667524L80.392 7.98539C80.4724 9.82238 79.7539 11.9605 76.8349 12.086C75.998 12.1658 75.1621 11.9252 74.4961 11.4127C73.8301 10.9002 73.3839 10.1542 73.2476 9.32548L74.1569 9.04944ZM79.2464 4.35156C79.1711 2.64506 78.0909 1.43546 76.5334 1.50071C74.9759 1.56596 73.9359 2.86089 74.0213 4.57743C74.1067 6.29396 75.212 7.51358 76.7997 7.44332C78.3873 7.37305 79.3218 6.07311 79.2464 4.35156V4.35156Z" fill="#00ABB1"/>
<path d="M82.2861 6.55994C82.3916 5.21984 83.3814 4.51719 84.8334 4.4168L86.9586 4.26624C87.6469 4.22106 87.8177 3.93497 87.8479 3.5736C87.9282 2.53464 87.2902 1.73658 86.004 1.6362C84.7178 1.53582 83.8637 2.16323 83.6426 3.29253L82.7333 3.02148C83.0347 1.51575 84.3661 0.642432 86.0543 0.772929C88.1041 0.93354 88.9482 2.24854 88.8276 3.74925L88.5161 7.7294C88.4686 8.18323 88.4686 8.64078 88.5161 9.09461L87.5414 9.01429C87.5047 8.56164 87.5047 8.10678 87.5414 7.65413C87.2345 8.11963 86.8043 8.49089 86.2987 8.72661C85.793 8.96232 85.2319 9.05323 84.6776 8.9892C83.0398 8.8587 82.1957 7.69928 82.2861 6.55994ZM87.672 5.78701L87.7424 4.89363C87.5596 4.99035 87.3563 5.04197 87.1495 5.04419L84.9238 5.20481C83.9893 5.26504 83.3663 5.73179 83.301 6.59005C83.2407 7.31281 83.8034 8.09581 84.8736 8.15604C85.2166 8.20427 85.5659 8.17947 85.8987 8.08332C86.2314 7.98716 86.5401 7.82181 86.8043 7.5981C87.0686 7.37439 87.2825 7.09738 87.432 6.78526C87.5816 6.47313 87.6634 6.13294 87.672 5.78701V5.78701Z" fill="#00ABB1"/>
<path d="M91.5757 7.96535C91.7171 7.99443 91.8508 8.05288 91.9681 8.13693C92.0855 8.22098 92.1838 8.32872 92.2568 8.4532C92.3298 8.57767 92.3757 8.71608 92.3917 8.85944C92.4076 9.0028 92.3932 9.14793 92.3494 9.28537C92.0781 10.9166 90.9326 11.7347 89.9277 11.7949L90.0283 11.1876C90.4088 11.0957 90.7541 10.8947 91.0219 10.6094C91.2896 10.324 91.4682 9.96676 91.5355 9.58148C91.4331 9.62773 91.3181 9.63833 91.2089 9.6116C91.0967 9.59393 90.9894 9.55329 90.8937 9.49222C90.798 9.43114 90.7159 9.35093 90.6527 9.25667C90.5894 9.16241 90.5465 9.05611 90.5263 8.94445C90.5062 8.83278 90.5093 8.71815 90.5356 8.60778C90.5604 8.49667 90.6072 8.39163 90.6733 8.29886C90.7393 8.20609 90.8232 8.12747 90.9201 8.0676C91.017 8.00774 91.125 7.96784 91.2376 7.95027C91.3501 7.93271 91.4651 7.93785 91.5757 7.96535V7.96535Z" fill="#00ABB1"/>
<path d="M103.644 7.43329L101.318 6.64529L99.6899 11.4636L98.6851 11.1273L102.448 0L106.332 1.30998C106.771 1.42943 107.18 1.63824 107.535 1.92331C107.889 2.20837 108.18 2.56353 108.391 2.96649C108.601 3.36945 108.726 3.81151 108.757 4.26492C108.789 4.71834 108.726 5.17333 108.573 5.60131C108.328 6.37709 107.796 7.03014 107.085 7.42671C106.374 7.82328 105.539 7.93336 104.749 7.73443L105.86 13.5516L104.699 13.1601L103.644 7.43329ZM104.337 6.67038C105.814 7.17229 107.111 6.61015 107.568 5.26001C108.025 3.90987 107.347 2.65008 105.87 2.15319L103.152 1.23468L101.644 5.75187L104.337 6.67038Z" fill="#00ABB1"/>
<path d="M114.23 15.1276C113.701 15.6811 113.005 16.0468 112.249 16.1691C111.492 16.2914 110.717 16.1636 110.04 15.8052C108.161 14.8917 107.261 12.7335 108.427 10.3544C109.522 8.1209 111.768 7.37307 113.541 8.24138C115.642 9.2452 116.119 11.3482 115.109 13.4512C115.056 13.5615 114.998 13.6687 114.933 13.7724L109.241 10.9918L109.211 11.0521C108.427 12.6933 109.03 14.3195 110.431 15.0021C110.94 15.2818 111.529 15.3805 112.101 15.282C112.674 15.1835 113.196 14.8937 113.582 14.4601L114.23 15.1276ZM114.37 12.5779C114.539 12.2715 114.642 11.9332 114.672 11.5848C114.702 11.2364 114.659 10.8855 114.546 10.5547C114.432 10.2239 114.25 9.92047 114.013 9.66384C113.775 9.40721 113.486 9.20309 113.165 9.06452C112.536 8.77392 111.819 8.73697 111.164 8.9614C110.509 9.18583 109.966 9.65428 109.648 10.2691L114.37 12.5779Z" fill="#00ABB1"/>
<path d="M117.003 19.7753C115.325 18.6761 115.35 16.9094 116.265 15.5241L118.993 11.3733L119.822 11.9204L117.184 15.9357C116.496 16.9847 116.34 18.2746 117.646 19.1278C118.822 19.9008 120.108 19.4541 120.837 18.3499L123.484 14.3346L124.313 14.8766L120.796 20.222C120.522 20.6445 120.273 21.0837 120.053 21.537L119.264 21.0351C119.416 20.6962 119.596 20.3705 119.802 20.0614L119.867 19.966C119.421 20.2084 118.914 20.3191 118.407 20.2854C117.9 20.2516 117.413 20.0747 117.003 19.7753V19.7753Z" fill="#00ABB1"/>
<path d="M128.106 17.8278L129.704 19.1228L129.136 19.8154L127.539 18.5205L124.524 22.2246C123.916 22.9724 123.972 23.6149 124.665 24.177C124.856 24.3289 125.072 24.4461 125.303 24.5233L124.75 25.2059C124.437 25.0927 124.147 24.9226 123.896 24.704C122.891 23.901 122.776 22.7968 123.685 21.6926L126.76 17.9082L125.459 16.8541L126.047 16.1715L126.514 16.548C127.117 17.0499 127.594 16.9746 128.106 16.3472L128.951 15.3033L129.699 15.9105L128.106 17.8278Z" fill="#00ABB1"/>
<path d="M125.891 26.3453L131.252 20.5382L131.985 21.2107L126.619 27.0178L125.891 26.3453ZM134.432 17.858C134.552 17.9692 134.637 18.1136 134.675 18.2729C134.714 18.4322 134.704 18.5993 134.647 18.753C134.59 18.9067 134.489 19.0401 134.356 19.1363C134.224 19.2326 134.065 19.2873 133.901 19.2937C133.737 19.3 133.575 19.2576 133.436 19.1719C133.296 19.0862 133.185 18.9609 133.116 18.8121C133.048 18.6632 133.025 18.4974 133.051 18.3356C133.077 18.1738 133.15 18.0233 133.261 17.9031C133.408 17.7462 133.61 17.6534 133.825 17.6449C134.039 17.6364 134.249 17.713 134.407 17.858H134.432Z" fill="#00ABB1"/>
<path d="M128.413 28.7595L136.954 20.3976L137.653 21.1104L129.086 29.4722L128.413 28.7595Z" fill="#00ABB1"/>
<path d="M130.82 31.3092L136.753 26.0843L137.411 26.8271L131.478 32.057L130.82 31.3092ZM140.165 23.7404C140.273 23.8634 140.342 24.0157 140.363 24.1781C140.385 24.3404 140.358 24.5055 140.285 24.6524C140.213 24.7993 140.099 24.9215 139.957 25.0036C139.815 25.0856 139.652 25.1237 139.488 25.1132C139.325 25.1027 139.168 25.044 139.038 24.9445C138.908 24.8449 138.81 24.7091 138.757 24.5541C138.704 24.3991 138.698 24.232 138.741 24.0737C138.783 23.9155 138.871 23.7733 138.994 23.6651C139.075 23.5913 139.17 23.5345 139.273 23.4982C139.376 23.4619 139.486 23.4469 139.595 23.4539C139.705 23.4609 139.811 23.4899 139.909 23.5391C140.007 23.5884 140.094 23.6568 140.165 23.7404V23.7404Z" fill="#00ABB1"/>
<path d="M132.704 33.3921L133.407 32.8902L141.315 33.2164L138.341 29.2513L139.059 28.7143L142.747 33.633L142.044 34.1349L134.156 33.8338L137.17 37.8491L136.457 38.3861L132.704 33.3921Z" fill="#00ABB1"/>
<path d="M138.868 38.3209C140.029 37.6383 141.169 38.0448 142.084 39.1792L143.42 40.8355C143.852 41.3675 144.184 41.3374 144.5 41.1617C145.4 40.6598 145.691 39.656 145.038 38.5417C144.385 37.4275 143.38 37.0962 142.325 37.5379L142.029 36.6395C143.42 36.0322 144.917 36.6144 145.772 38.0699C146.812 39.8417 146.219 41.2872 144.917 42.0501L141.471 44.0577C141.076 44.2834 140.704 44.5474 140.361 44.8457L139.858 44.0075C140.21 43.7185 140.585 43.4583 140.978 43.2296C140.421 43.2443 139.871 43.1044 139.388 42.8252C138.906 42.5461 138.51 42.1388 138.245 41.6486C137.406 40.2633 137.884 38.8981 138.868 38.3209ZM142.586 42.286L143.355 41.8343C143.173 41.736 143.015 41.5989 142.893 41.4327L141.486 39.7011C140.903 38.9683 140.165 38.7274 139.421 39.1641C138.793 39.5355 138.481 40.4088 139.034 41.3524C139.193 41.6598 139.415 41.9302 139.686 42.146C139.956 42.3618 140.269 42.5182 140.605 42.6049C140.94 42.6916 141.29 42.7066 141.631 42.6491C141.973 42.5915 142.298 42.4627 142.586 42.2709V42.286Z" fill="#00ABB1"/>
<path d="M143.033 46.7329C143.09 46.8657 143.118 47.0088 143.115 47.153C143.113 47.2972 143.081 47.4394 143.02 47.5703C142.96 47.7013 142.872 47.8181 142.764 47.9133C142.655 48.0085 142.528 48.08 142.39 48.1232C140.883 48.8359 139.567 48.3641 138.939 47.5811L139.491 47.3151C139.784 47.5805 140.148 47.754 140.538 47.8138C140.929 47.8736 141.328 47.8171 141.687 47.6514C141.59 47.5937 141.516 47.5053 141.476 47.4004C141.427 47.2994 141.399 47.1896 141.394 47.0775C141.39 46.9654 141.408 46.8535 141.448 46.7487C141.488 46.6439 141.549 46.5484 141.627 46.468C141.705 46.3876 141.799 46.324 141.903 46.2812C142.007 46.2364 142.119 46.2126 142.232 46.2111C142.345 46.2096 142.457 46.2305 142.562 46.2725C142.667 46.3144 142.763 46.3767 142.844 46.4557C142.925 46.5347 142.989 46.6289 143.033 46.7329V46.7329Z" fill="#00ABB1"/>
<path d="M150.374 56.3244L149.69 53.9704L144.802 55.3858L144.505 54.382L155.795 51.1045L156.94 55.0345C157.523 57.0421 156.513 58.7988 154.699 59.3258C153.923 59.5681 153.082 59.5052 152.35 59.1498C151.618 58.7945 151.05 58.1735 150.76 57.4135L146.646 61.6446L146.304 60.4652L150.374 56.3244ZM151.378 56.4599C151.816 57.9657 153.011 58.6934 154.393 58.2969C155.775 57.9004 156.403 56.6255 155.976 55.1299L155.177 52.3744L150.59 53.7044L151.378 56.4599Z" fill="#00ABB1"/>
<path d="M150.113 69.3741C149.358 69.261 148.662 68.9061 148.127 68.363C147.592 67.8198 147.249 67.1177 147.148 66.3626C146.827 64.3048 148.083 62.3473 150.7 61.9257C153.162 61.5443 155.056 62.9596 155.363 64.9071C155.719 67.2158 154.288 68.7919 151.982 69.1683C151.86 69.1894 151.738 69.2028 151.615 69.2084L150.665 62.9346H150.6C148.801 63.2307 147.811 64.6561 148.053 66.197C148.115 66.774 148.371 67.3128 148.78 67.7251C149.189 68.1373 149.726 68.3984 150.303 68.4656L150.113 69.3741ZM152.288 68.0289C152.638 67.9928 152.976 67.8837 153.282 67.7086C153.587 67.5334 153.851 67.2962 154.059 67.0123C154.266 66.7284 154.412 66.4041 154.486 66.0605C154.56 65.7168 154.561 65.3615 154.489 65.0175C154.369 64.3324 153.988 63.7205 153.426 63.3104C152.863 62.9004 152.164 62.7243 151.474 62.8191L152.288 68.0289Z" fill="#00ABB1"/>
<path d="M144.897 71.5524L155.951 71.2763V72.25L154.378 72.2902C154.928 72.5338 155.397 72.931 155.726 73.4341C156.056 73.9372 156.233 74.5247 156.237 75.126C156.292 77.3645 154.504 78.7498 152.167 78.805C149.831 78.8602 147.957 77.5201 147.902 75.2916C147.874 74.707 148.012 74.1264 148.301 73.6172C148.59 73.1081 149.018 72.6915 149.535 72.4157L144.897 72.5361V71.5524ZM155.363 74.9854C155.323 73.3442 153.856 72.3052 152.032 72.3504C150.208 72.3956 148.776 73.5098 148.816 75.146C148.856 76.7823 150.324 77.8614 152.167 77.8162C154.011 77.771 155.408 76.6417 155.363 74.9854V74.9854Z" fill="#00ABB1"/>
<path d="M148.032 80.7675L155.925 81.2694L155.86 82.2732L147.967 81.7713L148.032 80.7675ZM159.995 82.0624C159.992 82.1739 159.966 82.2836 159.92 82.3851C159.873 82.4865 159.807 82.5775 159.724 82.6526C159.642 82.7277 159.545 82.7854 159.44 82.8222C159.334 82.8589 159.222 82.8741 159.111 82.8666C159 82.8592 158.891 82.8293 158.791 82.7788C158.692 82.7284 158.603 82.6583 158.531 82.5729C158.46 82.4875 158.406 82.3884 158.373 82.2817C158.341 82.175 158.33 82.0629 158.342 81.952C158.365 81.7393 158.469 81.5437 158.633 81.4061C158.797 81.2686 159.008 81.1997 159.222 81.214C159.435 81.2283 159.635 81.3246 159.779 81.4827C159.923 81.6408 160.001 81.8486 159.995 82.0624V82.0624Z" fill="#00ABB1"/>
<path d="M155.383 86.8506L155.111 88.8883L154.227 88.7679L154.494 86.7602L149.761 86.1379C148.806 86.0124 148.289 86.3938 148.173 87.2822C148.139 87.5232 148.15 87.7685 148.208 88.005L147.339 87.8895C147.271 87.5584 147.271 87.2169 147.339 86.8857C147.505 85.6209 148.379 84.9333 149.811 85.124L154.644 85.7564L154.86 84.1001L155.75 84.2156L155.669 84.8078C155.569 85.5808 155.87 85.9522 156.674 86.0576L158.005 86.2332L157.88 87.1869L155.383 86.8506Z" fill="#00ABB1"/>
<path d="M147.651 96.412C146.993 96.0196 146.482 95.4234 146.194 94.7141C145.907 94.0047 145.859 93.221 146.058 92.482C146.56 90.4744 148.444 89.0941 151.027 89.7015C153.444 90.2736 154.669 92.3014 154.217 94.2187C153.68 96.4923 151.755 97.4158 149.479 96.8938C149.36 96.8704 149.242 96.8368 149.128 96.7935L150.585 90.64H150.519C148.741 90.2335 147.289 91.1871 146.932 92.7029C146.771 93.26 146.804 93.8556 147.027 94.3912C147.25 94.9269 147.649 95.3706 148.158 95.6491L147.651 96.412ZM150.163 95.9854C150.5 96.0831 150.854 96.109 151.202 96.0615C151.55 96.014 151.884 95.8942 152.183 95.7098C152.482 95.5253 152.738 95.2804 152.936 94.9907C153.135 94.701 153.27 94.373 153.333 94.0279C153.48 93.3494 153.357 92.6405 152.992 92.0501C152.627 91.4596 152.047 91.0334 151.374 90.8609L150.163 95.9854Z" fill="#00ABB1"/>
<path d="M145.314 116.012C144.961 116.595 144.443 117.061 143.824 117.351C143.206 117.64 142.516 117.739 141.841 117.637C141.166 117.534 140.536 117.233 140.032 116.773C139.528 116.313 139.172 115.714 139.009 115.052C138.846 114.389 138.883 113.693 139.116 113.052C139.349 112.411 139.767 111.853 140.317 111.449C140.867 111.045 141.525 110.813 142.207 110.783C142.889 110.753 143.565 110.925 144.149 111.279C144.538 111.511 144.878 111.819 145.147 112.183C145.417 112.548 145.612 112.962 145.72 113.402C145.829 113.842 145.849 114.3 145.779 114.747C145.709 115.195 145.551 115.625 145.314 116.012V116.012Z" fill="#00ABB1"/>
<path d="M127.579 132.248L129.438 130.652L126.127 126.793L126.936 126.105L134.588 135.019L131.478 137.679C129.88 139.049 127.87 138.849 126.644 137.413C126.101 136.808 125.81 136.018 125.831 135.205C125.851 134.393 126.182 133.619 126.755 133.041L121.188 131.034L122.118 130.236L127.579 132.248ZM127.875 133.252C126.695 134.256 126.514 135.656 127.443 136.766C128.373 137.875 129.8 137.91 130.96 136.896L133.136 135.034L130.031 131.41L127.875 133.252Z" fill="#00ABB1"/>
<path d="M115.561 137.418C115.353 136.681 115.393 135.896 115.673 135.182C115.953 134.469 116.459 133.867 117.114 133.468C118.862 132.324 121.173 132.645 122.64 134.863C124.007 136.936 123.504 139.25 121.851 140.334C119.897 141.614 117.867 140.967 116.571 139.024C116.501 138.924 116.438 138.818 116.385 138.708L121.681 135.235L121.64 135.18C120.636 133.674 118.917 133.358 117.621 134.216C117.121 134.51 116.737 134.966 116.53 135.508C116.324 136.05 116.308 136.645 116.486 137.197L115.561 137.418ZM117.686 138.838C117.864 139.141 118.104 139.403 118.39 139.608C118.675 139.813 119.001 139.955 119.345 140.026C119.689 140.097 120.045 140.095 120.388 140.02C120.732 139.945 121.056 139.799 121.339 139.591C121.912 139.2 122.311 138.601 122.452 137.921C122.592 137.242 122.464 136.534 122.093 135.947L117.686 138.838Z" fill="#00ABB1"/>
<path d="M114.114 140.143C113.23 138.347 111.517 137.784 110.095 138.487C109.567 138.735 109.137 139.152 108.873 139.673C108.61 140.193 108.529 140.786 108.643 141.358L107.693 141.413C107.577 140.658 107.71 139.885 108.072 139.212C108.435 138.539 109.007 138.003 109.703 137.684C111.713 136.68 113.948 137.534 115.019 139.692C116.089 141.85 115.37 144.169 113.376 145.143C112.707 145.512 111.932 145.64 111.179 145.506C110.427 145.372 109.745 144.983 109.246 144.405L109.874 143.692C110.237 144.142 110.746 144.453 111.312 144.572C111.879 144.691 112.469 144.61 112.984 144.344C114.385 143.657 114.993 141.955 114.114 140.143Z" fill="#00ABB1"/>
<path d="M106.372 141.694C106.814 142.964 106.191 144.003 104.9 144.681L103.016 145.685C102.408 146.001 102.368 146.332 102.483 146.688C102.83 147.692 103.734 148.144 104.955 147.722C106.176 147.301 106.698 146.377 106.462 145.253L107.402 145.137C107.728 146.643 106.864 147.973 105.267 148.53C103.327 149.203 102.026 148.345 101.529 146.919L100.212 143.15C100.069 142.717 99.8826 142.3 99.6545 141.905L100.579 141.584C100.793 141.986 100.974 142.403 101.122 142.834C101.215 142.284 101.459 141.771 101.828 141.352C102.196 140.933 102.673 140.624 103.207 140.46C104.754 139.888 105.995 140.615 106.372 141.694ZM101.755 144.565L102.051 145.408C102.187 145.246 102.359 145.117 102.554 145.032L104.523 143.993C105.357 143.561 105.734 142.889 105.452 142.076C105.211 141.388 104.412 140.911 103.383 141.268C103.047 141.36 102.735 141.522 102.467 141.743C102.199 141.964 101.981 142.24 101.827 142.551C101.673 142.863 101.587 143.203 101.575 143.551C101.562 143.898 101.624 144.244 101.755 144.565V144.565Z" fill="#00ABB1"/>
<path d="M95.2131 150.051C95.4487 150.054 95.6835 150.025 95.9115 149.966C97.2178 149.655 97.9815 148.581 97.5595 146.829L96.5546 142.658L97.5242 142.427L99.3782 150.101L98.4286 150.332L98.0819 148.902C98.0059 149.416 97.7717 149.895 97.4117 150.271C97.0517 150.647 96.5836 150.901 96.0723 151C95.8709 151.053 95.6624 151.075 95.4543 151.065L95.2131 150.051Z" fill="#00ABB1"/>
<path d="M92.0731 143.451C91.9298 142.838 91.561 142.301 91.0398 141.946C90.5186 141.592 89.8832 141.447 89.2595 141.539C87.1896 141.815 86.7474 143.295 86.9685 144.922L87.1644 146.362C87.3274 145.832 87.6466 145.363 88.0804 145.016C88.5142 144.67 89.0423 144.462 89.5961 144.42C91.651 144.144 93.314 145.574 93.6155 147.757C93.9169 149.941 92.7111 151.738 90.601 152.019C90.0606 152.13 89.4994 152.078 88.9886 151.87C88.4779 151.661 88.0405 151.306 87.7322 150.849L87.913 152.194L86.9434 152.325L85.9737 145.067C85.7275 143.245 86.2551 141.052 89.144 140.665C89.9706 140.513 90.8244 140.678 91.5338 141.129C92.2431 141.58 92.7554 142.282 92.9674 143.095L92.0731 143.451ZM87.4257 148.586C87.6568 150.277 88.8425 151.386 90.385 151.18C91.9274 150.975 92.8468 149.594 92.6207 147.888C92.3946 146.181 91.1737 145.077 89.6062 145.288C88.0386 145.499 87.1996 146.879 87.4257 148.586Z" fill="#00ABB1"/>
<path d="M84.2354 146.638C84.2354 147.978 83.341 148.771 81.9041 149.012L79.804 149.359C79.1257 149.469 78.98 149.77 78.9851 150.136C78.9851 151.18 79.7136 151.913 80.9947 151.893C82.2759 151.873 83.0697 151.16 83.1853 150.016L84.1198 150.202C83.959 151.707 82.718 152.711 81.0249 152.751C78.97 152.787 78.0104 151.557 77.9802 150.051L77.9149 146.036C77.9155 145.581 77.8701 145.127 77.7793 144.681H78.754C78.8347 145.128 78.8767 145.581 78.8796 146.036C79.1407 145.543 79.5335 145.133 80.0143 144.85C80.4951 144.568 81.0449 144.424 81.6027 144.435C83.2707 144.42 84.2153 145.494 84.2354 146.638ZM78.9499 147.918V148.811C79.1235 148.697 79.3213 148.625 79.5277 148.601L81.7283 148.234C82.6527 148.089 83.2355 147.567 83.2355 146.729C83.2355 146.001 82.6176 145.298 81.5223 145.318C81.1774 145.301 80.8329 145.357 80.5111 145.482C80.1894 145.607 79.8976 145.799 79.6549 146.044C79.4122 146.29 79.224 146.583 79.1025 146.906C78.981 147.229 78.929 147.574 78.9499 147.918V147.918Z" fill="#00ABB1"/>
<path d="M74.8 146.086C74.2976 146.051 73.8554 145.619 73.9107 144.841C74.0363 143.19 75.1014 142.272 76.0962 142.116L76.051 142.728C75.6735 142.848 75.3405 143.078 75.0951 143.388C74.8497 143.698 74.7031 144.075 74.6744 144.47C74.7678 144.409 74.8816 144.387 74.9909 144.41C75.103 144.416 75.2126 144.445 75.3129 144.495C75.4132 144.545 75.5021 144.616 75.5738 144.702C75.6455 144.788 75.6986 144.889 75.7297 144.996C75.7608 145.104 75.7693 145.217 75.7546 145.328C75.7428 145.441 75.7085 145.55 75.6539 145.65C75.5993 145.749 75.5254 145.837 75.4365 145.907C75.3476 145.978 75.2455 146.03 75.1362 146.061C75.027 146.091 74.9126 146.1 74.8 146.086Z" fill="#00ABB1"/>
<path d="M62.8424 147.702L65.2289 148.279L66.4146 143.331L67.4496 143.582L64.7014 155L60.7222 154.041C60.2743 153.963 59.8475 153.793 59.4686 153.542C59.0897 153.29 58.7669 152.964 58.5206 152.582C58.2742 152.2 58.1097 151.771 58.0372 151.323C57.9648 150.874 57.986 150.416 58.0996 149.976C58.273 149.181 58.7433 148.483 59.4146 148.023C60.086 147.563 60.9076 147.377 61.7119 147.501L60.0791 141.815L61.2748 142.101L62.8424 147.702ZM62.2395 148.525C60.7323 148.164 59.4862 148.837 59.1547 150.222C58.8231 151.607 59.6069 152.802 61.1242 153.163L63.9125 153.836L65.028 149.193L62.2395 148.525Z" fill="#00ABB1"/>
<path d="M51.5982 141.002C52.0752 140.402 52.7355 139.974 53.4783 139.784C54.2211 139.594 55.0059 139.651 55.713 139.948C57.6674 140.691 58.7576 142.753 57.8131 145.233C56.9238 147.552 54.7534 148.5 52.9095 147.798C50.724 146.964 50.0608 144.937 50.8999 142.748C50.939 142.634 50.9877 142.523 51.0455 142.417L56.964 144.671V144.61C57.5971 142.899 56.8434 141.338 55.3914 140.781C54.8597 140.548 54.2642 140.503 53.7033 140.653C53.1425 140.804 52.6498 141.141 52.3066 141.609L51.5982 141.002ZM51.6886 143.556C51.5468 143.877 51.4736 144.223 51.4737 144.573C51.4737 144.923 51.5471 145.269 51.6891 145.589C51.831 145.909 52.0384 146.196 52.2979 146.431C52.5574 146.666 52.8633 146.844 53.1959 146.954C53.8477 147.191 54.5661 147.167 55.2003 146.886C55.8344 146.605 56.3351 146.09 56.5973 145.449L51.6886 143.556Z" fill="#00ABB1"/>
<path d="M48.403 136.63C50.1715 137.574 50.3022 139.335 49.5185 140.796L47.1671 145.163L46.2879 144.696L48.5538 140.46C49.1466 139.345 49.1818 138.05 47.8102 137.318C46.5642 136.655 45.3282 137.212 44.7002 138.382L42.4293 142.638L41.55 142.166L44.5646 136.525C44.8033 136.081 45.0115 135.621 45.1876 135.149L46.0216 135.596C45.8974 135.941 45.748 136.277 45.5744 136.6L45.5192 136.7C45.9432 136.415 46.44 136.258 46.9509 136.245C47.4618 136.233 47.9656 136.366 48.403 136.63Z" fill="#00ABB1"/>
<path d="M37.5457 139.566L35.8425 138.422L36.3449 137.679L38.0532 138.828L40.716 134.868C41.2536 134.07 41.1431 133.433 40.3995 132.936C40.1969 132.799 39.9701 132.702 39.7312 132.65L40.2337 131.922C40.5568 132.002 40.8608 132.145 41.128 132.344C42.1881 133.051 42.4142 134.141 41.6304 135.355L38.9123 139.396L40.304 140.329L39.8016 141.072L39.2992 140.741C38.651 140.304 38.1788 140.409 37.7266 141.082L36.978 142.196L36.1792 141.659L37.5457 139.566Z" fill="#00ABB1"/>
<path d="M31.2604 140.093C31.1637 140.031 31.0809 139.95 31.0173 139.855C30.9536 139.759 30.9105 139.652 30.8907 139.539C30.8708 139.426 30.8746 139.31 30.9019 139.199C30.9292 139.087 30.9794 138.983 31.0492 138.892C31.119 138.801 31.2069 138.725 31.3075 138.67C31.408 138.615 31.519 138.581 31.6333 138.571C31.7477 138.561 31.8628 138.574 31.9716 138.611C32.0804 138.647 32.1804 138.706 32.2652 138.783C32.4188 138.923 32.5144 139.115 32.5329 139.322C32.5514 139.529 32.4915 139.735 32.3652 139.899C32.2388 140.064 32.0552 140.175 31.8506 140.211C31.646 140.247 31.4354 140.205 31.2604 140.093ZM38.9825 130.883L34.1593 137.142L33.3706 136.535L38.1938 130.276L38.9825 130.883Z" fill="#00ABB1"/>
<path d="M36.2496 128.7L28.4721 137.789L27.7185 137.142L35.4959 128.052L36.2496 128.7Z" fill="#00ABB1"/>
<path d="M25.0055 134.758C24.8456 134.607 24.7523 134.399 24.7462 134.179C24.74 133.959 24.8215 133.746 24.9728 133.586C25.124 133.426 25.3326 133.333 25.5526 133.327C25.7726 133.321 25.9861 133.402 26.146 133.553C26.2251 133.628 26.2888 133.718 26.3333 133.817C26.3778 133.917 26.4022 134.024 26.4053 134.133C26.4083 134.241 26.3898 134.35 26.3509 134.451C26.3121 134.553 26.2535 134.646 26.1786 134.725C26.1037 134.804 26.014 134.868 25.9145 134.912C25.815 134.957 25.7077 134.981 25.5988 134.984C25.4898 134.987 25.3814 134.969 25.2796 134.93C25.1778 134.891 25.0847 134.833 25.0055 134.758ZM33.632 126.381L28.1958 132.113L27.4724 131.43L32.9135 125.693L33.632 126.381Z" fill="#00ABB1"/>
<path d="M31.592 124.469L30.9388 125.056L23.0307 125.443L26.3468 129.121L25.6835 129.719L21.5637 125.151L22.2168 124.564L30.1048 124.158L26.7236 120.403L27.3867 119.806L31.592 124.469Z" fill="#00ABB1"/>
<path d="M24.9803 120.112C23.8901 120.895 22.7144 120.614 21.6996 119.545L20.1923 118.039C19.715 117.537 19.3884 117.598 19.092 117.808C18.2429 118.416 18.0419 119.415 18.7905 120.464C19.5391 121.513 20.5741 121.758 21.5789 121.201L21.9608 122.07C20.6243 122.797 19.0819 122.356 18.1022 120.98C16.9065 119.309 17.3637 117.818 18.6047 116.965L21.8553 114.646C22.2297 114.388 22.5766 114.092 22.8903 113.763L23.458 114.556C23.1348 114.874 22.7852 115.165 22.413 115.424C22.968 115.359 23.5303 115.45 24.0369 115.686C24.5435 115.921 24.9744 116.293 25.2817 116.759C26.2615 118.059 25.9098 119.45 24.9803 120.112ZM20.9208 116.498L20.1973 117C20.3881 117.082 20.5594 117.204 20.6997 117.357L22.2522 118.958C22.9003 119.635 23.6539 119.806 24.3573 119.304C24.9502 118.883 25.1813 117.984 24.5432 117.096C24.3585 116.802 24.1136 116.551 23.8246 116.359C23.5356 116.167 23.209 116.039 22.8666 115.982C22.5242 115.926 22.1737 115.943 21.8382 116.032C21.5028 116.121 21.1901 116.28 20.9208 116.498V116.498Z" fill="#00ABB1"/>
<path d="M20.0716 112.107C19.8103 111.665 19.9158 111.068 20.574 110.671C22.0009 109.823 23.3625 110.169 24.0608 110.897L23.5584 111.208C23.2427 110.972 22.8643 110.833 22.4702 110.81C22.0762 110.787 21.6841 110.88 21.3427 111.078C21.4426 111.126 21.5239 111.205 21.5739 111.304C21.632 111.4 21.6698 111.507 21.6851 111.618C21.7003 111.729 21.6927 111.842 21.6626 111.95C21.6325 112.058 21.5805 112.159 21.51 112.246C21.4394 112.334 21.3518 112.406 21.2523 112.458C21.1521 112.514 21.0416 112.549 20.9275 112.562C20.8133 112.575 20.6978 112.564 20.5877 112.532C20.4776 112.499 20.3752 112.444 20.2866 112.371C20.1979 112.298 20.1248 112.208 20.0716 112.107V112.107Z" fill="#00ABB1"/>
<path d="M11.8973 103.223L12.7916 105.507L17.5294 103.65L17.9163 104.653L6.97362 108.92L5.46636 105.115C5.2749 104.703 5.17077 104.256 5.16051 103.801C5.15025 103.347 5.23409 102.896 5.40675 102.475C5.57941 102.055 5.83718 101.675 6.16387 101.359C6.49057 101.042 6.87915 100.797 7.30523 100.638C8.05623 100.324 8.899 100.31 9.6605 100.597C10.422 100.885 11.0444 101.452 11.3999 102.184L15.1379 97.5915L15.5851 98.7308L11.8973 103.223ZM10.8925 103.183C10.3248 101.732 9.06368 101.105 7.73227 101.627C6.40086 102.149 5.87832 103.474 6.44605 104.924L7.49112 107.59L11.9375 105.848L10.8925 103.183Z" fill="#00ABB1"/>
<path d="M10.993 90.1883C11.7581 90.2356 12.4868 90.5314 13.0682 91.0306C13.6496 91.5299 14.0518 92.2052 14.2135 92.9538C14.7159 94.9615 13.6508 97.0544 11.0734 97.6969C8.66177 98.2992 6.64706 97.0594 6.16474 95.1472C5.60203 92.8836 6.88317 91.1821 9.14907 90.5999C9.26549 90.5642 9.38491 90.539 9.50583 90.5246L11.0131 96.6629H11.0784C12.8419 96.2062 13.696 94.6955 13.3192 93.1847C13.2046 92.6171 12.9007 92.105 12.4572 91.7322C12.0137 91.3593 11.4568 91.1477 10.8774 91.1319L10.993 90.1883ZM8.94815 91.7242C8.60349 91.7918 8.27683 91.9309 7.98932 92.1325C7.7018 92.3341 7.45979 92.5937 7.27893 92.8945C7.09807 93.1953 6.98241 93.5307 6.93934 93.8789C6.89627 94.2272 6.92675 94.5806 7.02888 94.9163C7.21117 95.587 7.64615 96.1611 8.24273 96.5185C8.83932 96.8759 9.55122 96.9888 10.2293 96.8336L8.94815 91.7242Z" fill="#00ABB1"/>
<path d="M15.9669 87.5583L4.96395 88.8181L4.85343 87.8494L6.41594 87.6687C5.84546 87.4756 5.34314 87.1217 4.96959 86.6496C4.59604 86.1776 4.36719 85.6077 4.31078 85.0086C4.05455 82.7901 5.71254 81.2493 8.03371 80.9933C10.3549 80.7373 12.3444 81.9017 12.6007 84.1051C12.6817 84.6854 12.5958 85.2767 12.3529 85.8099C12.11 86.3432 11.7202 86.7964 11.2291 87.1166L15.8413 86.5845L15.9669 87.5583ZM5.23527 85.0487C5.42117 86.6749 6.95854 87.5834 8.78734 87.3725C10.6161 87.1617 11.9275 85.9321 11.7416 84.3009C11.5557 82.6697 10.0082 81.7311 8.16435 81.9419C6.32047 82.1527 5.04435 83.4276 5.23527 85.0738V85.0487Z" fill="#00ABB1"/>
<path d="M-0.000109572 78.4335C-0.00306284 78.2698 0.0426519 78.1088 0.13126 77.971C0.219868 77.8332 0.347401 77.7248 0.497709 77.6594C0.648016 77.594 0.814367 77.5746 0.975717 77.6036C1.13707 77.6326 1.28615 77.7088 1.40417 77.8225C1.52219 77.9362 1.60379 78.0823 1.6387 78.2423C1.67361 78.4023 1.66027 78.5691 1.6003 78.7215C1.54034 78.874 1.4365 79.0052 1.30187 79.0987C1.16724 79.1921 1.0079 79.2436 0.84398 79.2466C0.734408 79.2514 0.624998 79.2339 0.522425 79.1951C0.419851 79.1563 0.326246 79.0971 0.247297 79.021C0.168348 78.945 0.105712 78.8537 0.0631833 78.7527C0.0206546 78.6517 -0.00089462 78.5431 -0.000109572 78.4335ZM12.0278 78.6695L4.11969 78.8451V77.8413L12.0228 77.6656L12.0278 78.6695Z" fill="#00ABB1"/>
<path d="M4.16507 73.2639L4.24541 71.2111L5.13973 71.2512L5.05932 73.299L9.82733 73.4998C10.792 73.5349 11.2693 73.1083 11.3346 72.2149C11.3433 71.9712 11.3075 71.728 11.229 71.4972L12.1083 71.5323C12.2098 71.8566 12.2473 72.1975 12.2188 72.5361C12.1635 73.811 11.3546 74.5739 9.9127 74.5136L5.0443 74.3129L4.97395 75.9842L4.07963 75.9491V75.3518C4.10978 74.5739 3.77317 74.2276 2.96428 74.1974L1.6228 74.1422L1.66304 73.1836L4.16507 73.2639Z" fill="#00ABB1"/>
<path d="M10.9928 63.05C11.6837 63.382 12.2471 63.9304 12.5972 64.6118C12.9472 65.2931 13.0649 66.0701 12.9321 66.8244C12.6357 68.8922 10.8622 70.413 8.23454 70.0366C5.7727 69.6853 4.37094 67.783 4.64727 65.8306C4.97887 63.5168 6.80769 62.4226 9.12886 62.7338C9.24909 62.75 9.3682 62.7734 9.48556 62.8041L8.59124 69.0679H8.65656C10.4653 69.3088 11.8268 68.2297 12.0429 66.6889C12.1507 66.1169 12.0601 65.5252 11.7861 65.0115C11.5121 64.4978 11.071 64.0927 10.5356 63.8631L10.9928 63.05ZM8.5209 63.7025C8.17562 63.635 7.82004 63.6407 7.47712 63.7193C7.13419 63.7978 6.81158 63.9475 6.53024 64.1585C6.24889 64.3696 6.01507 64.6373 5.84389 64.9444C5.67271 65.2514 5.56801 65.5909 5.53656 65.941C5.45365 66.6301 5.64047 67.3245 6.05805 67.8791C6.47564 68.4338 7.09164 68.8058 7.77733 68.9174L8.5209 63.7025Z" fill="#00ABB1"/>
<path d="M11.5506 43.3199C11.8496 42.7066 12.3239 42.1956 12.9137 41.8517C13.5034 41.5077 14.182 41.3463 14.8637 41.3878C15.5453 41.4292 16.1992 41.6717 16.7428 42.0846C17.2864 42.4975 17.6952 43.0622 17.9175 43.7072C18.1397 44.3522 18.1655 45.0486 17.9914 45.7083C17.8174 46.368 17.4515 46.9612 16.9398 47.413C16.4282 47.8648 15.7938 48.1549 15.1171 48.2464C14.4404 48.338 13.7518 48.227 13.1383 47.9274C12.7286 47.7319 12.3621 47.4569 12.0599 47.1184C11.7577 46.7799 11.526 46.3848 11.3782 45.9559C11.2304 45.5271 11.1696 45.0732 11.1992 44.6206C11.2288 44.168 11.3482 43.7259 11.5506 43.3199Z" fill="#00ABB1"/>
</g>
<defs>
<clipPath id="clip0_697_743">
<rect width="160" height="155" fill="white"/>
</clipPath>
</defs>
</svg>
