<svg width="143" height="139" viewBox="0 0 143 139" fill="none" xmlns="http://www.w3.org/2000/svg">
<g clip-path="url(#clip0_770_4537)">
<path d="M33.7675 15.245L31.9714 16.5188L34.6072 20.2366L33.8349 20.7857L27.746 12.2068L30.7276 10.0778C31.0439 9.82151 31.4097 9.63365 31.802 9.52606C32.1944 9.41846 32.6047 9.39348 33.0071 9.45268C33.4096 9.51188 33.7954 9.65396 34.1403 9.87C34.4853 10.0861 34.7818 10.3714 35.0113 10.708C35.4456 11.2921 35.6409 12.0203 35.5575 12.744C35.474 13.4676 35.118 14.1319 34.5623 14.6013L39.358 16.8518L38.46 17.4865L33.7675 15.245ZM33.5789 14.3448C34.715 13.5346 34.9844 12.3013 34.248 11.2616C33.5116 10.2219 32.2408 10.0508 31.1048 10.861L29.0167 12.3508L31.4909 15.8346L33.5789 14.3448Z" fill="black"/>
<path d="M44.8812 11.5991C45.0058 12.2735 44.9076 12.9703 44.6012 13.5836C44.2949 14.1969 43.7972 14.6933 43.1839 14.9973C41.5359 15.8975 39.5017 15.4024 38.3836 13.3094C37.3374 11.3425 37.9705 9.31707 39.5242 8.48439C41.3697 7.49867 43.1165 8.24133 44.1223 10.0822C44.1774 10.1776 44.2254 10.2769 44.266 10.3793L39.2727 13.0529L39.2997 13.1024C40.081 14.5382 41.5763 14.9478 42.8066 14.2907C43.2751 14.0682 43.654 13.6924 43.8809 13.2253C44.1078 12.7581 44.1692 12.2274 44.055 11.7206L44.8812 11.5991ZM43.085 10.1543C42.9511 9.86909 42.759 9.61528 42.521 9.40929C42.283 9.2033 42.0045 9.04973 41.7035 8.9585C41.4025 8.86727 41.0858 8.84042 40.7738 8.87971C40.4618 8.919 40.1615 9.02353 39.8924 9.18654C39.3497 9.49001 38.9458 9.99279 38.7657 10.5889C38.5856 11.1851 38.6435 11.828 38.927 12.3822L43.085 10.1543Z" fill="black"/>
<path d="M46.3809 9.29902C47.0186 10.9734 48.5049 11.617 49.8295 11.0994C50.3196 10.9198 50.7359 10.5815 51.0124 10.138C51.2889 9.69446 51.41 9.17112 51.3562 8.65088L52.2049 8.67337C52.244 9.35432 52.0616 10.0296 51.6851 10.5978C51.3086 11.1659 50.7583 11.5962 50.1169 11.8241C48.2489 12.5397 46.3226 11.608 45.5502 9.57358C44.7779 7.53912 45.5996 5.5497 47.4541 4.83854C48.0798 4.56367 48.7807 4.51247 49.4395 4.69354C50.0983 4.87461 50.6751 5.27694 51.0734 5.83324L50.4537 6.42287C50.1677 5.99567 49.7444 5.67956 49.2541 5.52723C48.7639 5.3749 48.2364 5.39554 47.7595 5.58569C46.4258 6.13031 45.7478 7.58864 46.3809 9.29902Z" fill="black"/>
<path d="M53.4084 8.52488C53.1165 7.35912 53.7541 6.48144 54.9575 5.98183L56.7133 5.25267C57.2835 5.01862 57.3464 4.72605 57.2701 4.40648C57.041 3.50628 56.2776 3.00217 55.1551 3.28123C54.0325 3.56029 53.4937 4.33897 53.6284 5.3652L52.7797 5.3922C52.6135 4.0419 53.4892 2.90314 54.9575 2.53855C56.7536 2.08845 57.8268 2.98865 58.1501 4.28044L59.0168 7.75072C59.1072 8.14929 59.2396 8.53707 59.412 8.90749L58.5633 9.11902C58.4054 8.74276 58.2777 8.35445 58.1816 7.95778C58.0543 8.44155 57.7954 8.88036 57.4339 9.22528C57.0723 9.5702 56.6223 9.80767 56.134 9.9112C54.6971 10.2713 53.6553 9.5196 53.4084 8.52488ZM57.7505 6.3374L57.5529 5.55874C57.4281 5.69221 57.2745 5.79535 57.1039 5.8603L55.2628 6.62547C54.486 6.94054 54.0954 7.52568 54.2795 8.26384C54.4411 8.89849 55.1102 9.3891 56.0756 9.16405C56.3794 9.10428 56.6671 8.98093 56.9201 8.80207C57.173 8.62322 57.3855 8.39288 57.5436 8.1261C57.7017 7.85932 57.8018 7.56212 57.8374 7.25389C57.8731 6.94567 57.8435 6.63336 57.7505 6.3374Z" fill="black"/>
<path d="M64.0011 1.97132C63.794 1.94288 63.5841 1.94288 63.377 1.97132C62.187 2.14236 61.4192 3.03808 61.6572 4.64044L62.214 8.44827L61.3159 8.57882L60.2876 1.56624L61.1543 1.4402L61.3428 2.7455C61.4511 2.29206 61.6972 1.8835 62.0471 1.5763C62.397 1.2691 62.8334 1.07843 63.2961 1.03062C63.479 1.00119 63.6655 1.00119 63.8485 1.03062L64.0011 1.97132Z" fill="black"/>
<path d="M66.2777 8.11536C66.3557 8.67522 66.6411 9.18513 67.0771 9.54374C67.513 9.90234 68.0676 10.0834 68.6306 10.0508C70.4986 9.96977 71.006 8.70049 70.9387 7.21516L70.8848 5.90986C70.6962 6.37039 70.3743 6.76366 69.9604 7.03887C69.5466 7.31408 69.0599 7.4586 68.5633 7.45372C66.7133 7.53024 65.3437 6.10341 65.2584 4.14547C65.1731 2.18753 66.3855 0.661703 68.2625 0.580685C68.7525 0.523412 69.2485 0.614031 69.6869 0.840954C70.1252 1.06788 70.4861 1.42079 70.7232 1.85448L70.6693 0.6392L71.5674 0.598679L71.8502 7.16115C71.9221 8.80852 71.28 10.7259 68.6711 10.8385C67.9232 10.91 67.176 10.6942 66.5808 10.2347C65.9856 9.77508 65.5868 9.10604 65.465 8.36291L66.2777 8.11536ZM70.8264 3.90243C70.7591 2.37209 69.7936 1.28735 68.4016 1.34586C67.0096 1.40437 66.0801 2.56563 66.1565 4.10498C66.2328 5.64432 67.2207 6.73805 68.6396 6.67503C70.0586 6.61202 70.8938 5.44627 70.8264 3.90243Z" fill="black"/>
<path d="M73.5431 5.88279C73.6374 4.68102 74.522 4.0509 75.8197 3.96088L77.7191 3.82585C78.3343 3.78534 78.487 3.52878 78.5139 3.20471C78.5858 2.273 78.0155 1.55732 76.866 1.4673C75.7165 1.37728 74.9531 1.93993 74.7555 2.95266L73.9428 2.70958C74.2122 1.35928 75.4021 0.576118 76.9109 0.693144C78.7429 0.837176 79.4973 2.01644 79.3896 3.36224L79.1112 6.93153C79.0687 7.33851 79.0687 7.74883 79.1112 8.15581L78.24 8.08378C78.2072 7.67786 78.2072 7.26996 78.24 6.86403C77.9657 7.28148 77.5812 7.61441 77.1293 7.82579C76.6774 8.03718 76.1759 8.1187 75.6805 8.06128C74.2167 7.94426 73.4623 6.90451 73.5431 5.88279ZM78.3568 5.18964L78.4196 4.38848C78.2563 4.47521 78.0746 4.52151 77.8897 4.5235L75.9005 4.66754C75.0653 4.72155 74.5085 5.14012 74.4502 5.90979C74.3963 6.55794 74.8992 7.26012 75.8557 7.31413C76.1622 7.35738 76.4744 7.33514 76.7718 7.24891C77.0692 7.16268 77.3451 7.0144 77.5813 6.81378C77.8174 6.61316 78.0086 6.36475 78.1423 6.08484C78.2759 5.80494 78.349 5.49986 78.3568 5.18964Z" fill="black"/>
<path d="M81.8458 7.14303C81.9722 7.16912 82.0917 7.22153 82.1965 7.29691C82.3014 7.37228 82.3893 7.4689 82.4545 7.58053C82.5197 7.69215 82.5608 7.81627 82.5751 7.94483C82.5893 8.07339 82.5765 8.20355 82.5373 8.3268C82.2948 9.78963 81.271 10.5233 80.3729 10.5773L80.4628 10.0327C80.8029 9.95021 81.1115 9.76999 81.3508 9.51411C81.5901 9.25824 81.7497 8.93785 81.8099 8.59234C81.7183 8.63382 81.6156 8.64333 81.518 8.61935C81.4177 8.60351 81.3218 8.56706 81.2362 8.51229C81.1507 8.45752 81.0773 8.38559 81.0208 8.30106C80.9643 8.21653 80.9259 8.12121 80.9079 8.02107C80.8899 7.92093 80.8927 7.81813 80.9162 7.71915C80.9384 7.61951 80.9802 7.52532 81.0392 7.44212C81.0983 7.35893 81.1733 7.28842 81.2599 7.23474C81.3465 7.18105 81.443 7.14527 81.5436 7.12952C81.6442 7.11377 81.747 7.11837 81.8458 7.14303Z" fill="black"/>
<path d="M92.6316 6.66598L90.5526 5.95932L89.0977 10.2803L88.1996 9.97872L91.5629 0L95.034 1.17476C95.4263 1.28188 95.7923 1.46913 96.109 1.72477C96.4257 1.98041 96.6862 2.29891 96.8743 2.66027C97.0623 3.02164 97.1738 3.41806 97.2018 3.82467C97.2297 4.23128 97.1735 4.6393 97.0367 5.02311C96.8181 5.71881 96.3426 6.30444 95.7073 6.66008C95.072 7.01571 94.325 7.11443 93.6195 6.93603L94.6119 12.1527L93.5746 11.8016L92.6316 6.66598ZM93.2513 5.98182C94.5715 6.43192 95.73 5.92781 96.1386 4.71704C96.5472 3.50627 95.941 2.37652 94.6208 1.93092L92.1916 1.10723L90.8445 5.15813L93.2513 5.98182Z" fill="black"/>
<path d="M102.093 13.5661C101.62 14.0625 100.998 14.3905 100.322 14.5001C99.6461 14.6098 98.9529 14.4952 98.3479 14.1738C96.6685 13.3546 95.8647 11.4192 96.9065 9.28569C97.8854 7.28274 99.8926 6.61211 101.478 7.39078C103.355 8.29098 103.781 10.1769 102.879 12.0628C102.832 12.1617 102.779 12.2579 102.721 12.3509L97.6339 9.85732L97.607 9.91133C96.9065 11.3832 97.4453 12.8415 98.6982 13.4536C99.1529 13.7044 99.6792 13.7929 100.191 13.7046C100.702 13.6163 101.169 13.3564 101.514 12.9675L102.093 13.5661ZM102.219 11.2797C102.369 11.0049 102.461 10.7015 102.488 10.3891C102.515 10.0766 102.477 9.76198 102.375 9.46533C102.274 9.16867 102.111 8.89655 101.899 8.66642C101.686 8.43628 101.428 8.25322 101.141 8.12895C100.579 7.86835 99.9385 7.83522 99.3529 8.03648C98.7673 8.23774 98.2818 8.65784 97.9976 9.20918L102.219 11.2797Z" fill="black"/>
<path d="M104.572 17.7339C103.072 16.7482 103.094 15.1638 103.911 13.9216L106.35 10.1992L107.091 10.6898L104.733 14.2906C104.118 15.2314 103.979 16.3881 105.146 17.1533C106.197 17.8464 107.347 17.4458 107.998 16.4556L110.364 12.8548L111.105 13.3409L107.962 18.1345C107.716 18.5134 107.494 18.9072 107.297 19.3138L106.592 18.8637C106.728 18.5598 106.889 18.2677 107.073 17.9905L107.131 17.9049C106.732 18.1223 106.28 18.2216 105.827 18.1913C105.373 18.1611 104.938 18.0024 104.572 17.7339Z" fill="black"/>
<path d="M114.495 15.9876L115.923 17.1489L115.416 17.77L113.988 16.6088L111.294 19.9305C110.75 20.6012 110.8 21.1773 111.419 21.6814C111.59 21.8176 111.783 21.9227 111.99 21.992L111.496 22.6041C111.216 22.5026 110.957 22.35 110.732 22.154C109.834 21.4338 109.731 20.4436 110.544 19.4534L113.292 16.0597L112.129 15.1144L112.654 14.5023L113.072 14.8399C113.611 15.29 114.037 15.2224 114.495 14.6598L115.25 13.7236L115.919 14.2682L114.495 15.9876Z" fill="black"/>
<path d="M112.515 23.6258L117.306 18.4182L117.962 19.0213L113.166 24.229L112.515 23.6258ZM120.149 16.0146C120.256 16.1144 120.332 16.2439 120.366 16.3867C120.4 16.5296 120.391 16.6794 120.341 16.8173C120.29 16.9551 120.199 17.0748 120.081 17.1611C119.962 17.2474 119.821 17.2965 119.674 17.3021C119.528 17.3078 119.383 17.2698 119.258 17.1929C119.133 17.1161 119.034 17.0038 118.972 16.8703C118.911 16.7368 118.891 16.5881 118.914 16.443C118.937 16.2979 119.003 16.1629 119.102 16.0552C119.233 15.9144 119.414 15.8312 119.606 15.8236C119.798 15.816 119.985 15.8847 120.126 16.0146H120.149Z" fill="black"/>
<path d="M114.769 25.7907L122.403 18.292L123.027 18.9312L115.371 26.4298L114.769 25.7907Z" fill="black"/>
<path d="M116.92 28.0772L122.223 23.3916L122.811 24.0578L117.508 28.7478L116.92 28.0772ZM125.272 21.2897C125.369 21.4 125.431 21.5366 125.45 21.6822C125.469 21.8278 125.445 21.9758 125.38 22.1075C125.315 22.2393 125.213 22.3489 125.086 22.4225C124.96 22.496 124.814 22.5302 124.668 22.5208C124.521 22.5114 124.381 22.4587 124.265 22.3695C124.149 22.2802 124.061 22.1584 124.014 22.0194C123.967 21.8804 123.962 21.7305 123.999 21.5886C124.037 21.4467 124.116 21.3192 124.226 21.2221C124.298 21.156 124.383 21.1051 124.475 21.0725C124.568 21.04 124.666 21.0265 124.763 21.0328C124.861 21.0391 124.956 21.0651 125.044 21.1092C125.131 21.1534 125.209 21.2147 125.272 21.2897Z" fill="black"/>
<path d="M118.604 29.9452L119.233 29.4951L126.3 29.7877L123.642 26.2319L124.284 25.7502L127.58 30.1612L126.951 30.6113L119.902 30.3413L122.596 33.9421L121.958 34.4237L118.604 29.9452Z" fill="black"/>
<path d="M124.114 34.3651C125.151 33.753 126.17 34.1176 126.987 35.1348L128.182 36.6201C128.568 37.0973 128.864 37.0702 129.147 36.9127C129.951 36.4626 130.211 35.5624 129.628 34.5632C129.044 33.564 128.146 33.2669 127.203 33.663L126.938 32.8573C128.182 32.3127 129.52 32.8348 130.283 34.1401C131.213 35.7289 130.683 37.0252 129.52 37.7094L126.44 39.5098C126.086 39.7122 125.754 39.9489 125.447 40.2164L124.998 39.4648C125.313 39.2056 125.647 38.9722 125.999 38.7671C125.501 38.7803 125.009 38.6548 124.578 38.4045C124.147 38.1542 123.793 37.789 123.557 37.3493C122.807 36.107 123.233 34.8828 124.114 34.3651ZM127.436 37.9209L128.123 37.5158C127.961 37.4277 127.82 37.3048 127.71 37.1558L126.453 35.6029C125.932 34.9458 125.272 34.7297 124.607 35.1213C124.046 35.4544 123.768 36.2375 124.262 37.0837C124.404 37.3594 124.602 37.6019 124.844 37.7954C125.086 37.989 125.366 38.1292 125.665 38.2069C125.965 38.2847 126.278 38.2982 126.583 38.2466C126.888 38.195 127.179 38.0794 127.436 37.9074V37.9209Z" fill="black"/>
<path d="M127.836 41.9089C127.887 42.028 127.911 42.1563 127.909 42.2856C127.907 42.415 127.878 42.5425 127.824 42.6599C127.77 42.7773 127.692 42.8821 127.595 42.9675C127.498 43.0528 127.384 43.1169 127.261 43.1556C125.914 43.7948 124.738 43.3717 124.176 42.6696L124.67 42.431C124.932 42.669 125.257 42.8246 125.606 42.8782C125.955 42.9318 126.312 42.8812 126.633 42.7325C126.546 42.6808 126.48 42.6016 126.444 42.5075C126.4 42.4169 126.376 42.3184 126.371 42.2179C126.367 42.1174 126.383 42.0171 126.419 41.9231C126.455 41.8291 126.509 41.7434 126.579 41.6713C126.649 41.5992 126.733 41.5422 126.826 41.5038C126.919 41.4637 127.018 41.4423 127.12 41.441C127.221 41.4396 127.321 41.4583 127.415 41.496C127.509 41.5336 127.594 41.5895 127.667 41.6603C127.739 41.7312 127.796 41.8157 127.836 41.9089Z" fill="black"/>
<path d="M134.396 50.5102L133.786 48.3992L129.417 49.6685L129.152 48.7683L139.242 45.8291L140.265 49.3534C140.786 51.1538 139.884 52.7291 138.263 53.2017C137.568 53.419 136.817 53.3626 136.163 53.0439C135.509 52.7252 135.001 52.1683 134.742 51.4869L131.065 55.2812L130.759 54.2235L134.396 50.5102ZM135.295 50.6317C135.685 51.982 136.754 52.6346 137.989 52.279C139.224 51.9235 139.785 50.7802 139.403 49.4389L138.689 46.9679L134.59 48.1606L135.295 50.6317Z" fill="black"/>
<path d="M134.163 62.2129C133.489 62.1115 132.866 61.7933 132.388 61.3062C131.91 60.8191 131.603 60.1895 131.514 59.5123C131.226 57.6669 132.349 55.9115 134.688 55.5334C136.889 55.1914 138.581 56.4606 138.855 58.207C139.174 60.2775 137.894 61.6908 135.833 62.0284C135.725 62.0473 135.616 62.0593 135.506 62.0644L134.657 56.4381H134.599C132.991 56.7037 132.106 57.982 132.322 59.3638C132.378 59.8813 132.607 60.3645 132.972 60.7341C133.338 61.1038 133.818 61.338 134.334 61.3983L134.163 62.2129ZM136.107 61.0067C136.42 60.9743 136.723 60.8764 136.995 60.7194C137.268 60.5623 137.505 60.3496 137.69 60.095C137.876 59.8404 138.006 59.5496 138.072 59.2414C138.138 58.9332 138.139 58.6146 138.074 58.3061C137.967 57.6917 137.626 57.1429 137.124 56.7752C136.621 56.4075 135.996 56.2496 135.38 56.3346L136.107 61.0067Z" fill="black"/>
<path d="M129.502 64.1663L139.381 63.9187V64.7919L137.975 64.8279C138.467 65.0464 138.886 65.4026 139.18 65.8537C139.475 66.3049 139.634 66.8317 139.637 67.371C139.686 69.3784 138.088 70.6207 136 70.6702C133.912 70.7197 132.237 69.518 132.187 67.5195C132.162 66.9952 132.286 66.4746 132.544 66.018C132.802 65.5614 133.185 65.1878 133.647 64.9404L129.502 65.0485V64.1663ZM138.855 67.245C138.819 65.7731 137.508 64.8414 135.878 64.8819C134.248 64.9224 132.969 65.9217 133.004 67.389C133.04 68.8563 134.352 69.824 136 69.7835C137.648 69.743 138.896 68.7303 138.855 67.245Z" fill="black"/>
<path d="M132.304 72.4302L139.358 72.8803L139.3 73.7805L132.246 73.3304L132.304 72.4302ZM142.996 73.5914C142.993 73.6914 142.97 73.7899 142.929 73.8808C142.887 73.9718 142.828 74.0534 142.754 74.1207C142.68 74.1881 142.593 74.2398 142.499 74.2728C142.405 74.3058 142.305 74.3193 142.205 74.3126C142.106 74.306 142.009 74.2792 141.92 74.2339C141.831 74.1887 141.752 74.1259 141.688 74.0493C141.623 73.9727 141.575 73.8838 141.546 73.7881C141.517 73.6925 141.508 73.5919 141.518 73.4924C141.539 73.3017 141.632 73.1263 141.778 73.0029C141.925 72.8796 142.113 72.8178 142.304 72.8306C142.495 72.8434 142.674 72.9298 142.803 73.0716C142.932 73.2134 143.001 73.3997 142.996 73.5914Z" fill="black"/>
<path d="M138.873 77.8855L138.631 79.7129L137.841 79.6049L138.079 77.8045L133.849 77.2464C132.995 77.1338 132.533 77.4759 132.43 78.2726C132.399 78.4886 132.409 78.7087 132.461 78.9207L131.684 78.8172C131.624 78.5202 131.624 78.214 131.684 77.917C131.832 76.7827 132.614 76.1661 133.894 76.3371L138.213 76.9043L138.406 75.4189L139.201 75.5225L139.129 76.0536C139.039 76.7467 139.309 77.0798 140.027 77.1743L141.217 77.3319L141.105 78.187L138.873 77.8855Z" fill="black"/>
<path d="M131.963 86.4599C131.375 86.108 130.918 85.5733 130.661 84.9372C130.404 84.3011 130.361 83.5983 130.539 82.9356C130.988 81.1352 132.672 79.8974 134.98 80.442C137.14 80.9552 138.236 82.7736 137.832 84.4929C137.351 86.5319 135.631 87.3601 133.597 86.892C133.49 86.871 133.385 86.8408 133.283 86.802L134.585 81.2837H134.527C132.937 80.9191 131.639 81.7743 131.321 83.1336C131.176 83.6333 131.206 84.1673 131.405 84.6477C131.604 85.128 131.961 85.5259 132.416 85.7757L131.963 86.4599ZM134.208 86.0773C134.509 86.1649 134.826 86.1881 135.137 86.1456C135.448 86.103 135.746 85.9955 136.013 85.8301C136.28 85.6647 136.51 85.445 136.687 85.1853C136.864 84.9255 136.985 84.6314 137.041 84.3219C137.172 83.7134 137.063 83.0777 136.736 82.5482C136.41 82.0187 135.892 81.6365 135.29 81.4818L134.208 86.0773Z" fill="black"/>
<path d="M129.875 104.036C129.559 104.56 129.096 104.978 128.543 105.237C127.99 105.496 127.373 105.586 126.77 105.494C126.167 105.401 125.604 105.132 125.154 104.719C124.703 104.307 124.385 103.769 124.239 103.175C124.093 102.581 124.127 101.957 124.335 101.382C124.543 100.807 124.916 100.307 125.408 99.9449C125.9 99.5827 126.488 99.3748 127.097 99.3475C127.707 99.3203 128.311 99.4749 128.833 99.7919C129.181 100 129.484 100.276 129.725 100.603C129.967 100.93 130.141 101.301 130.237 101.696C130.334 102.091 130.352 102.501 130.29 102.903C130.228 103.304 130.086 103.69 129.875 104.036Z" fill="black"/>
<path d="M114.024 118.597L115.685 117.166L112.726 113.704L113.449 113.088L120.288 121.081L117.508 123.467C116.08 124.696 114.284 124.516 113.188 123.228C112.703 122.686 112.443 121.977 112.461 121.249C112.48 120.52 112.775 119.826 113.287 119.308L108.312 117.508L109.143 116.792L114.024 118.597ZM114.289 119.497C113.233 120.397 113.072 121.653 113.902 122.648C114.733 123.642 116.008 123.674 117.046 122.765L118.99 121.095L116.215 117.845L114.289 119.497Z" fill="black"/>
<path d="M103.283 123.233C103.097 122.572 103.132 121.867 103.383 121.228C103.633 120.589 104.085 120.049 104.67 119.691C106.233 118.664 108.298 118.952 109.61 120.942C110.831 122.801 110.382 124.876 108.905 125.848C107.158 126.996 105.344 126.415 104.185 124.673C104.122 124.583 104.067 124.488 104.019 124.39L108.752 121.275L108.716 121.225C107.818 119.875 106.282 119.592 105.124 120.361C104.677 120.625 104.333 121.034 104.149 121.52C103.965 122.006 103.95 122.54 104.109 123.035L103.283 123.233ZM105.182 124.507C105.341 124.778 105.555 125.013 105.811 125.197C106.066 125.38 106.357 125.508 106.665 125.571C106.972 125.635 107.29 125.633 107.597 125.566C107.904 125.499 108.193 125.368 108.447 125.182C108.959 124.83 109.316 124.294 109.441 123.684C109.567 123.075 109.452 122.44 109.12 121.914L105.182 124.507Z" fill="black"/>
<path d="M101.99 125.677C101.199 124.066 99.668 123.562 98.3973 124.192C97.9252 124.414 97.5409 124.788 97.3057 125.255C97.0705 125.721 96.9979 126.254 97.0995 126.766L96.2509 126.816C96.1466 126.138 96.2656 125.445 96.5897 124.842C96.9139 124.238 97.4255 123.757 98.047 123.472C99.8432 122.571 101.841 123.337 102.798 125.272C103.754 127.207 103.112 129.287 101.329 130.16C100.732 130.492 100.039 130.607 99.3667 130.486C98.6945 130.366 98.0843 130.017 97.6384 129.498L98.1997 128.859C98.5248 129.263 98.9789 129.542 99.4854 129.648C99.9919 129.755 100.52 129.683 100.979 129.444C102.232 128.828 102.775 127.302 101.99 125.677Z" fill="black"/>
<path d="M95.0699 127.068C95.4651 128.207 94.9083 129.138 93.7543 129.746L92.0704 130.646C91.527 130.93 91.4911 131.227 91.5944 131.546C91.9042 132.446 92.7125 132.852 93.8036 132.473C94.8948 132.095 95.3618 131.267 95.1508 130.259L95.9904 130.155C96.2823 131.506 95.51 132.699 94.082 133.198C92.3488 133.801 91.1857 133.032 90.7412 131.753L89.5647 128.373C89.4371 127.985 89.2701 127.611 89.0663 127.257L89.8926 126.969C90.0834 127.329 90.2456 127.704 90.3775 128.089C90.461 127.596 90.6794 127.136 91.0085 126.761C91.3375 126.385 91.7642 126.108 92.241 125.961C93.624 125.447 94.7331 126.1 95.0699 127.068ZM90.9433 129.642L91.2082 130.399C91.3298 130.253 91.4835 130.137 91.6572 130.061L93.4175 129.129C94.1629 128.742 94.4996 128.139 94.2482 127.41C94.0326 126.793 93.3187 126.366 92.3982 126.685C92.0985 126.768 91.8197 126.913 91.5802 127.111C91.3406 127.31 91.1456 127.557 91.0082 127.836C90.8707 128.116 90.7939 128.421 90.7827 128.732C90.7715 129.044 90.8262 129.354 90.9433 129.642Z" fill="black"/>
<path d="M85.0968 134.562C85.3073 134.564 85.5172 134.539 85.721 134.486C86.8885 134.207 87.571 133.243 87.1938 131.672L86.2958 127.932L87.1624 127.725L88.8193 134.607L87.9707 134.814L87.6608 133.531C87.5929 133.993 87.3836 134.422 87.0618 134.759C86.74 135.096 86.3216 135.324 85.8646 135.413C85.6847 135.461 85.4983 135.481 85.3123 135.471L85.0968 134.562Z" fill="black"/>
<path d="M82.2904 128.643C82.1623 128.093 81.8327 127.612 81.3668 127.294C80.901 126.976 80.3331 126.846 79.7758 126.928C77.9257 127.176 77.5306 128.504 77.7281 129.962L77.9033 131.254C78.0489 130.778 78.3342 130.358 78.7219 130.047C79.1096 129.736 79.5816 129.55 80.0766 129.512C81.9131 129.264 83.3994 130.547 83.6689 132.505C83.9383 134.463 82.8606 136.074 80.9747 136.326C80.4917 136.426 79.9902 136.38 79.5337 136.193C79.0771 136.006 78.6863 135.688 78.4107 135.278L78.5723 136.484L77.7057 136.601L76.8391 130.093C76.619 128.459 77.0905 126.492 79.6725 126.145C80.4113 126.008 81.1744 126.157 81.8084 126.561C82.4424 126.965 82.9002 127.595 83.0897 128.324L82.2904 128.643ZM78.1368 133.248C78.3433 134.765 79.4031 135.759 80.7816 135.575C82.1601 135.39 82.9819 134.152 82.7798 132.622C82.5777 131.092 81.4866 130.102 80.0856 130.291C78.6846 130.48 77.9347 131.717 78.1368 133.248Z" fill="black"/>
<path d="M75.2854 131.501C75.2854 132.703 74.4861 133.414 73.2018 133.63L71.3248 133.941C70.7186 134.04 70.5884 134.31 70.5929 134.639C70.5929 135.575 71.244 136.232 72.389 136.214C73.5341 136.196 74.2436 135.557 74.3468 134.531L75.1821 134.697C75.0384 136.047 73.9293 136.948 72.416 136.984C70.5795 137.015 69.7218 135.912 69.6948 134.562L69.6365 130.961C69.637 130.553 69.5964 130.146 69.5153 129.746H70.3864C70.4585 130.147 70.4961 130.554 70.4986 130.961C70.732 130.52 71.0831 130.152 71.5128 129.898C71.9425 129.645 72.4339 129.516 72.9324 129.525C74.4232 129.512 75.2674 130.475 75.2854 131.501ZM70.5615 132.649V133.45C70.7166 133.348 70.8934 133.283 71.0779 133.261L73.0447 132.933C73.8709 132.802 74.3918 132.334 74.3918 131.582C74.3918 130.93 73.8395 130.3 72.8606 130.318C72.5523 130.302 72.2444 130.353 71.9568 130.465C71.6693 130.577 71.4085 130.749 71.1916 130.969C70.9747 131.189 70.8064 131.452 70.6979 131.742C70.5893 132.031 70.5428 132.34 70.5615 132.649Z" fill="black"/>
<path d="M66.8525 131.006C66.4035 130.975 66.0083 130.588 66.0577 129.89C66.17 128.409 67.1219 127.585 68.011 127.446L67.9706 127.995C67.6332 128.102 67.3356 128.308 67.1163 128.587C66.8969 128.865 66.766 129.203 66.7403 129.557C66.8237 129.502 66.9254 129.483 67.0231 129.503C67.1233 129.508 67.2213 129.534 67.311 129.579C67.4006 129.624 67.48 129.688 67.5441 129.765C67.6082 129.842 67.6556 129.932 67.6834 130.029C67.7112 130.125 67.7188 130.227 67.7057 130.326C67.6951 130.428 67.6645 130.526 67.6157 130.615C67.5669 130.704 67.5009 130.783 67.4214 130.846C67.342 130.909 67.2507 130.956 67.1531 130.983C67.0554 131.011 66.9532 131.019 66.8525 131.006Z" fill="black"/>
<path d="M56.1654 132.455L58.2984 132.973L59.3581 128.535L60.2831 128.76L57.8269 139L54.2705 138.14C53.8702 138.07 53.4888 137.917 53.1501 137.692C52.8115 137.467 52.523 137.174 52.3028 136.831C52.0826 136.489 51.9356 136.104 51.8708 135.702C51.8061 135.3 51.8251 134.889 51.9266 134.494C52.0815 133.782 52.5019 133.156 53.1019 132.743C53.7019 132.331 54.4362 132.164 55.1551 132.275L53.6957 127.176L54.7644 127.432L56.1654 132.455ZM55.6266 133.194C54.2795 132.87 53.1659 133.473 52.8695 134.715C52.5732 135.957 53.2737 137.028 54.6298 137.353L57.1219 137.956L58.1188 133.792L55.6266 133.194Z" fill="black"/>
<path d="M46.1159 126.447C46.5423 125.909 47.1324 125.525 47.7963 125.355C48.4602 125.184 49.1616 125.236 49.7936 125.501C51.5403 126.168 52.5147 128.017 51.6705 130.241C50.8757 132.32 48.9359 133.171 47.288 132.541C45.3347 131.794 44.7419 129.975 45.4918 128.013C45.5268 127.91 45.5703 127.811 45.622 127.716L50.9117 129.737V129.683C51.4775 128.148 50.8039 126.748 49.5062 126.249C49.0309 126.039 48.4987 125.999 47.9974 126.134C47.4962 126.269 47.0558 126.571 46.7491 126.991L46.1159 126.447ZM46.1968 128.738C46.0701 129.025 46.0046 129.335 46.0047 129.649C46.0047 129.963 46.0703 130.273 46.1972 130.56C46.324 130.847 46.5094 131.104 46.7414 131.315C46.9733 131.526 47.2466 131.686 47.5439 131.785C48.1265 131.997 48.7685 131.975 49.3353 131.724C49.9021 131.472 50.3496 131.01 50.5839 130.435L46.1968 128.738Z" fill="black"/>
<path d="M43.2601 122.526C44.8407 123.372 44.9575 124.952 44.257 126.262L42.1555 130.178L41.3697 129.759L43.3948 125.961C43.9247 124.961 43.9562 123.8 42.7303 123.143C41.6167 122.549 40.512 123.048 39.9507 124.097L37.9211 127.914L37.1353 127.491L39.8295 122.432C40.0428 122.034 40.2289 121.622 40.3863 121.198L41.1317 121.599C41.0207 121.909 40.8871 122.209 40.732 122.499L40.6827 122.589C41.0617 122.334 41.5056 122.192 41.9622 122.181C42.4188 122.17 42.8691 122.29 43.2601 122.526Z" fill="black"/>
<path d="M33.5564 125.159L32.0342 124.133L32.4832 123.467L34.0099 124.498L36.3899 120.947C36.8703 120.231 36.7715 119.659 36.107 119.214C35.9259 119.091 35.7232 119.004 35.5097 118.957L35.9588 118.304C36.2475 118.376 36.5192 118.505 36.758 118.683C37.7055 119.317 37.9076 120.294 37.2071 121.383L34.7778 125.006L36.0216 125.844L35.5726 126.51L35.1235 126.213C34.5443 125.821 34.1222 125.916 33.7181 126.519L33.049 127.518L32.3351 127.036L33.5564 125.159Z" fill="black"/>
<path d="M27.939 125.632C27.8526 125.577 27.7786 125.504 27.7217 125.418C27.6649 125.333 27.6263 125.236 27.6086 125.135C27.5908 125.034 27.5942 124.93 27.6186 124.83C27.643 124.73 27.6878 124.636 27.7502 124.555C27.8126 124.473 27.8912 124.405 27.9811 124.356C28.071 124.306 28.1702 124.276 28.2723 124.267C28.3745 124.258 28.4774 124.27 28.5746 124.303C28.6719 124.335 28.7612 124.388 28.8371 124.457C28.9744 124.583 29.0598 124.755 29.0763 124.94C29.0928 125.126 29.0394 125.311 28.9264 125.458C28.8135 125.606 28.6494 125.706 28.4665 125.738C28.2837 125.77 28.0954 125.732 27.939 125.632ZM34.8407 117.373L30.53 122.986L29.825 122.441L34.1357 116.828L34.8407 117.373Z" fill="black"/>
<path d="M32.3979 115.415L25.4469 123.566L24.7733 122.985L31.7244 114.834L32.3979 115.415Z" fill="black"/>
<path d="M22.3486 120.848C22.2056 120.712 22.1223 120.525 22.1168 120.328C22.1113 120.131 22.1842 119.94 22.3193 119.797C22.4545 119.653 22.6409 119.57 22.8376 119.564C23.0342 119.559 23.225 119.632 23.3679 119.767C23.4386 119.834 23.4955 119.915 23.5353 120.004C23.575 120.093 23.5969 120.189 23.5996 120.287C23.6023 120.384 23.5858 120.482 23.5511 120.573C23.5163 120.664 23.464 120.747 23.397 120.818C23.3301 120.889 23.2499 120.946 23.161 120.986C23.0721 121.026 22.9762 121.048 22.8788 121.051C22.7815 121.053 22.6846 121.037 22.5936 121.002C22.5026 120.967 22.4193 120.915 22.3486 120.848ZM30.0585 113.335L25.1999 118.476L24.5533 117.863L29.4164 112.719L30.0585 113.335Z" fill="black"/>
<path d="M28.2354 111.62L27.6516 112.147L20.5838 112.494L23.5475 115.793L22.9547 116.328L19.2726 112.233L19.8564 111.706L26.9063 111.341L23.8843 107.975L24.477 107.439L28.2354 111.62Z" fill="black"/>
<path d="M22.3261 107.714C21.3517 108.416 20.301 108.164 19.3939 107.205L18.0468 105.855C17.6202 105.405 17.3283 105.459 17.0634 105.648C16.3045 106.192 16.1249 107.088 16.794 108.029C17.463 108.969 18.388 109.19 19.2861 108.69L19.6274 109.469C18.4329 110.122 17.0544 109.726 16.1788 108.492C15.1101 106.993 15.5187 105.657 16.6278 104.891L19.5331 102.812C19.8677 102.58 20.1777 102.315 20.4581 102.02L20.9655 102.731C20.6767 103.016 20.3642 103.277 20.0315 103.51C20.5276 103.451 21.0301 103.532 21.4829 103.744C21.9356 103.955 22.3208 104.289 22.5955 104.707C23.4711 105.873 23.1568 107.119 22.3261 107.714ZM18.6979 104.473L18.0512 104.923C18.2218 104.996 18.3748 105.105 18.5003 105.242L19.8878 106.678C20.4671 107.286 21.1406 107.439 21.7693 106.989C22.2991 106.611 22.5057 105.805 21.9354 105.008C21.7704 104.745 21.5515 104.52 21.2932 104.348C21.0348 104.176 20.743 104.061 20.437 104.01C20.1309 103.959 19.8176 103.974 19.5178 104.054C19.218 104.134 18.9386 104.277 18.6979 104.473Z" fill="black"/>
<path d="M17.939 100.535C17.7055 100.138 17.7998 99.6028 18.388 99.2472C19.6633 98.4865 20.8802 98.7971 21.5043 99.4497L21.0553 99.7288C20.7732 99.5165 20.4349 99.3922 20.0827 99.3714C19.7306 99.3506 19.3801 99.4342 19.075 99.6118C19.1643 99.6546 19.2369 99.7258 19.2816 99.8143C19.3336 99.9004 19.3674 99.9963 19.381 100.096C19.3946 100.196 19.3878 100.297 19.3609 100.394C19.334 100.491 19.2876 100.582 19.2245 100.66C19.1615 100.738 19.0831 100.803 18.9942 100.85C18.9047 100.9 18.8059 100.932 18.7039 100.943C18.6019 100.954 18.4986 100.945 18.4002 100.915C18.3018 100.886 18.2103 100.837 18.1311 100.772C18.0519 100.706 17.9865 100.626 17.939 100.535Z" fill="black"/>
<path d="M10.6332 92.5677L11.4324 94.6157L15.6669 92.9503L16.0126 93.8505L6.2326 97.6763L4.8855 94.2646C4.71438 93.895 4.62131 93.4939 4.61214 93.0865C4.60297 92.6791 4.6779 92.2742 4.83222 91.8973C4.98653 91.5203 5.21691 91.1793 5.5089 90.8958C5.80088 90.6123 6.14818 90.3923 6.52898 90.2497C7.20019 89.9683 7.95342 89.9551 8.634 90.2129C9.31459 90.4707 9.87088 90.9799 10.1886 91.636L13.5294 87.5176L13.9291 88.5393L10.6332 92.5677ZM9.73511 92.5317C9.2277 91.2309 8.1006 90.6683 6.91065 91.1364C5.72071 91.6045 5.25368 92.7928 5.7611 94.0936L6.69513 96.4836L10.6691 94.9217L9.73511 92.5317Z" fill="black"/>
<path d="M9.82489 80.8784C10.5088 80.9209 11.16 81.1861 11.6796 81.6338C12.1992 82.0815 12.5587 82.6871 12.7032 83.3585C13.1523 85.1589 12.2003 87.0358 9.89675 87.6119C7.74138 88.1521 5.94073 87.0403 5.50966 85.3254C5.00674 83.2955 6.15175 81.7696 8.17691 81.2475C8.28096 81.2155 8.38769 81.1929 8.49576 81.18L9.84287 86.6847H9.90125C11.4774 86.2751 12.2407 84.9203 11.9039 83.5655C11.8015 83.0565 11.5299 82.5973 11.1336 82.2629C10.7372 81.9286 10.2395 81.7388 9.72162 81.7246L9.82489 80.8784ZM7.99734 82.2558C7.68929 82.3164 7.39734 82.4411 7.14037 82.6219C6.88341 82.8027 6.66711 83.0355 6.50546 83.3053C6.34382 83.575 6.24045 83.8758 6.20196 84.1881C6.16346 84.5004 6.19071 84.8173 6.28199 85.1184C6.44491 85.7198 6.83367 86.2347 7.36687 86.5552C7.90006 86.8757 8.53633 86.977 9.14235 86.8378L7.99734 82.2558Z" fill="black"/>
<path d="M14.2704 78.5199L4.43645 79.6496L4.33768 78.781L5.73417 78.6189C5.2243 78.4458 4.77536 78.1284 4.44149 77.7051C4.10763 77.2818 3.9031 76.7706 3.85268 76.2334C3.62367 74.244 5.10551 72.8622 7.18006 72.6326C9.2546 72.403 11.0328 73.4473 11.2618 75.4232C11.3342 75.9436 11.2574 76.4738 11.0403 76.952C10.8233 77.4303 10.4749 77.8367 10.0359 78.1238L14.1581 77.6467L14.2704 78.5199ZM4.67895 76.2694C4.84509 77.7277 6.21912 78.5424 7.85361 78.3534C9.4881 78.1643 10.6601 77.0616 10.4939 75.5987C10.3278 74.1359 8.94477 73.2942 7.29681 73.4833C5.64885 73.6723 4.50832 74.8156 4.67895 76.2919V76.2694Z" fill="black"/>
<path d="M-1.79921e-06 70.3371C-0.00264128 70.1902 0.0382163 70.0459 0.11741 69.9223C0.196603 69.7987 0.310586 69.7015 0.444923 69.6428C0.57926 69.5842 0.727936 69.5668 0.872143 69.5928C1.01635 69.6189 1.1496 69.6872 1.25507 69.7891C1.36055 69.8911 1.43348 70.0221 1.46468 70.1656C1.49588 70.3091 1.48396 70.4586 1.43037 70.5953C1.37678 70.732 1.28397 70.8497 1.16364 70.9336C1.04332 71.0174 0.900906 71.0635 0.754403 71.0662C0.656473 71.0705 0.558688 71.0548 0.467013 71.02C0.375338 70.9852 0.291679 70.9321 0.221118 70.8639C0.150557 70.7957 0.0945763 70.7139 0.0565662 70.6233C0.0185561 70.5327 -0.000703436 70.4353 -1.79921e-06 70.3371ZM10.7499 70.5486L3.68207 70.7062V69.806L10.7455 69.6484L10.7499 70.5486Z" fill="black"/>
<path d="M3.72253 65.7013L3.79433 63.8604L4.59363 63.8964L4.52177 65.7328L8.78317 65.9128C9.64532 65.9443 10.0719 65.5617 10.1303 64.7606C10.1381 64.542 10.1061 64.3239 10.0359 64.1169L10.8218 64.1484C10.9125 64.4393 10.946 64.745 10.9205 65.0486C10.8711 66.1919 10.1482 66.876 8.85947 66.822L4.50834 66.642L4.44547 68.1408L3.64617 68.1093V67.5737C3.67311 66.876 3.37227 66.5655 2.64932 66.5385L1.45038 66.4889L1.48634 65.6293L3.72253 65.7013Z" fill="black"/>
<path d="M9.82495 56.5416C10.4424 56.8393 10.9459 57.3311 11.2588 57.9421C11.5717 58.5531 11.6768 59.2499 11.5582 59.9263C11.2933 61.7807 9.7082 63.1445 7.35974 62.807C5.15947 62.4919 3.90665 60.786 4.15362 59.0351C4.44998 56.9601 6.08449 55.9789 8.15904 56.258C8.26649 56.2725 8.37294 56.2935 8.47784 56.321L7.67854 61.9383H7.73692C9.35345 62.1543 10.5703 61.1866 10.7634 59.8048C10.8598 59.2918 10.7789 58.7612 10.534 58.3006C10.2891 57.8399 9.89483 57.4766 9.41631 57.2707L9.82495 56.5416ZM7.61567 57.1267C7.30708 57.0662 6.98928 57.0713 6.68279 57.1417C6.3763 57.2122 6.08797 57.3464 5.83652 57.5356C5.58507 57.7249 5.37609 57.965 5.22309 58.2403C5.0701 58.5157 4.97653 58.8202 4.94842 59.1341C4.87432 59.7521 5.04129 60.3748 5.41451 60.8722C5.78772 61.3696 6.33827 61.7032 6.9511 61.8032L7.61567 57.1267Z" fill="black"/>
<path d="M10.3233 38.8483C10.5905 38.2983 11.0145 37.84 11.5416 37.5316C12.0687 37.2232 12.6752 37.0784 13.2844 37.1156C13.8936 37.1528 14.478 37.3703 14.9639 37.7405C15.4497 38.1108 15.8151 38.6171 16.0137 39.1956C16.2124 39.774 16.2354 40.3986 16.0798 40.9901C15.9243 41.5817 15.5972 42.1137 15.14 42.5189C14.6827 42.9241 14.1157 43.1842 13.5109 43.2663C12.9061 43.3484 12.2906 43.2488 11.7423 42.9802C11.3762 42.8049 11.0486 42.5582 10.7785 42.2547C10.5084 41.9511 10.3013 41.5968 10.1693 41.2122C10.0372 40.8276 9.9828 40.4206 10.0093 40.0147C10.0357 39.6089 10.1425 39.2124 10.3233 38.8483Z" fill="black"/>
</g>
<defs>
<clipPath id="clip0_770_4537">
<rect width="143" height="139" fill="white"/>
</clipPath>
</defs>
</svg>
