<svg width="135" height="139" viewBox="0 0 135 139" fill="none" xmlns="http://www.w3.org/2000/svg">
<g clip-path="url(#clip0_1593_4281)">
<path d="M23.7271 24.8472L21.8834 26.6528L25.6331 30.4758L24.8358 31.2561L16.1738 22.4314L19.2508 19.4137C20.8329 17.8613 22.9548 17.9318 24.3458 19.3514C25.604 20.6341 25.712 22.4604 24.5368 23.9506L30.5288 25.6732L29.607 26.5781L23.7271 24.8472V24.8472ZM23.3409 23.8344C24.5119 22.6846 24.5991 21.2069 23.5486 20.136C22.4855 19.0526 20.9948 19.1024 19.8238 20.248L17.6687 22.3608L21.1858 25.9472L23.3409 23.8344Z" fill="black"/>
<path d="M36.2558 18.7079C36.6877 20.1317 36.3347 21.8128 34.7692 22.9169C32.9754 24.1829 30.5296 23.9255 28.9185 21.6467C27.4111 19.509 27.8554 17.06 29.5496 15.8646C31.5594 14.445 33.7187 15.0552 35.1513 17.0517C35.2302 17.1638 35.2925 17.251 35.3589 17.3755L29.9192 21.2192L29.9607 21.2773C31.0819 22.8339 32.8882 23.0954 34.2294 22.149C35.4544 21.2856 35.662 20.0694 35.3132 18.9694L36.26 18.7079H36.2558ZM33.972 17.2883C33.046 16.0431 31.5303 15.6197 30.1061 16.6242C28.8396 17.5208 28.6402 19.1728 29.4417 20.4886L33.972 17.2883Z" fill="black"/>
<path d="M37.3601 12.4443L40.8191 18.957L39.8931 19.4468L36.4341 12.9341L34.9226 13.7352L34.4824 12.905L35.9939 12.1039L35.1842 10.5805C34.3578 9.02394 34.8811 7.70396 36.1102 7.04813C36.4964 6.84474 36.8119 6.77417 37.0237 6.76172L37.4639 7.59189C37.2936 7.60434 37.0279 7.66661 36.704 7.83679C35.9648 8.23112 35.5081 8.96583 36.1268 10.1364L36.9116 11.6141L38.9588 10.5266L39.3989 11.3567L37.3518 12.4443H37.3601Z" fill="black"/>
<path d="M39.8627 5.41683C40.3112 5.2259 40.8095 5.40853 41.0088 5.87343C41.2081 6.33833 41.0005 6.82398 40.552 7.01907C40.1036 7.21416 39.6053 7.02737 39.4059 6.56247C39.2066 6.09758 39.4142 5.61193 39.8627 5.41683ZM44.3764 17.2343L41.0918 9.59261L42.0552 9.17752L45.3398 16.8193L44.3764 17.2343Z" fill="black"/>
<path d="M47.9159 15.819L43.7344 3.94755L44.7227 3.59888L48.9042 15.4703L47.9159 15.819V15.819Z" fill="black"/>
<path d="M51.5361 14.6401L48.1602 2.51126L49.1692 2.229L52.5451 14.3578L51.5361 14.6401Z" fill="black"/>
<path d="M55.5144 11.9047C56.0459 11.7968 56.6065 12.1081 56.7726 12.9134C57.1214 14.6235 56.3075 15.8563 55.3483 16.3005L55.2196 15.6695C55.9379 15.2752 56.2577 14.2998 56.1124 13.5111C56.0708 13.5734 55.9587 13.6315 55.8051 13.6647C55.3275 13.7643 54.8791 13.482 54.767 12.9507C54.6715 12.49 54.987 12.0168 55.5144 11.9089V11.9047Z" fill="black"/>
<path d="M67.6637 7.06892L65.0851 7.02741L64.9979 12.3779L63.8809 12.3613L64.0843 0.00415039L68.3904 0.0747151C70.6037 0.112073 72.0446 1.66865 72.0113 3.65691C71.9823 5.45424 70.7573 6.81157 68.8679 7.02326L71.8494 12.4941L70.558 12.4733L67.6637 7.07307V7.06892ZM68.1163 6.08102C69.7566 6.10592 70.8694 5.13047 70.8943 3.63201C70.9192 2.11694 69.8355 1.08753 68.1994 1.05847L65.1847 1.00866L65.1017 6.02706L68.1163 6.07687V6.08102Z" fill="black"/>
<path d="M80.872 11.4731C80.1786 12.7889 78.7501 13.7395 76.8566 13.4281C74.6891 13.0712 73.1278 11.1742 73.5804 8.4222C74.0039 5.84037 76.0428 4.40832 78.0899 4.74454C80.5149 5.14302 81.6278 7.09393 81.2458 9.52218C81.225 9.65916 81.2042 9.76293 81.1669 9.89991L74.5936 8.82069L74.5811 8.89125C74.2863 10.7882 75.3908 12.241 77.0103 12.5067C78.4885 12.7474 79.4934 12.0293 80.0125 11.004L80.872 11.4814V11.4731ZM80.2409 8.86219C80.4568 7.32637 79.6761 5.96074 77.9529 5.67848C76.4206 5.42528 75.1209 6.46715 74.768 7.96561L80.2409 8.86219V8.86219Z" fill="black"/>
<path d="M85.1241 15.462C83.1226 14.7937 82.6783 12.9922 83.2305 11.336L84.8874 6.37573L85.8798 6.7078L84.277 11.502C83.8576 12.7598 84.0486 14.1088 85.6057 14.6277C87.0134 15.0967 88.1969 14.2997 88.6412 12.9756L90.2482 8.16475L91.2406 8.49682L89.1063 14.8809C88.9069 15.4744 88.7699 16.0555 88.7035 16.4208L87.7609 16.1054C87.7816 15.9269 87.8813 15.4661 88.0474 14.968L88.0848 14.8518C87.466 15.491 86.3615 15.8771 85.1241 15.462V15.462Z" fill="black"/>
<path d="M92.3002 15.3043C91.9846 16.2756 92.3002 17.3549 93.5127 17.9692C94.4304 18.4341 95.4394 18.2598 95.8298 17.4794C96.1744 16.7945 95.8962 16.1843 95.1986 15.5991L94.1439 14.7149C93.1805 13.9138 92.7777 12.8927 93.3217 11.8176C93.9279 10.618 95.5765 10.2237 96.9302 10.9044C98.6576 11.7761 98.8694 13.1749 98.6244 14.1629L97.6402 14.0591C97.8603 13.2746 97.7025 12.3116 96.5191 11.7138C95.6803 11.2905 94.6629 11.4399 94.2726 12.2203C93.9487 12.8595 94.1646 13.4365 94.8415 13.9927L95.892 14.8561C96.98 15.7568 97.3246 16.8111 96.7848 17.8862C96.2242 18.9903 94.7418 19.6088 93.0933 18.7745C91.2745 17.853 90.9465 16.2217 91.2995 15.1715L92.3043 15.3085L92.3002 15.3043Z" fill="black"/>
<path d="M104.663 23.0373C103.467 23.9215 101.769 24.1581 100.199 23.054C98.4009 21.7921 97.8196 19.4012 99.4266 17.1224C100.93 14.9847 103.388 14.5779 105.086 15.7692C107.096 17.1805 107.25 19.4178 105.855 21.4393C105.776 21.5513 105.713 21.6385 105.618 21.7423L100.166 17.9152L100.124 17.9733C99.0362 19.5506 99.3975 21.3396 100.739 22.2819C101.968 23.1453 103.18 22.9294 104.098 22.2321L104.663 23.0332V23.0373ZM105.232 20.4098C106.095 19.1189 105.983 17.5499 104.555 16.5495C103.284 15.6571 101.661 16.0307 100.693 17.2261L105.232 20.414V20.4098Z" fill="black"/>
<path d="M106.424 25.5318C106.826 25.893 106.914 26.528 106.37 27.1424C105.211 28.4457 103.733 28.5288 102.803 28.0307L103.23 27.5492C103.978 27.8895 104.95 27.5616 105.494 26.9722C105.419 26.9763 105.307 26.9224 105.186 26.8186C104.821 26.4948 104.779 25.9677 105.136 25.5609C105.448 25.2081 106.017 25.1749 106.42 25.536L106.424 25.5318Z" fill="black"/>
<path d="M117.567 32.3311L116.027 30.2599L111.733 33.456L111.064 32.5594L120.985 25.175L123.559 28.6286C124.884 30.4051 124.527 32.4972 122.932 33.6843C121.491 34.7552 119.668 34.6141 118.348 33.2485L115.831 38.9476L115.059 37.914L117.571 32.327L117.567 32.3311ZM118.626 32.0862C119.606 33.4021 121.059 33.6885 122.264 32.7919C123.48 31.887 123.634 30.401 122.658 29.0852L120.856 26.6652L116.828 29.6621L118.63 32.0821L118.626 32.0862Z" fill="black"/>
<path d="M121.957 45.5765C120.487 45.8089 118.872 45.232 117.987 43.5301C116.974 41.5792 117.564 39.1925 120.043 37.9099C122.364 36.7061 124.731 37.4823 125.686 39.3212C126.819 41.5045 125.918 43.5592 123.747 44.7048C123.622 44.7671 123.531 44.8169 123.398 44.8667L120.333 38.9559L120.271 38.9891C118.577 39.8857 118.07 41.6415 118.826 43.0943C119.515 44.4267 120.691 44.7961 121.828 44.601L121.961 45.5723L121.957 45.5765ZM123.672 43.5094C125.034 42.7622 125.661 41.3219 124.855 39.7736C124.141 38.3955 122.53 37.9763 121.118 38.5906L123.672 43.5094Z" fill="black"/>
<path d="M117.436 49.445L128.498 45.8628L128.813 46.8424L127.24 47.353C128.174 47.4692 129.457 48.0835 129.968 49.6567C130.695 51.894 129.303 53.8283 126.966 54.5879C124.611 55.3517 122.336 54.5506 121.613 52.3257C121.119 50.7982 121.734 49.5944 122.402 48.9386L117.756 50.4412L117.432 49.445H117.436ZM129.017 49.7812C128.485 48.1416 126.708 47.5231 124.869 48.1209C122.996 48.7269 121.933 50.2627 122.464 51.9023C123 53.5585 124.781 54.1936 126.642 53.5917C128.498 52.9898 129.557 51.4374 129.017 49.7812Z" fill="black"/>
<path d="M126.745 64.4505C125.279 64.1931 123.937 63.1222 123.655 61.2294C123.331 59.0585 124.664 56.9914 127.421 56.5805C130.008 56.1944 131.997 57.6971 132.3 59.7476C132.662 62.18 131.146 63.832 128.717 64.2139C128.58 64.2347 128.476 64.2513 128.335 64.2513L127.351 57.6638L127.28 57.6721C125.387 57.971 124.34 59.4695 124.581 61.0883C124.801 62.5702 125.794 63.3049 126.931 63.4875L126.74 64.4505H126.745ZM129.041 63.0517C130.569 62.7902 131.632 61.6238 131.374 59.9012C131.146 58.3653 129.755 57.4438 128.223 57.5684L129.041 63.0517V63.0517Z" fill="black"/>
<path d="M126.684 66.1358C128.095 66.1607 128.901 67.1486 129.1 68.6679L129.395 70.8886C129.486 71.6067 129.798 71.7685 130.184 71.7727C131.285 71.7893 132.078 71.0712 132.103 69.7139C132.123 68.3897 131.405 67.5056 130.205 67.3479L130.429 66.3766C132.011 66.5924 133.037 67.9373 133.008 69.7139C132.975 71.8765 131.65 72.8478 130.064 72.8229L125.861 72.7523C125.197 72.7399 124.778 72.7855 124.429 72.8519L124.445 71.8225C124.636 71.7893 125.197 71.7312 125.878 71.7395C125.097 71.3452 124.263 70.3365 124.288 68.8173C124.317 67.0739 125.484 66.1151 126.688 66.1358H126.684ZM127.846 71.7353L128.789 71.7519C128.739 71.698 128.635 71.4697 128.59 71.1376L128.278 68.8131C128.154 67.8335 127.622 67.215 126.717 67.2026C125.949 67.1901 125.189 67.8045 125.172 68.9543C125.147 70.5399 126.173 71.7063 127.846 71.7353V71.7353Z" fill="black"/>
<path d="M132.263 77.891L131.997 80.037L131.063 79.9207L131.332 77.7747L126.35 77.1521C125.345 77.0276 124.805 77.4344 124.684 78.3683C124.647 78.663 124.684 78.966 124.73 79.1279L123.812 79.0117C123.763 78.8664 123.721 78.4721 123.783 77.9698C123.949 76.6374 124.867 75.911 126.37 76.0978L131.457 76.7329L131.677 74.9854L132.611 75.1016L132.533 75.7242C132.433 76.5378 132.753 76.928 133.6 77.0359L135.003 77.2102L134.879 78.2147L132.267 77.8868L132.263 77.891Z" fill="black"/>
<path d="M125.238 100.513C124.287 102.281 122.123 102.958 120.325 101.991C118.527 101.024 117.896 98.8445 118.847 97.0804C119.798 95.3121 121.961 94.6355 123.759 95.6027C125.557 96.5698 126.188 98.749 125.238 100.513Z" fill="black"/>
<path d="M109.79 115.315L111.68 113.559L108.038 109.637L108.856 108.877L117.269 117.934L114.113 120.865C112.49 122.372 110.372 122.243 109.018 120.786C107.797 119.47 107.739 117.644 108.956 116.183L103.014 114.298L103.96 113.422L109.79 115.315V115.315ZM110.148 116.34C108.948 117.457 108.819 118.931 109.836 120.031C110.87 121.143 112.361 121.135 113.565 120.022L115.774 117.972L112.357 114.294L110.143 116.345L110.148 116.34Z" fill="black"/>
<path d="M97.0967 121.118C96.7064 119.682 97.1009 118.013 98.6996 116.951C100.527 115.734 102.968 116.058 104.513 118.378C105.962 120.554 105.451 122.99 103.724 124.144C101.677 125.505 99.5342 124.837 98.1556 122.803C98.0767 122.687 98.0186 122.6 97.9563 122.475L103.5 118.785L103.462 118.727C102.383 117.142 100.585 116.83 99.2186 117.739C97.9688 118.569 97.7279 119.781 98.0477 120.886L97.0926 121.122L97.0967 121.118ZM99.3391 122.6C100.228 123.87 101.735 124.335 103.184 123.372C104.476 122.513 104.721 120.865 103.957 119.528L99.3391 122.6Z" fill="black"/>
<path d="M95.8293 127.34L92.5488 120.736L93.4873 120.271L96.7677 126.875L98.3 126.116L98.7194 126.958L97.1871 127.718L97.9553 129.262C98.7401 130.839 98.1796 132.147 96.9338 132.769C96.5435 132.965 96.2237 133.023 96.012 133.031L95.5926 132.188C95.7628 132.18 96.0286 132.126 96.3566 131.964C97.1082 131.591 97.5858 130.868 96.9961 129.681L96.2528 128.183L94.1766 129.212L93.7572 128.37L95.8334 127.34H95.8293Z" fill="black"/>
<path d="M88.9443 122.359L92.0171 130.088L91.0455 130.474L87.9727 122.745L88.9443 122.359ZM93.13 134.297C92.6774 134.475 92.1832 134.28 91.9964 133.807C91.8095 133.338 92.0296 132.857 92.4864 132.674C92.9431 132.491 93.4331 132.691 93.62 133.164C93.8068 133.637 93.5868 134.114 93.13 134.297Z" fill="black"/>
<path d="M85.3696 123.675L89.2231 135.654L88.2265 135.974L84.373 123.995L85.3696 123.675Z" fill="black"/>
<path d="M81.711 124.754L84.7464 136.97L83.729 137.223L80.6895 125.007L81.7068 124.754H81.711Z" fill="black"/>
<path d="M77.6625 127.378C77.131 127.473 76.5745 127.145 76.4334 126.336C76.1302 124.617 76.9815 123.409 77.9532 122.99L78.0653 123.625C77.3344 124.003 76.9898 124.966 77.1102 125.759C77.1517 125.697 77.268 125.643 77.4216 125.618C77.9033 125.535 78.3435 125.829 78.439 126.361C78.522 126.826 78.194 127.291 77.6625 127.382V127.378Z" fill="black"/>
<path d="M65.4223 131.885L68.001 131.96L68.1547 126.61L69.2717 126.643L68.9104 138.996L64.6043 138.871C62.3911 138.805 60.9709 137.232 61.0291 135.243C61.083 133.45 62.3246 132.105 64.214 131.919L61.3031 126.41L62.5945 126.448L65.4182 131.885H65.4223ZM64.9573 132.865C63.3171 132.815 62.1917 133.778 62.1461 135.277C62.1004 136.792 63.1717 137.834 64.8078 137.883L67.8225 137.971L67.9678 132.952L64.9531 132.865H64.9573Z" fill="black"/>
<path d="M52.2959 127.116C53.0267 125.817 54.48 124.908 56.3653 125.273C58.5245 125.688 60.0319 127.631 59.5045 130.37C59.0104 132.94 56.9341 134.314 54.8953 133.919C52.4786 133.454 51.4238 131.474 51.8723 129.059C51.8972 128.922 51.918 128.818 51.9637 128.685L58.5079 129.947L58.5204 129.876C58.865 127.992 57.802 126.506 56.1908 126.194C54.7167 125.912 53.6952 126.601 53.1471 127.614L52.3 127.112L52.2959 127.116ZM52.8564 129.743C52.599 131.275 53.3423 132.662 55.0531 132.989C56.577 133.284 57.91 132.28 58.3003 130.794L52.8523 129.743H52.8564Z" fill="black"/>
<path d="M48.1552 123.007C50.1359 123.729 50.5304 125.543 49.9325 127.182L48.1386 132.093L47.1545 131.736L48.8902 126.987C49.3428 125.742 49.1892 124.389 47.6486 123.824C46.2576 123.318 45.0492 124.082 44.5717 125.389L42.8318 130.154L41.8477 129.798L44.1564 123.476C44.3723 122.886 44.526 122.314 44.6007 121.948L45.535 122.289C45.5101 122.463 45.3938 122.924 45.2153 123.413L45.1738 123.53C45.8091 122.907 46.9219 122.554 48.1511 123.003L48.1552 123.007Z" fill="black"/>
<path d="M40.9772 122.969C41.3218 122.006 41.0353 120.919 39.8394 120.271C38.9342 119.782 37.9251 119.931 37.5099 120.695C37.1445 121.371 37.4061 121.986 38.0871 122.592L39.121 123.505C40.0636 124.331 40.4332 125.365 39.8643 126.423C39.2249 127.602 37.568 127.955 36.2351 127.237C34.5326 126.315 34.3582 124.916 34.6323 123.932L35.6122 124.065C35.3672 124.846 35.5001 125.809 36.667 126.44C37.4933 126.888 38.5148 126.763 38.93 125.995C39.2705 125.369 39.0712 124.783 38.411 124.206L37.3853 123.314C36.3223 122.384 36.0067 121.322 36.5797 120.263C37.1694 119.176 38.6684 118.599 40.2962 119.479C42.09 120.45 42.3724 122.089 41.9904 123.127L40.9896 122.961L40.9772 122.969Z" fill="black"/>
<path d="M28.8337 114.896C30.0545 114.045 31.7611 113.858 33.2975 115.004C35.0623 116.316 35.5731 118.719 33.908 120.956C32.3466 123.052 29.8759 123.389 28.2108 122.152C26.2384 120.682 26.147 118.441 27.6004 116.461C27.6834 116.349 27.7457 116.266 27.8454 116.162L33.1896 120.139L33.2311 120.085C34.3647 118.536 34.0491 116.739 32.7328 115.759C31.5286 114.863 30.3078 115.041 29.3735 115.714L28.8295 114.896H28.8337ZM28.1942 117.507C27.2931 118.773 27.3637 120.346 28.7631 121.388C30.0088 122.314 31.6449 121.99 32.6456 120.819L28.1984 117.507H28.1942Z" fill="black"/>
<path d="M27.1439 112.36C26.7495 111.99 26.6789 111.351 27.2436 110.753C28.4395 109.483 29.9178 109.438 30.8355 109.965L30.3953 110.434C29.6562 110.073 28.6803 110.376 28.1156 110.949C28.1904 110.949 28.3025 111.002 28.4187 111.11C28.7759 111.447 28.8049 111.974 28.4312 112.368C28.1073 112.713 27.5426 112.729 27.1481 112.36H27.1439Z" fill="black"/>
<path d="M16.194 105.262L17.6806 107.375L22.0614 104.295L22.705 105.208L12.5897 112.318L10.1107 108.794C8.83589 106.984 9.25114 104.901 10.8747 103.759C12.3447 102.726 14.1635 102.917 15.4466 104.319L18.1208 98.6909L18.864 99.7452L16.1982 105.262H16.194ZM15.131 105.478C14.1884 104.137 12.7433 103.809 11.5142 104.672C10.2726 105.544 10.0775 107.026 11.0201 108.367L12.7558 110.836L16.8667 107.947L15.131 105.482V105.478Z" fill="black"/>
<path d="M12.1664 91.9002C13.6446 91.7093 15.2433 92.3278 16.078 94.0545C17.0372 96.0304 16.3811 98.4005 13.873 99.6167C11.5186 100.758 9.17246 99.9156 8.26723 98.0477C7.1959 95.8353 8.14681 93.8055 10.3559 92.718C10.4805 92.6557 10.576 92.61 10.7089 92.5644L13.6114 98.5582L13.6737 98.5292C15.3928 97.6783 15.9451 95.939 15.2309 94.4655C14.5789 93.1165 13.4121 92.7097 12.2702 92.8757L12.1664 91.9002ZM10.3933 93.9217C9.01052 94.6315 8.34613 96.0553 9.10602 97.6243C9.78287 99.019 11.3857 99.4839 12.81 98.9111L10.3933 93.9217V93.9217Z" fill="black"/>
<path d="M16.797 88.1561L5.63529 91.4353L5.34462 90.4473L6.935 89.9825C6.0007 89.8372 4.73836 89.1938 4.27329 87.604C3.60889 85.3459 5.05394 83.449 7.41253 82.7558C9.78773 82.0584 12.0425 82.9218 12.7027 85.1633C13.1554 86.7033 12.5034 87.8904 11.8183 88.5296L16.5022 87.1516L16.797 88.1561V88.1561ZM5.22419 87.5044C5.71003 89.1606 7.47066 89.8247 9.32681 89.281C11.2162 88.7247 12.3207 87.2221 11.8349 85.5659C11.3449 83.8931 9.58011 83.2124 7.70735 83.7644C5.8346 84.3165 4.73421 85.8357 5.22835 87.5085L5.22419 87.5044Z" fill="black"/>
<path d="M7.90196 72.8892C9.35947 73.188 10.6716 74.2922 10.9042 76.1974C11.1699 78.3766 9.77886 80.4064 7.00919 80.7426C4.40976 81.0581 2.46642 79.5015 2.21727 77.4427C1.92245 75.002 3.48376 73.3914 5.92125 73.076C6.05828 73.0593 6.16209 73.0469 6.30327 73.0469L7.10469 79.6592L7.17528 79.6509C9.0771 79.4019 10.165 77.9366 9.96988 76.3095C9.79132 74.8193 8.81965 74.0597 7.68603 73.8439L7.90196 72.885V72.8892ZM5.56829 74.2257C4.03189 74.4457 2.93979 75.5789 3.14742 77.3098C3.33428 78.8498 4.69628 79.8086 6.23268 79.7298L5.56414 74.2257H5.56829Z" fill="black"/>
<path d="M8.05969 71.204C6.64786 71.1625 5.8589 70.158 5.68034 68.6347L5.41874 66.4098C5.33569 65.6917 5.02841 65.5257 4.64223 65.5132C3.54599 65.48 2.73626 66.1856 2.69474 67.5471C2.65321 68.8712 3.35913 69.7637 4.55918 69.9422L4.31834 70.9093C2.73626 70.6686 1.73137 69.3112 1.7895 67.5347C1.85594 65.3721 3.19303 64.4215 4.77926 64.4713L8.98153 64.6C9.64592 64.6208 10.0653 64.5793 10.4141 64.5211L10.3809 65.5506C10.1899 65.5796 9.62931 65.6336 8.94831 65.6128C9.72066 66.0196 10.5428 67.0407 10.4972 68.5558C10.4432 70.2991 9.2639 71.2372 8.05969 71.1999V71.204ZM6.9759 65.5879L6.0333 65.5589C6.08313 65.6128 6.18279 65.8411 6.22431 66.1732L6.50252 68.5018C6.61049 69.4814 7.13369 70.1082 8.03893 70.1373C8.80713 70.1622 9.57533 69.5561 9.60855 68.4064C9.65838 66.8207 8.64934 65.6377 6.9759 65.5879V65.5879Z" fill="black"/>
<path d="M2.75722 59.3076L3.08526 57.1699L4.01541 57.3111L3.68737 59.4488L8.65368 60.2084C9.65442 60.3619 10.2067 59.9718 10.3479 59.0378C10.3936 58.7431 10.3686 58.4401 10.323 58.2741L11.2365 58.4152C11.2863 58.5646 11.3112 58.9548 11.2365 59.4571C11.033 60.7853 10.0987 61.4868 8.59555 61.2585L3.52542 60.4823L3.25967 62.2215L2.32952 62.0804L2.42502 61.4578C2.5496 60.6483 2.23817 60.2457 1.39522 60.117L0 59.9053L0.15364 58.905L2.75722 59.3035V59.3076Z" fill="black"/>
<path d="M8.02613 41.4299C8.88569 39.616 11.0117 38.8315 12.8596 39.7031C14.7033 40.5748 15.4465 42.7208 14.587 44.5347C13.7274 46.3487 11.6014 47.1332 9.75355 46.2615C7.90987 45.3898 7.17073 43.2438 8.02613 41.4299V41.4299Z" fill="black"/>
</g>
<defs>
<clipPath id="clip0_1593_4281">
<rect width="135" height="139" fill="white"/>
</clipPath>
</defs>
</svg>
