<svg width="53" height="53" viewBox="0 0 53 53" fill="none" xmlns="http://www.w3.org/2000/svg">
<circle cx="26.5" cy="26.5" r="26.5" fill="#00ABB1"/>
<path d="M24.959 28.97C25.469 28.79 26.069 28.67 26.669 28.67C28.589 28.67 30.629 29.75 30.629 32.3C30.629 34.25 29.189 35.9 26.519 35.9C24.179 35.9 22.319 34.28 22.199 31.7L19.319 32.36C19.499 35.54 22.049 38.48 26.549 38.48C31.079 38.48 33.599 35.51 33.599 32.24C33.599 28.25 30.449 26.33 27.599 26.33L33.149 21.2V18.56H19.949V21.26H29.249L23.519 26.54L24.959 28.97Z" fill="white"/>
</svg>
