<svg width="120" height="40" viewBox="0 0 120 40" fill="none" xmlns="http://www.w3.org/2000/svg">
<path d="M0 10.5C0 7.23841 0 5.60761 0.532843 4.32122C1.2433 2.60602 2.60602 1.2433 4.32122 0.532843C5.60761 0 7.23841 0 10.5 0H109.5C112.762 0 114.392 0 115.679 0.532843C117.394 1.2433 118.757 2.60602 119.467 4.32122C120 5.60761 120 7.23841 120 10.5V29.5C120 32.7616 120 34.3924 119.467 35.6788C118.757 37.394 117.394 38.7567 115.679 39.4672C114.392 40 112.762 40 109.5 40H10.5C7.23841 40 5.60761 40 4.32122 39.4672C2.60602 38.7567 1.2433 37.394 0.532843 35.6788C0 34.3924 0 32.7616 0 29.5V10.5Z" fill="white"/>
<path d="M81.5259 19.2009V21.4919H80.0898V22.9944H81.5259V28.0994C81.5259 29.8425 82.3144 30.5398 84.2983 30.5398C84.647 30.5398 84.979 30.4983 85.2695 30.4485V28.9626C85.0205 28.9875 84.8628 29.0041 84.5889 29.0041C83.7007 29.0041 83.3105 28.5891 83.3105 27.6428V22.9944H85.2695V21.4919H83.3105V19.2009H81.5259Z" fill="black"/>
<path d="M90.3234 30.6643C92.963 30.6643 94.5817 28.8962 94.5817 25.9661C94.5817 23.0525 92.9547 21.2761 90.3234 21.2761C87.6837 21.2761 86.0568 23.0525 86.0568 25.9661C86.0568 28.8962 87.6754 30.6643 90.3234 30.6643ZM90.3234 29.0789C88.7711 29.0789 87.8995 27.9416 87.8995 25.9661C87.8995 24.0071 88.7711 22.8616 90.3234 22.8616C91.8673 22.8616 92.7472 24.0071 92.7472 25.9661C92.7472 27.9333 91.8673 29.0789 90.3234 29.0789Z" fill="black"/>
<path d="M95.9666 30.49H97.7512V25.1526C97.7512 23.8826 98.7058 23.0276 100.059 23.0276C100.374 23.0276 100.906 23.0857 101.055 23.1355V21.3757C100.864 21.3259 100.524 21.301 100.258 21.301C99.0794 21.301 98.075 21.9485 97.8176 22.8367H97.6848V21.4504H95.9666V30.49Z" fill="black"/>
<path d="M105.486 22.7952C106.806 22.7952 107.669 23.7165 107.711 25.136H103.145C103.245 23.7248 104.166 22.7952 105.486 22.7952ZM107.703 28.0496C107.371 28.7551 106.632 29.1453 105.553 29.1453C104.125 29.1453 103.204 28.1409 103.145 26.5554V26.4558H109.529V25.8332C109.529 22.9944 108.01 21.2761 105.495 21.2761C102.946 21.2761 101.328 23.1106 101.328 25.9993C101.328 28.8879 102.913 30.6643 105.503 30.6643C107.57 30.6643 109.014 29.6682 109.421 28.0496H107.703Z" fill="black"/>
<path d="M69.8223 27.1518C69.9599 29.3715 71.8097 30.7911 74.5628 30.7911C77.5052 30.7911 79.3464 29.3027 79.3464 26.9281C79.3464 25.0612 78.2967 24.0287 75.7501 23.4351L74.3821 23.0996C72.7647 22.721 72.1108 22.2134 72.1108 21.3272C72.1108 20.2088 73.126 19.4775 74.6489 19.4775C76.0942 19.4775 77.0923 20.1916 77.2729 21.3358H79.1485C79.0366 19.2452 77.1955 17.774 74.6747 17.774C71.9646 17.774 70.1578 19.2452 70.1578 21.4563C70.1578 23.2802 71.1816 24.3643 73.4272 24.8891L75.0274 25.2763C76.6707 25.6634 77.3934 26.2312 77.3934 27.1776C77.3934 28.2789 76.2577 29.079 74.7091 29.079C73.0486 29.079 71.8957 28.3305 71.7323 27.1518H69.8223Z" fill="black"/>
<path d="M51.3349 21.301C50.1064 21.301 49.0439 21.9153 48.4961 22.9446H48.3633V21.4504H46.645V33.4949H48.4297V29.1204H48.5708C49.0439 30.0749 50.0649 30.6394 51.3516 30.6394C53.6343 30.6394 55.0869 28.8381 55.0869 25.9661C55.0869 23.094 53.6343 21.301 51.3349 21.301ZM50.8286 29.0373C49.3345 29.0373 48.3965 27.8586 48.3965 25.9744C48.3965 24.0818 49.3345 22.9031 50.8369 22.9031C52.3476 22.9031 53.2524 24.0569 53.2524 25.9661C53.2524 27.8835 52.3476 29.0373 50.8286 29.0373Z" fill="black"/>
<path d="M61.3317 21.301C60.1032 21.301 59.0407 21.9153 58.4929 22.9446H58.3601V21.4504H56.6418V33.4949H58.4265V29.1204H58.5676C59.0407 30.0749 60.0617 30.6394 61.3483 30.6394C63.6311 30.6394 65.0837 28.8381 65.0837 25.9661C65.0837 23.094 63.6311 21.301 61.3317 21.301ZM60.8254 29.0373C59.3313 29.0373 58.3933 27.8586 58.3933 25.9744C58.3933 24.0818 59.3313 22.9031 60.8337 22.9031C62.3444 22.9031 63.2492 24.0569 63.2492 25.9661C63.2492 27.8835 62.3444 29.0373 60.8254 29.0373Z" fill="black"/>
<path d="M43.443 30.49H45.4906L41.0082 18.0751H38.9348L34.4523 30.49H36.4311L37.5754 27.1948H42.3073L43.443 30.49ZM39.8725 20.3292H40.0188L41.8169 25.5774H38.0658L39.8725 20.3292Z" fill="black"/>
<path d="M24.769 20.3008C24.7907 18.6198 25.6934 17.0292 27.1256 16.1488C26.2221 14.8584 24.7088 14.0403 23.1344 13.9911C21.4552 13.8148 19.8272 14.9959 18.9715 14.9959C18.0992 14.9959 16.7817 14.0086 15.363 14.0378C13.5137 14.0975 11.7898 15.1489 10.8901 16.7656C8.95607 20.1141 10.3987 25.0351 12.2513 27.7417C13.1782 29.0671 14.2615 30.5475 15.6789 30.495C17.066 30.4375 17.584 29.6105 19.2583 29.6105C20.9171 29.6105 21.4031 30.495 22.8493 30.4616C24.3377 30.4375 25.2754 29.1304 26.1698 27.7925C26.8358 26.8481 27.3483 25.8044 27.6882 24.7C25.9391 23.9602 24.771 22.2 24.769 20.3008Z" fill="black"/>
<path d="M22.0373 12.2111C22.8489 11.2369 23.2487 9.98469 23.1518 8.72046C21.912 8.85068 20.7668 9.44324 19.9443 10.3801C19.14 11.2954 18.7214 12.5255 18.8006 13.7415C20.0408 13.7542 21.2601 13.1777 22.0373 12.2111Z" fill="black"/>
<path d="M38.8984 14.0938C40.1953 14.0938 41.0781 13.4102 41.293 12.2461H40.4219C40.2461 12.9258 39.6875 13.3281 38.9023 13.3281C37.8672 13.3281 37.2109 12.4961 37.2109 11.1797C37.2109 9.875 37.875 9.03516 38.8984 9.03516C39.6641 9.03516 40.2656 9.50781 40.4219 10.2305H41.2891C41.1406 9.05469 40.1758 8.26953 38.8984 8.26953C37.3242 8.26953 36.3164 9.39453 36.3164 11.1797C36.3164 12.9766 37.3164 14.0938 38.8984 14.0938Z" fill="black"/>
<path d="M44.0661 14.0781C45.2419 14.0781 46.0153 13.2695 46.0153 11.9453C46.0153 10.625 45.238 9.81641 44.0661 9.81641C42.8942 9.81641 42.1169 10.625 42.1169 11.9453C42.1169 13.2695 42.8903 14.0781 44.0661 14.0781ZM44.0661 13.3828C43.4059 13.3828 42.9763 12.8594 42.9763 11.9453C42.9763 11.0352 43.4059 10.5117 44.0661 10.5117C44.7262 10.5117 45.1559 11.0352 45.1559 11.9453C45.1559 12.8594 44.7302 13.3828 44.0661 13.3828Z" fill="black"/>
<path d="M46.9877 14H47.8314V11.6055C47.8314 10.9688 48.2142 10.5469 48.808 10.5469C49.3939 10.5469 49.683 10.8867 49.683 11.5039V14H50.5306V11.3398C50.5306 10.3984 50.0111 9.82031 49.1048 9.82031C48.472 9.82031 48.0345 10.1094 47.8119 10.5781H47.7923V9.89062H46.9877V14Z" fill="black"/>
<path d="M51.5928 11.0547C51.5928 11.6523 51.9795 12.0273 52.7608 12.207L53.4287 12.3633C53.878 12.4648 54.0303 12.6211 54.0303 12.8867C54.0303 13.2227 53.7178 13.4336 53.21 13.4336C52.6944 13.4336 52.4014 13.2227 52.3233 12.793H51.4873C51.5655 13.5742 52.1827 14.0781 53.21 14.0781C54.1787 14.0781 54.878 13.5625 54.878 12.8125C54.878 12.2188 54.5577 11.8906 53.7178 11.6953L53.0498 11.543C52.6045 11.4414 52.417 11.2656 52.417 11.0078C52.417 10.6797 52.7217 10.457 53.1787 10.457C53.6514 10.457 53.9444 10.707 53.9912 11.1055H54.7842C54.7569 10.3477 54.1358 9.81641 53.1787 9.81641C52.2334 9.81641 51.5928 10.3203 51.5928 11.0547Z" fill="black"/>
<path d="M55.8816 14H56.7253V9.89062H55.8816V14ZM56.6159 9.3125L57.5183 8.12109H56.6667L55.9988 9.3125H56.6159Z" fill="black"/>
<path d="M59.6586 13.3164C59.0102 13.3164 58.5883 12.793 58.5883 11.9336C58.5883 11.0781 59.0102 10.5352 59.6586 10.5352C60.3188 10.5352 60.7523 11.0898 60.7523 11.9336C60.7523 12.7812 60.3188 13.3164 59.6586 13.3164ZM59.6664 15.5469C60.8383 15.5469 61.5961 14.9062 61.5961 13.9258V9.89062H60.7758V10.5938H60.7602C60.5102 10.1172 60.0336 9.82422 59.4516 9.82422C58.3969 9.82422 57.725 10.6367 57.725 11.9297C57.725 13.2109 58.4008 14.0156 59.432 14.0156C60.018 14.0156 60.5023 13.7227 60.7328 13.2773H60.7484V13.9531C60.7484 14.5156 60.3578 14.8906 59.6977 14.8906C59.2172 14.8906 58.8422 14.6641 58.7211 14.3203H57.8734C57.9789 15.0312 58.6977 15.5469 59.6664 15.5469Z" fill="black"/>
<path d="M66.2755 9.89062H65.4317V12.2852C65.4317 12.9258 65.0645 13.3477 64.4552 13.3477C63.8731 13.3477 63.5763 13.0117 63.5763 12.3867V9.89062H62.7325V12.5508C62.7325 13.4922 63.2794 14.0742 64.1739 14.0742C64.8028 14.0742 65.2208 13.7969 65.4473 13.3047H65.4669V14H66.2755V9.89062Z" fill="black"/>
<path d="M69.1502 10.4961C69.74 10.4961 70.1384 10.9375 70.158 11.5664H68.1033C68.1462 10.9453 68.5603 10.4961 69.1502 10.4961ZM70.1541 12.793C70.0408 13.1523 69.6853 13.3945 69.2048 13.3945C68.5291 13.3945 68.0994 12.9219 68.0994 12.207V12.1562H71.0017V11.8672C71.0017 10.6211 70.2908 9.81641 69.1502 9.81641C67.99 9.81641 67.2478 10.6758 67.2478 11.9648C67.2478 13.2617 67.9783 14.0781 69.1853 14.0781C70.1267 14.0781 70.8377 13.543 70.9548 12.793H70.1541Z" fill="black"/>
<path d="M72.0092 14H72.853V8.36328H72.0092V14Z" fill="black"/>
<path d="M75.8058 14.0781C76.9816 14.0781 77.755 13.2695 77.755 11.9453C77.755 10.625 76.9777 9.81641 75.8058 9.81641C74.6339 9.81641 73.8566 10.625 73.8566 11.9453C73.8566 13.2695 74.63 14.0781 75.8058 14.0781ZM75.8058 13.3828C75.1456 13.3828 74.7159 12.8594 74.7159 11.9453C74.7159 11.0352 75.1456 10.5117 75.8058 10.5117C76.4659 10.5117 76.8956 11.0352 76.8956 11.9453C76.8956 12.8594 76.4698 13.3828 75.8058 13.3828Z" fill="black"/>
<path d="M82.3911 10.4961C82.9809 10.4961 83.3794 10.9375 83.3989 11.5664H81.3442C81.3872 10.9453 81.8013 10.4961 82.3911 10.4961ZM83.395 12.793C83.2817 13.1523 82.9263 13.3945 82.4458 13.3945C81.77 13.3945 81.3403 12.9219 81.3403 12.207V12.1562H84.2427V11.8672C84.2427 10.6211 83.5317 9.81641 82.3911 9.81641C81.2309 9.81641 80.4888 10.6758 80.4888 11.9648C80.4888 13.2617 81.2192 14.0781 82.4263 14.0781C83.3677 14.0781 84.0786 13.543 84.1958 12.793H83.395Z" fill="black"/>
<path d="M85.2189 14H86.0627V11.6055C86.0627 10.9688 86.4455 10.5469 87.0392 10.5469C87.6252 10.5469 87.9142 10.8867 87.9142 11.5039V14H88.7619V11.3398C88.7619 10.3984 88.2423 9.82031 87.3361 9.82031C86.7033 9.82031 86.2658 10.1094 86.0431 10.5781H86.0236V9.89062H85.2189V14Z" fill="black"/>
<path d="M93.562 10.4961C94.1519 10.4961 94.5503 10.9375 94.5698 11.5664H92.5152C92.5581 10.9453 92.9722 10.4961 93.562 10.4961ZM94.5659 12.793C94.4527 13.1523 94.0972 13.3945 93.6167 13.3945C92.9409 13.3945 92.5112 12.9219 92.5112 12.207V12.1562H95.4136V11.8672C95.4136 10.6211 94.7027 9.81641 93.562 9.81641C92.4019 9.81641 91.6597 10.6758 91.6597 11.9648C91.6597 13.2617 92.3902 14.0781 93.5972 14.0781C94.5386 14.0781 95.2495 13.543 95.3667 12.793H94.5659Z" fill="black"/>
<path d="M96.4211 14H97.2648V8.36328H96.4211V14Z" fill="black"/>
<path d="M4.32122 39.4672L3.93853 40.391L4.32122 39.4672ZM119.467 35.6788L120.391 36.0615L119.467 35.6788ZM115.679 39.4672L116.061 40.391L115.679 39.4672ZM115.679 0.532843L116.061 -0.391036L115.679 0.532843ZM119.467 4.32122L120.391 3.93853L119.467 4.32122ZM10.5 1H109.5V-1H10.5V1ZM119 10.5V29.5H121V10.5H119ZM109.5 39H10.5V41H109.5V39ZM1 29.5V10.5H-1V29.5H1ZM10.5 39C8.85552 39 7.67224 38.9995 6.73798 38.9357C5.8127 38.8726 5.20494 38.7508 4.7039 38.5433L3.93853 40.391C4.72389 40.7163 5.57473 40.861 6.60184 40.9311C7.61997 41.0005 8.88288 41 10.5 41V39ZM-1 29.5C-1 31.1171 -1.00054 32.38 -0.931075 33.3982C-0.860996 34.4253 -0.716341 35.2761 -0.391036 36.0615L1.45672 35.2961C1.24918 34.7951 1.12742 34.1873 1.06429 33.262C1.00054 32.3278 1 31.1445 1 29.5H-1ZM4.7039 38.5433C3.23373 37.9343 2.06569 36.7663 1.45672 35.2961L-0.391036 36.0615C0.420915 38.0217 1.97831 39.5791 3.93853 40.391L4.7039 38.5433ZM119 29.5C119 31.1445 118.999 32.3278 118.936 33.262C118.873 34.1873 118.751 34.7951 118.543 35.2961L120.391 36.0615C120.716 35.2761 120.861 34.4253 120.931 33.3982C121.001 32.38 121 31.1171 121 29.5H119ZM109.5 41C111.117 41 112.38 41.0005 113.398 40.9311C114.425 40.861 115.276 40.7163 116.061 40.391L115.296 38.5433C114.795 38.7508 114.187 38.8726 113.262 38.9357C112.328 38.9995 111.144 39 109.5 39V41ZM118.543 35.2961C117.934 36.7663 116.766 37.9343 115.296 38.5433L116.061 40.391C118.022 39.5791 119.579 38.0217 120.391 36.0615L118.543 35.2961ZM109.5 1C111.144 1 112.328 1.00054 113.262 1.06429C114.187 1.12742 114.795 1.24918 115.296 1.45672L116.061 -0.391036C115.276 -0.716341 114.425 -0.860996 113.398 -0.931075C112.38 -1.00054 111.117 -1 109.5 -1V1ZM121 10.5C121 8.88289 121.001 7.61997 120.931 6.60184C120.861 5.57473 120.716 4.72389 120.391 3.93853L118.543 4.7039C118.751 5.20494 118.873 5.8127 118.936 6.73798C118.999 7.67225 119 8.85552 119 10.5H121ZM115.296 1.45672C116.766 2.06569 117.934 3.23373 118.543 4.7039L120.391 3.93853C119.579 1.97831 118.022 0.420915 116.061 -0.391036L115.296 1.45672ZM10.5 -1C8.88289 -1 7.61997 -1.00054 6.60184 -0.931075C5.57473 -0.860996 4.72389 -0.716341 3.93853 -0.391036L4.7039 1.45672C5.20494 1.24918 5.8127 1.12742 6.73798 1.06429C7.67225 1.00054 8.85552 1 10.5 1V-1ZM1 10.5C1 8.85552 1.00054 7.67225 1.06429 6.73798C1.12742 5.8127 1.24918 5.20494 1.45672 4.7039L-0.391036 3.93853C-0.716341 4.72389 -0.860996 5.57473 -0.931075 6.60184C-1.00054 7.61997 -1 8.88289 -1 10.5H1ZM3.93853 -0.391036C1.97831 0.420915 0.420915 1.97831 -0.391036 3.93853L1.45672 4.7039C2.06569 3.23373 3.23373 2.06569 4.7039 1.45672L3.93853 -0.391036Z" fill="black"/>
</svg>
