<svg width="135" height="40" viewBox="0 0 135 40" fill="none" xmlns="http://www.w3.org/2000/svg">
<path d="M0 5C0 2.23858 2.23858 0 5 0H130C132.761 0 135 2.23858 135 5V35C135 37.7614 132.761 40 130 40H5C2.23857 40 0 37.7614 0 35V5Z" fill="white"/>
<path d="M68.136 21.7511C65.784 21.7511 63.867 23.5401 63.867 26.0041C63.867 28.4531 65.784 30.2571 68.136 30.2571C70.489 30.2571 72.406 28.4531 72.406 26.0041C72.405 23.5401 70.488 21.7511 68.136 21.7511ZM68.136 28.5831C66.847 28.5831 65.736 27.5201 65.736 26.0051C65.736 24.4741 66.848 23.4271 68.136 23.4271C69.425 23.4271 70.536 24.4741 70.536 26.0051C70.536 27.5191 69.425 28.5831 68.136 28.5831ZM58.822 21.7511C56.47 21.7511 54.553 23.5401 54.553 26.0041C54.553 28.4531 56.47 30.2571 58.822 30.2571C61.175 30.2571 63.092 28.4531 63.092 26.0041C63.092 23.5401 61.175 21.7511 58.822 21.7511ZM58.822 28.5831C57.533 28.5831 56.422 27.5201 56.422 26.0051C56.422 24.4741 57.534 23.4271 58.822 23.4271C60.111 23.4271 61.222 24.4741 61.222 26.0051C61.223 27.5191 60.111 28.5831 58.822 28.5831ZM47.744 23.0571V24.8611H52.062C51.933 25.8761 51.595 26.6171 51.079 27.1321C50.451 27.7601 49.468 28.4531 47.744 28.4531C45.086 28.4531 43.008 26.3101 43.008 23.6521C43.008 20.9941 45.086 18.8511 47.744 18.8511C49.178 18.8511 50.225 19.4151 50.998 20.1401L52.271 18.8671C51.191 17.8361 49.758 17.0471 47.744 17.0471C44.103 17.0471 41.042 20.0111 41.042 23.6521C41.042 27.2931 44.103 30.2571 47.744 30.2571C49.709 30.2571 51.192 29.6121 52.351 28.4041C53.543 27.2121 53.914 25.5361 53.914 24.1831C53.914 23.7651 53.882 23.3781 53.817 23.0561H47.744V23.0571ZM93.052 24.4581C92.698 23.5081 91.618 21.7511 89.411 21.7511C87.22 21.7511 85.399 23.4751 85.399 26.0041C85.399 28.3881 87.204 30.2571 89.62 30.2571C91.569 30.2571 92.697 29.0651 93.165 28.3721L91.715 27.4051C91.232 28.1141 90.571 28.5811 89.62 28.5811C88.67 28.5811 87.993 28.1461 87.558 27.2921L93.245 24.9401L93.052 24.4581ZM87.252 25.8761C87.204 24.2321 88.525 23.3951 89.476 23.3951C90.217 23.3951 90.845 23.7661 91.055 24.2971L87.252 25.8761ZM82.629 30.0001H84.497V17.4991H82.629V30.0001ZM79.567 22.7021H79.503C79.084 22.2021 78.278 21.7511 77.264 21.7511C75.137 21.7511 73.188 23.6201 73.188 26.0211C73.188 28.4051 75.137 30.2581 77.264 30.2581C78.279 30.2581 79.084 29.8071 79.503 29.2921H79.567V29.9041C79.567 31.5311 78.697 32.4011 77.296 32.4011C76.152 32.4011 75.443 31.5801 75.153 30.8871L73.526 31.5641C73.993 32.6911 75.233 34.0771 77.296 34.0771C79.487 34.0771 81.34 32.7881 81.34 29.6461V22.0101H79.568V22.7021H79.567ZM77.425 28.5831C76.136 28.5831 75.057 27.5031 75.057 26.0211C75.057 24.5221 76.136 23.4271 77.425 23.4271C78.697 23.4271 79.696 24.5221 79.696 26.0211C79.696 27.5031 78.697 28.5831 77.425 28.5831ZM101.806 17.4991H97.335V30.0001H99.2V25.2641H101.805C103.873 25.2641 105.907 23.7671 105.907 21.3821C105.907 18.9971 103.874 17.4991 101.806 17.4991ZM101.854 23.5241H99.2V19.2391H101.854C103.249 19.2391 104.041 20.3941 104.041 21.3821C104.041 22.3501 103.249 23.5241 101.854 23.5241ZM113.386 21.7291C112.035 21.7291 110.636 22.3241 110.057 23.6431L111.713 24.3341C112.067 23.6431 112.727 23.4171 113.418 23.4171C114.383 23.4171 115.364 23.9961 115.38 25.0251V25.1541C115.042 24.9611 114.318 24.6721 113.434 24.6721C111.649 24.6721 109.831 25.6531 109.831 27.4861C109.831 29.1591 111.295 30.2361 112.935 30.2361C114.189 30.2361 114.881 29.6731 115.315 29.0131H115.379V29.9781H117.181V25.1851C117.182 22.9671 115.524 21.7291 113.386 21.7291ZM113.16 28.5801C112.55 28.5801 111.697 28.2741 111.697 27.5181C111.697 26.5531 112.759 26.1831 113.676 26.1831C114.495 26.1831 114.882 26.3601 115.38 26.6011C115.235 27.7601 114.238 28.5801 113.16 28.5801ZM123.743 22.0021L121.604 27.4221H121.54L119.32 22.0021H117.31L120.639 29.5771L118.741 33.7911H120.687L125.818 22.0021H123.743ZM106.937 30.0001H108.802V17.4991H106.937V30.0001Z" fill="black"/>
<path fill-rule="evenodd" clip-rule="evenodd" d="M10.1564 7.96648C10.0383 8.23398 9.97302 8.56174 9.97302 8.943V31.059C9.97302 31.4411 10.0384 31.7689 10.1566 32.0363L22.1905 20.0006L10.1564 7.96648ZM10.8516 32.7555C11.2977 32.9464 11.8795 32.8858 12.514 32.526L26.6711 24.4812L22.8976 20.7077L10.8516 32.7555ZM27.5736 23.9695L32.015 21.446C33.412 20.651 33.412 19.352 32.015 18.558L27.5716 16.0331L23.6047 20.0006L27.5736 23.9695ZM26.6698 15.5207L12.514 7.47701C11.8795 7.11643 11.2976 7.05626 10.8515 7.2474L22.8976 19.2935L26.6698 15.5207Z" fill="black"/>
<path d="M41.576 14V8.27198H43.328C44.2027 8.27198 44.904 8.53598 45.432 9.06398C45.9653 9.59198 46.232 10.2826 46.232 11.136C46.232 11.9946 45.9653 12.688 45.432 13.216C44.904 13.7386 44.2027 14 43.328 14H41.576ZM42.312 8.97598V13.296H43.328C43.9947 13.296 44.52 13.1066 44.904 12.728C45.288 12.344 45.48 11.8133 45.48 11.136C45.48 10.464 45.288 9.93598 44.904 9.55198C44.52 9.16798 43.9947 8.97598 43.328 8.97598H42.312Z" fill="black"/>
<path d="M47.8432 14H47.1072V8.27198H47.8432V14Z" fill="black"/>
<path d="M52.5339 12.472C52.5339 12.9733 52.3499 13.376 51.9819 13.68C51.6085 13.9786 51.1552 14.128 50.6219 14.128C50.1472 14.128 49.7285 13.9893 49.3659 13.712C49.0032 13.4346 48.7525 13.056 48.6139 12.576L49.3179 12.288C49.3659 12.4586 49.4325 12.6133 49.5179 12.752C49.6032 12.8906 49.7019 13.0106 49.8139 13.112C49.9312 13.208 50.0592 13.2853 50.1979 13.344C50.3365 13.3973 50.4832 13.424 50.6379 13.424C50.9739 13.424 51.2485 13.3386 51.4619 13.168C51.6752 12.992 51.7819 12.76 51.7819 12.472C51.7819 12.232 51.6939 12.0266 51.5179 11.856C51.3525 11.6906 51.0432 11.5306 50.5899 11.376C50.1312 11.2106 49.8459 11.0986 49.7339 11.04C49.1259 10.7306 48.8219 10.2746 48.8219 9.67198C48.8219 9.25065 48.9899 8.89065 49.3259 8.59198C49.6672 8.29332 50.0859 8.14398 50.5819 8.14398C51.0192 8.14398 51.3979 8.25598 51.7179 8.47998C52.0379 8.69865 52.2512 8.97332 52.3579 9.30398L51.6699 9.59198C51.6059 9.37865 51.4779 9.20265 51.2859 9.06398C51.0992 8.91998 50.8699 8.84798 50.5979 8.84798C50.3099 8.84798 50.0672 8.92798 49.8699 9.08798C49.6725 9.23732 49.5739 9.43198 49.5739 9.67198C49.5739 9.86932 49.6512 10.04 49.8059 10.184C49.9765 10.328 50.3472 10.4986 50.9179 10.696C51.4992 10.8933 51.9125 11.136 52.1579 11.424C52.4085 11.7066 52.5339 12.056 52.5339 12.472Z" fill="black"/>
<path d="M54.1557 11.68V14H53.4197V8.27198H55.3717C55.8677 8.27198 56.2891 8.43732 56.6357 8.76798C56.9877 9.09865 57.1637 9.50132 57.1637 9.97598C57.1637 10.4613 56.9877 10.8666 56.6357 11.192C56.2944 11.5173 55.8731 11.68 55.3717 11.68H54.1557ZM54.1557 8.97598V10.976H55.3877C55.6811 10.976 55.9237 10.8773 56.1157 10.68C56.3131 10.4826 56.4117 10.248 56.4117 9.97598C56.4117 9.70932 56.3131 9.47732 56.1157 9.27998C55.9237 9.07732 55.6811 8.97598 55.3877 8.97598H54.1557Z" fill="black"/>
<path d="M63.4652 11.136C63.4652 11.984 63.1826 12.6933 62.6172 13.264C62.0466 13.84 61.3479 14.128 60.5212 14.128C59.6892 14.128 58.9906 13.84 58.4252 13.264C57.8599 12.6933 57.5772 11.984 57.5772 11.136C57.5772 10.288 57.8599 9.57865 58.4252 9.00798C58.9906 8.43198 59.6892 8.14398 60.5212 8.14398C61.3532 8.14398 62.0519 8.43465 62.6172 9.01598C63.1826 9.58665 63.4652 10.2933 63.4652 11.136ZM58.3292 11.136C58.3292 11.7973 58.5372 12.344 58.9532 12.776C59.3746 13.208 59.8972 13.424 60.5212 13.424C61.1452 13.424 61.6652 13.208 62.0812 12.776C62.5026 12.3493 62.7132 11.8026 62.7132 11.136C62.7132 10.4693 62.5026 9.92265 62.0812 9.49598C61.6652 9.06398 61.1452 8.84798 60.5212 8.84798C59.8972 8.84798 59.3746 9.06398 58.9532 9.49598C58.5372 9.92798 58.3292 10.4746 58.3292 11.136Z" fill="black"/>
<path d="M65.0698 14H64.3338V8.27198H65.2298L68.0138 12.728H68.0458L68.0138 11.624V8.27198H68.7498V14H67.9818L65.0698 9.32798H65.0378L65.0698 10.432V14Z" fill="black"/>
<path d="M70.6401 14H69.9041V8.27198H70.6401V14Z" fill="black"/>
<path d="M71.7947 14V8.27198H73.8667C74.3201 8.27198 74.7094 8.42132 75.0347 8.71998C75.3601 9.01332 75.5227 9.38398 75.5227 9.83198C75.5227 10.3973 75.2641 10.7946 74.7467 11.024V11.056C75.0401 11.152 75.2747 11.32 75.4507 11.56C75.6267 11.7946 75.7147 12.064 75.7147 12.368C75.7147 12.8373 75.5441 13.2266 75.2027 13.536C74.8721 13.8453 74.4641 14 73.9787 14H71.7947ZM72.5307 8.97598V10.728H73.8667C74.1281 10.728 74.3467 10.64 74.5227 10.464C74.6987 10.2826 74.7867 10.0773 74.7867 9.84798C74.7867 9.62398 74.7014 9.42132 74.5307 9.23998C74.3601 9.06398 74.1494 8.97598 73.8987 8.97598H72.5307ZM72.5307 11.416V13.296H74.0107C74.2774 13.296 74.5041 13.2026 74.6907 13.016C74.8721 12.8293 74.9627 12.608 74.9627 12.352C74.9627 12.1013 74.8694 11.8826 74.6827 11.696C74.4961 11.5093 74.2614 11.416 73.9787 11.416H72.5307Z" fill="black"/>
<path d="M79.7607 14H76.5447V8.27198H77.2807V13.296H79.7607V14Z" fill="black"/>
<path d="M83.8731 8.27198V8.97598H81.2651V10.792H83.6171V11.48H81.2651V13.296H83.8731V14H80.5291V8.27198H83.8731Z" fill="black"/>
<path d="M89.9669 8.27198V8.97598H87.3589V10.792H89.7109V11.48H87.3589V13.296H89.9669V14H86.6229V8.27198H89.9669Z" fill="black"/>
<path d="M91.6948 14H90.9588V8.27198H91.8548L94.6388 12.728H94.6708L94.6388 11.624V8.27198H95.3748V14H94.6068L91.6948 9.32798H91.6628L91.6948 10.432V14Z" fill="black"/>
<path d="M5 1H130V-1H5V1ZM134 5V35H136V5H134ZM130 39H5V41H130V39ZM1 35V5H-1V35H1ZM5 39C2.79086 39 1 37.2091 1 35H-1C-1 38.3137 1.68629 41 5 41V39ZM134 35C134 37.2091 132.209 39 130 39V41C133.314 41 136 38.3137 136 35H134ZM130 1C132.209 1 134 2.79086 134 5H136C136 1.68629 133.314 -1 130 -1V1ZM5 -1C1.68629 -1 -1 1.68629 -1 5H1C1 2.79086 2.79086 1 5 1V-1Z" fill="black"/>
</svg>
