<svg width="516" height="618" viewBox="0 0 516 618" fill="none" xmlns="http://www.w3.org/2000/svg">
<path d="M59.08 432.946C57.3241 416.702 57.1763 400.315 58.3407 384.017C60.762 349.854 69.5601 317.918 86.9714 288.136C108.8 250.821 141.941 227.024 184.046 215.126C222.436 204.279 261.62 202.426 301.267 207.467C329.473 211.047 356.033 218.706 379.563 234.683C407.75 253.813 425.364 280.37 436.288 311.488C443.423 331.829 448.395 352.74 450.631 374.078C452.405 391.07 452.923 408.098 451.296 425.322C448.931 450.116 443.792 474.127 434.384 497.175C415.679 542.951 381.466 572.946 333.632 588.816C308.106 597.295 281.804 602.211 254.929 602.336C215.079 602.514 176.283 596.44 140.887 577.292C106.36 558.626 84.8089 529.646 72.7393 493.684C66.1962 474.18 61.5568 454.267 59.191 433.801C59.1355 433.48 59.117 433.213 59.08 432.946ZM323.41 406.104C322.874 396.343 322.726 386.564 321.673 376.785C320.065 361.841 316.867 347.485 309.917 333.913C294.096 302.956 260.9 296.312 232.639 307.07C211.678 315.05 200.607 332.114 193.565 351.902C189.369 363.712 188.094 376.055 187.04 388.452C184.674 416.149 187.299 443.045 199.091 468.694C209.202 490.709 226.724 504.994 251.492 505.903C281.139 507.007 305.925 487.379 315.573 459.77C321.654 442.368 323.577 424.378 323.41 406.104Z" fill="white"/>
<path d="M118.395 52.4525C90.4663 52.6306 65.6247 39.824 49.6181 20.1776C30.2291 27.9079 16.5884 46.2896 16.5884 67.7706C16.5884 72.8826 17.4016 77.8164 18.8433 82.4831C18.9358 82.9996 18.9912 83.4984 19.1021 84.0327C26.6248 121.758 84.0895 137.949 84.0895 137.949C145.805 158.735 242.824 163.01 242.824 163.01C295.594 165.165 389.305 168.3 427.14 163.74C427.307 163.722 427.399 163.705 427.473 163.669C466.214 159.679 496.397 128.081 496.397 89.6968C496.397 50.8494 465.493 18.9842 426.087 15.6178C423.555 15.315 420.801 15.0478 417.621 14.9766C399.397 14.5669 376.976 16.9893 376.976 16.9893C305.723 24.8799 242.492 37.1344 242.492 37.1344C242.492 37.1344 168.429 52.1497 118.395 52.4525Z" fill="#00B7BD"/>
</svg>
