<svg width="598" height="575" viewBox="0 0 598 575" fill="none" xmlns="http://www.w3.org/2000/svg">
<path d="M372.325 305.922H374.253H577.865C583.079 305.922 588.075 303.929 591.756 300.388C595.436 296.848 597.5 292.05 597.5 287.051C597.5 282.053 595.436 277.255 591.756 273.714C588.075 270.173 583.079 268.18 577.865 268.18H373.939H372.01L373.696 267.243L549.874 169.3C554.375 166.794 557.651 162.675 558.989 157.852C560.326 153.03 559.619 147.894 557.019 143.572C555.732 141.431 554.017 139.554 551.974 138.048C549.931 136.543 547.598 135.439 545.109 134.8C540.081 133.509 534.727 134.193 530.226 136.699L529.983 136.262L530.225 136.699L354.047 234.642L352.413 235.551L353.375 233.948L455.181 64.4532L455.182 64.4529C456.469 62.3123 457.305 59.9497 457.643 57.5C457.981 55.0502 457.814 52.5604 457.151 50.1723C456.489 47.7842 455.344 45.5439 453.78 43.5795C452.216 41.6152 450.265 39.9652 448.037 38.7246C445.808 37.4839 443.346 36.6772 440.792 36.3513C438.238 36.0253 435.642 36.1865 433.154 36.8256C430.665 37.4647 428.332 38.569 426.288 40.0745C424.245 41.5799 422.531 43.457 421.243 45.5977L319.689 215.092L318.754 216.653L318.76 214.833L319.453 19.4295V19.428C319.469 16.9556 318.978 14.5041 318.007 12.2136C317.036 9.92305 315.604 7.83815 313.792 6.07881C311.981 4.31943 309.825 2.92038 307.448 1.96271C305.071 1.00511 302.521 0.507819 299.943 0.5C294.751 0.500094 289.773 2.47652 286.096 5.99211C282.42 9.50726 280.342 14.2749 280.309 19.253L279.617 215.744L279.611 217.537L278.688 216L176.568 45.8392L176.561 45.8278L176.561 45.8277C175.311 43.6139 173.613 41.662 171.565 40.0878C169.516 38.5135 167.16 37.3491 164.634 36.6641C162.109 35.9791 159.466 35.7876 156.861 36.1012C154.257 36.4148 151.745 37.227 149.474 38.489C147.203 39.7511 145.219 41.4373 143.638 43.4472C142.058 45.457 140.913 47.7497 140.269 50.1902C139.626 52.6305 139.497 55.1699 139.89 57.6587C140.283 60.1475 141.191 62.5363 142.56 64.6841L142.567 64.6952L142.567 64.6953L244.436 234.19L245.4 235.794L243.764 234.884L67.5857 136.941L67.5855 136.941C63.0841 134.435 57.73 133.751 52.7024 135.042C47.6752 136.333 43.3926 139.49 40.7922 143.814C38.1923 148.136 37.4848 153.272 38.8225 158.094C40.1604 162.917 43.4363 167.036 47.937 169.542L372.325 305.922ZM372.325 305.922L374.01 306.859L550.189 404.803C554.697 407.31 557.979 411.433 559.323 416.26C560.666 421.087 559.963 426.231 557.365 430.561C555.601 433.465 553.063 435.867 550.01 437.517C546.957 439.167 543.5 440.005 539.996 439.944L539.983 439.944C536.538 439.968 533.148 439.112 530.161 437.464L353.984 339.46L352.349 338.551L353.313 340.155L455.119 509.649L455.119 509.65C456.406 511.79 457.242 514.153 457.58 516.603C457.918 519.052 457.751 521.542 457.088 523.93C456.426 526.318 455.281 528.559 453.717 530.523C452.154 532.487 450.202 534.138 447.974 535.378C445.745 536.619 443.284 537.425 440.729 537.751C438.175 538.077 435.58 537.916 433.091 537.277C430.602 536.638 428.269 535.534 426.225 534.028C424.182 532.523 422.468 530.646 421.18 528.505L319.06 358.345L318.138 356.808L318.131 358.601L317.439 555.092C317.407 560.07 315.329 564.837 311.652 568.353C307.975 571.868 302.998 573.844 297.806 573.845C295.225 573.837 292.671 573.34 290.291 572.383C287.91 571.426 285.75 570.028 283.933 568.269C282.117 566.51 280.679 564.426 279.701 562.135C278.723 559.844 278.225 557.39 278.233 554.915L278.988 359.512L278.995 357.691L278.059 359.253L176.504 528.748L176.498 528.759C175.249 530.973 173.55 532.925 171.502 534.499C169.453 536.073 167.097 537.238 164.571 537.923C162.046 538.608 159.403 538.799 156.798 538.486C154.194 538.172 151.682 537.36 149.411 536.098C147.14 534.836 145.156 533.15 143.576 531.14C141.995 529.13 140.85 526.837 140.206 524.397C139.563 521.956 139.434 519.417 139.827 516.928C140.22 514.439 141.128 512.051 142.497 509.903L142.504 509.892L244.373 340.397L245.337 338.792L243.701 339.702L67.5343 437.701C67.5323 437.702 67.5304 437.703 67.5284 437.704C63.0298 440.052 57.754 440.619 52.8254 439.282C47.895 437.945 43.7078 434.81 41.1511 430.552C38.5949 426.295 37.8687 421.248 39.1245 416.485C40.3799 411.724 43.5187 407.617 47.8797 405.042C47.8815 405.041 47.8834 405.04 47.8852 405.039L224.053 307.101L225.738 306.164H223.81H20.1347C14.9212 306.164 9.92486 304.172 6.244 300.63C2.56379 297.09 0.5 292.292 0.5 287.293C0.5 282.295 2.56379 277.497 6.244 273.957C9.92486 270.415 14.9212 268.423 20.1347 268.423H223.872H225.801L224.115 267.486L47.9372 169.542L372.325 305.922Z" stroke="#00ABB1"/>
</svg>
