<svg width="96" height="95" viewBox="0 0 96 95" fill="none" xmlns="http://www.w3.org/2000/svg">
<path d="M89.15 71.24C89.5741 70.5052 89.689 69.6322 89.4696 68.8127C89.2502 67.9933 88.7144 67.2945 87.98 66.87L59.98 50.6899H92.34C93.1887 50.6899 94.0026 50.3528 94.6027 49.7527C95.2029 49.1526 95.54 48.3387 95.54 47.49C95.54 46.6413 95.2029 45.8273 94.6027 45.2272C94.0026 44.6271 93.1887 44.2899 92.34 44.2899H59.93L87.93 28.11C88.6633 27.6856 89.198 26.9873 89.4165 26.1687C89.635 25.3501 89.5194 24.4783 89.095 23.745C88.8849 23.3819 88.6053 23.0637 88.2722 22.8086C87.9392 22.5536 87.5591 22.3666 87.1538 22.2584C86.3352 22.0399 85.4633 22.1556 84.73 22.58L56.73 38.7599L72.91 10.7599C73.1201 10.3968 73.2567 9.99592 73.3118 9.58005C73.367 9.16418 73.3397 8.74151 73.2315 8.33618C73.1234 7.93085 72.9364 7.55079 72.6813 7.21771C72.4263 6.88464 72.1081 6.60507 71.745 6.39496C71.3819 6.18484 70.981 6.0483 70.5651 5.99313C70.1492 5.93797 69.7265 5.96525 69.3212 6.07343C68.9159 6.18161 68.5358 6.36857 68.2028 6.62363C67.8697 6.87868 67.5901 7.19686 67.38 7.55997L51.24 35.56L51.35 3.27994C51.3526 2.86018 51.2724 2.44405 51.1139 2.05536C50.9554 1.66667 50.7217 1.3131 50.4263 1.01489C50.1309 0.716684 49.7795 0.479716 49.3923 0.317566C49.0051 0.155416 48.5898 0.0712539 48.17 0.0699463C47.3248 0.0699298 46.5138 0.404324 45.9143 1.00012C45.3148 1.59592 44.9753 2.40472 44.97 3.24994L44.86 35.71L28.63 7.59995C28.4261 7.22442 28.149 6.89355 27.8151 6.62683C27.4813 6.36012 27.0974 6.16297 26.6861 6.04703C26.2748 5.93109 25.8444 5.89868 25.4204 5.95175C24.9964 6.00482 24.5873 6.14228 24.2173 6.35602C23.8473 6.56975 23.5238 6.85545 23.266 7.19623C23.0081 7.537 22.8212 7.92595 22.7161 8.34015C22.611 8.75435 22.59 9.18541 22.6542 9.60788C22.7184 10.0303 22.8666 10.4357 23.09 10.8L39.28 38.8L11.28 22.62C10.5467 22.1956 9.67482 22.08 8.85622 22.2984C8.03763 22.5169 7.33935 23.0516 6.915 23.7849C6.49065 24.5183 6.375 25.3901 6.59348 26.2087C6.81196 27.0273 7.34668 27.7256 8.08 28.15L36.08 44.33H3.7C2.85131 44.33 2.03738 44.6671 1.43726 45.2672C0.837147 45.8673 0.5 46.6812 0.5 47.5299C0.5 48.3786 0.837147 49.1926 1.43726 49.7927C2.03738 50.3928 2.85131 50.7299 3.7 50.7299H36.07L8.07 66.9099C7.35897 67.346 6.8463 68.0425 6.6412 68.851C6.43611 69.6595 6.55481 70.5161 6.97201 71.2384C7.3892 71.9606 8.07192 72.4915 8.87473 72.7178C9.67755 72.9441 10.537 72.848 11.27 72.45L39.27 56.2599L23.08 84.2599C22.8566 84.6242 22.7084 85.0296 22.6442 85.452C22.58 85.8745 22.601 86.3056 22.7061 86.7198C22.8112 87.134 22.9981 87.5229 23.256 87.8637C23.5138 88.2045 23.8373 88.4902 24.2073 88.7039C24.5773 88.9176 24.9864 89.0551 25.4104 89.1082C25.8344 89.1612 26.2648 89.1288 26.6761 89.0129C27.0874 88.8969 27.4713 88.6998 27.8052 88.4331C28.139 88.1664 28.4161 87.8355 28.62 87.46L44.76 59.46L44.64 91.74C44.6387 92.1602 44.7202 92.5766 44.8798 92.9653C45.0394 93.354 45.274 93.7075 45.5702 94.0056C45.8664 94.3037 46.2184 94.5405 46.6062 94.7025C46.9939 94.8646 47.4098 94.9486 47.83 94.95C48.6752 94.95 49.4862 94.6156 50.0857 94.0198C50.6852 93.424 51.0247 92.6152 51.03 91.77L51.14 59.31L67.37 87.42C67.5801 87.7831 67.8597 88.1012 68.1928 88.3563C68.5258 88.6114 68.9059 88.7983 69.3112 88.9065C69.7166 89.0146 70.1392 89.042 70.5551 88.9868C70.971 88.9316 71.3719 88.7951 71.735 88.585C72.0981 88.3748 72.4163 88.0953 72.6713 87.7622C72.9264 87.4291 73.1133 87.0491 73.2215 86.6437C73.3297 86.2384 73.357 85.8157 73.3018 85.3999C73.2467 84.984 73.1101 84.583 72.9 84.2199L56.72 56.2199L84.72 72.4099C85.2068 72.6891 85.7589 72.834 86.32 72.83C86.8905 72.8403 87.4534 72.6985 87.9508 72.419C88.4482 72.1396 88.8622 71.7326 89.15 71.24Z" fill="#00ABB1"/>
</svg>
