<svg width="12" height="8" viewBox="0 0 12 8" fill="none" xmlns="http://www.w3.org/2000/svg">
<path d="M0.666504 0.666667C0.666504 0.298477 0.964981 0 1.33317 0H10.6665C11.0347 0 11.3332 0.298477 11.3332 0.666667C11.3332 1.03486 11.0347 1.33333 10.6665 1.33333H1.33317C0.964981 1.33333 0.666504 1.03486 0.666504 0.666667ZM1.99984 4C1.99984 3.63181 2.29831 3.33333 2.6665 3.33333H9.33317C9.70136 3.33333 9.99984 3.63181 9.99984 4C9.99984 4.36819 9.70136 4.66667 9.33317 4.66667H2.6665C2.29831 4.66667 1.99984 4.36819 1.99984 4ZM3.33317 7.33333C3.33317 6.96514 3.63165 6.66667 3.99984 6.66667H7.99984C8.36803 6.66667 8.6665 6.96514 8.6665 7.33333C8.6665 7.70152 8.36803 8 7.99984 8H3.99984C3.63165 8 3.33317 7.70152 3.33317 7.33333Z" fill="white"/>
</svg>
