<?xml version="1.0" encoding="UTF-8"?><svg id="Capa_1" xmlns="http://www.w3.org/2000/svg" viewBox="0 0 21.9 32"><defs><style>.cls-1{fill:#00abb1;}</style></defs><path d="M3.55,18.69c-.07-.7-.08-1.41-.03-2.12,.1-1.48,.47-2.86,1.19-4.15,.91-1.62,2.29-2.65,4.05-3.16,1.6-.47,3.24-.55,4.89-.33,1.18,.15,2.29,.49,3.27,1.18,1.18,.83,1.91,1.98,2.37,3.33,.3,.88,.51,1.79,.6,2.71,.07,.74,.1,1.47,.03,2.22-.1,1.07-.31,2.11-.71,3.11-.78,1.98-2.21,3.28-4.2,3.97-1.07,.37-2.16,.58-3.28,.59-1.66,0-3.28-.26-4.76-1.08-1.44-.81-2.34-2.06-2.84-3.62-.27-.84-.47-1.71-.57-2.59v-.04Zm11.03-1.16c-.02-.42-.03-.85-.07-1.27-.07-.65-.2-1.27-.49-1.86-.66-1.34-2.05-1.63-3.23-1.16-.88,.35-1.34,1.08-1.63,1.94-.18,.51-.23,1.05-.27,1.58-.1,1.2,.01,2.36,.5,3.47,.42,.95,1.15,1.57,2.19,1.61,1.24,.05,2.27-.8,2.67-2,.25-.75,.33-1.53,.33-2.32Z"/><path d="M3.4,18.69c-.07-.7-.08-1.41-.03-2.12,.1-1.48,.47-2.86,1.19-4.15,.91-1.62,2.29-2.65,4.05-3.16,1.6-.47,3.24-.55,4.89-.33,1.18,.15,2.29,.49,3.27,1.18,1.18,.83,1.91,1.98,2.37,3.33,.3,.88,.51,1.79,.6,2.71,.07,.74,.1,1.47,.03,2.22-.1,1.07-.31,2.11-.71,3.11-.78,1.98-2.21,3.28-4.2,3.97-1.07,.37-2.16,.58-3.28,.59-1.66,0-3.28-.26-4.76-1.08-1.44-.81-2.34-2.06-2.84-3.62-.27-.84-.47-1.71-.57-2.59v-.04Zm11.03-1.16c-.02-.42-.03-.85-.07-1.27-.07-.65-.2-1.27-.49-1.86-.66-1.34-2.05-1.63-3.23-1.16-.88,.35-1.34,1.08-1.63,1.94-.18,.51-.23,1.05-.27,1.58-.1,1.2,.01,2.36,.5,3.47,.42,.95,1.15,1.57,2.19,1.61,1.24,.05,2.27-.8,2.67-2,.25-.75,.33-1.53,.33-2.32Z"/><path class="cls-1" d="M5.87,2.21c-1.17,0-2.2-.55-2.87-1.4-.81,.33-1.38,1.13-1.38,2.06,0,.22,.03,.43,.09,.64,0,.02,0,.04,.01,.07,.31,1.63,2.71,2.33,2.71,2.33,2.58,.9,6.62,1.09,6.62,1.09,2.2,.09,6.11,.23,7.69,.03h.01c1.62-.18,2.88-1.54,2.88-3.21s-1.29-3.06-2.93-3.21c-.11-.01-.22-.02-.35-.03-.76-.02-1.7,.09-1.7,.09-2.97,.34-5.61,.87-5.61,.87,0,0-3.09,.65-5.18,.66Z"/></svg>