<svg width="143" height="58" viewBox="0 0 143 58" fill="none" xmlns="http://www.w3.org/2000/svg">
<path d="M117.8 0.930908L117.141 3.79086C116.818 3.67517 116.359 3.61503 115.995 3.61503C113.263 3.61503 111.354 5.5957 111.354 7.77077C111.354 9.15911 112.29 10.0523 113.613 10.0523C114.577 10.0523 115.49 9.65892 116.163 8.82129H116.195L116.041 9.91344H117.673C117.7 9.24241 117.841 8.43264 118.009 7.7107L119.564 0.930908H117.8ZM63.5423 1.23448C61.4648 1.23448 59.7555 2.24802 59.7555 3.88164C59.7555 4.89976 60.6556 5.5754 61.8466 6.1076C62.8422 6.55187 63.2833 6.9267 63.2833 7.48667C63.2833 8.31042 62.3831 8.74539 61.3875 8.74539C60.4919 8.74539 59.6646 8.52332 59.069 8.20863L58.4598 9.42114C58.9144 9.71269 59.9419 10.0042 61.192 10.0181C63.4832 10.0181 65.1607 8.96753 65.1607 7.25525C65.1607 6.21862 64.4106 5.53836 63.1604 4.99691C62.2012 4.54801 61.6194 4.19626 61.6194 3.61316C61.6194 3.04394 62.2649 2.50257 63.3878 2.50257C64.2288 2.48869 64.9153 2.72927 65.2517 2.88661L65.8335 1.66484C65.4153 1.46585 64.6879 1.23448 63.5423 1.23448ZM99.1602 1.32286C98.2328 1.32286 97.3781 1.39695 96.6871 1.51264L94.7959 9.83339C95.2869 9.91206 96.1416 9.97226 97.1781 9.97226C98.7374 9.97226 99.9739 9.77332 100.815 9.27352C101.561 8.85239 102.138 8.17672 102.138 7.2743C102.138 6.2932 101.451 5.63601 100.492 5.39074V5.35368C101.62 5.10377 102.629 4.3726 102.629 3.28044C102.629 2.6418 102.233 2.13279 101.633 1.82735C101.01 1.45713 100.233 1.32286 99.1602 1.32286ZM99.1602 2.47061C100.142 2.47061 100.797 2.77601 100.797 3.48407C100.797 4.35872 99.8375 4.87709 98.5055 4.87709H97.6827L98.2146 2.53536C98.4009 2.49834 98.7511 2.47061 99.1602 2.47061ZM79.5044 3.58775C78.5589 3.58775 77.6315 4.00885 77.0087 4.75393H76.9769L77.1405 3.69415H75.5357C75.4266 4.32353 75.2629 5.28152 75.1084 6.01734L73.6446 12.3945H75.413L76.0221 9.76583H76.054C76.3177 9.88615 76.8541 10.0296 77.5405 10.0296C80.0636 10.0296 81.8547 8.0304 81.8547 5.87847C81.8547 4.67524 81.1228 3.58775 79.5044 3.58775ZM94.6832 3.59005C93.6786 3.59005 92.8557 4.19627 92.3466 5.02002H92.3057C92.3784 4.57113 92.4239 4.14542 92.4784 3.72892H90.9328C90.86 4.27037 90.7463 5.22367 90.5554 6.08907L89.6826 9.88846H91.4509L92.0192 7.40797C92.3056 6.08904 93.1103 5.02929 94.3832 5.02929C94.5014 5.02929 94.6241 5.02931 94.715 5.04782L95.0696 3.59931C94.9469 3.59931 94.806 3.59005 94.6832 3.59005ZM86.8449 3.59058C84.2946 3.59058 82.6489 5.6175 82.6489 7.47325C82.6489 8.96341 83.6263 10.0139 85.6812 10.0139C86.5858 10.0139 87.5814 9.83807 88.3043 9.52338L88.1405 8.44975C87.6041 8.67189 86.9313 8.85232 86.0948 8.85232C85.3902 8.85232 84.8538 8.64868 84.5674 8.23217C84.4174 7.97764 84.3537 7.57043 84.3674 7.36217C87.2359 7.41308 89.2407 6.90408 89.2407 5.326C89.2407 4.28474 88.3042 3.59058 86.8449 3.59058ZM123.775 3.61317C121.229 3.61317 119.583 5.63557 119.583 7.49595C119.583 8.98148 120.556 10.0319 122.625 10.0319C123.52 10.0319 124.507 9.86539 125.239 9.54608L125.075 8.46776C124.538 8.69453 123.866 8.87502 123.029 8.87502C122.329 8.87502 121.793 8.66674 121.506 8.25487C121.352 8.00034 121.288 7.59317 121.306 7.38029C124.17 7.4312 126.175 6.92209 126.175 5.34401C126.175 4.30275 125.239 3.61317 123.775 3.61317ZM140.146 3.61411C136.686 3.61411 134.918 5.84476 134.918 7.94579C134.918 9.19067 135.786 10.0514 137.118 10.0514C138.059 10.0514 139.037 9.65801 139.769 8.53345H139.814C139.741 9.05177 139.691 9.54703 139.682 9.91263H141.328C141.296 9.17681 141.419 8.01516 141.633 7.10348L142.396 3.89175C141.828 3.73441 140.96 3.61411 140.146 3.61411ZM107.515 3.61464C104.979 3.61464 103.224 5.42412 103.224 7.51127C103.224 8.97365 104.383 10.0519 106.261 10.0519H106.274C108.797 10.0519 110.548 8.25633 110.548 6.15531C110.548 4.79473 109.511 3.61464 107.515 3.61464ZM131.64 3.61507C128.558 3.61507 126.767 5.6745 126.781 7.71074C126.781 8.87695 127.622 9.89037 129.104 9.89037C130.045 9.89037 130.827 9.52946 131.44 8.8029H131.468L131.286 9.49238C130.922 10.927 130.036 11.3805 128.876 11.3805C128.172 11.3805 127.349 11.2232 126.921 11.0103L126.476 12.1395C126.967 12.3941 127.849 12.5514 128.813 12.5514C129.745 12.5514 130.781 12.4079 131.558 11.8665C132.395 11.288 132.813 10.3301 133.086 9.13145L134.218 4.04544C133.527 3.79091 132.6 3.61507 131.64 3.61507ZM67.3838 3.72844L66.5882 7.18085C66.4882 7.60198 66.4381 7.95365 66.4381 8.28685C66.4381 9.55024 67.2928 10.027 68.3793 10.027C69.3067 10.027 70.2341 9.61044 70.9478 8.81445H70.9797L70.816 9.88808H72.4071C72.4981 9.36051 72.6026 8.71265 72.7708 7.97683L73.7483 3.72844H71.9616L71.2843 6.72727C70.9797 8.00454 70.0386 8.81445 69.2113 8.81445C68.5112 8.81445 68.2702 8.4442 68.2702 7.93977C68.2702 7.69912 68.3157 7.39369 68.3884 7.09288L69.1522 3.72844H67.3838ZM86.6131 4.68734C87.1768 4.68734 87.5586 4.92803 87.5586 5.32602V5.33529C87.5586 6.07111 86.3812 6.27003 84.5537 6.26078C84.7673 5.51107 85.513 4.68734 86.6131 4.68734ZM123.547 4.71004C124.116 4.71004 124.493 4.9553 124.493 5.34403V5.3533C124.493 6.08912 123.325 6.29735 121.493 6.28347C121.697 5.53839 122.452 4.71004 123.547 4.71004ZM139.682 4.74793C139.982 4.74793 140.228 4.77108 140.391 4.8081L140.014 6.43713C139.664 8.00133 138.655 8.86213 137.827 8.86213C137.055 8.86213 136.764 8.32985 136.764 7.68659C136.764 6.28436 138.032 4.74793 139.682 4.74793ZM107.297 4.74846C108.37 4.74846 108.716 5.53054 108.716 6.16918C108.716 7.39554 107.829 8.90889 106.502 8.90889H106.488C105.592 8.90889 105.056 8.31649 105.056 7.47423C105.056 6.3219 105.879 4.74846 107.297 4.74846ZM115.859 4.74889C116.286 4.74889 116.663 4.85075 116.886 4.98958L116.436 6.85919C116.131 8.14109 115.19 8.86309 114.39 8.86309C113.554 8.86309 113.204 8.2799 113.204 7.53483C113.204 6.15574 114.331 4.74889 115.859 4.74889ZM131.304 4.77669C131.713 4.77669 132.09 4.85073 132.295 4.92941L131.863 6.75737C131.608 7.86805 130.718 8.73348 129.831 8.73348C128.949 8.73348 128.644 8.12719 128.644 7.49318C128.644 6.16038 129.745 4.77669 131.304 4.77669ZM78.8179 4.79105C79.6999 4.79105 79.9908 5.42038 79.9908 5.98034C79.9908 7.36868 78.8816 8.88662 77.495 8.88662C76.9904 8.88662 76.5949 8.77554 76.2995 8.57191L76.6222 7.06792C76.945 5.62867 77.9224 4.79105 78.8179 4.79105ZM97.4099 5.96004H98.2465C99.333 5.96004 100.26 6.30709 100.26 7.21876C100.26 8.37109 99.042 8.80615 97.7146 8.80615C97.3782 8.80615 97.0554 8.79691 96.7826 8.77377L97.4099 5.96004ZM46.1937 6.01782C40.8976 6.01782 36.3879 7.20717 32.442 9.95608C26.4184 14.0193 22.4088 21.2017 22.4088 31.3875C22.4088 42.5729 29.2961 49.1953 39.5974 49.3804C43.8571 49.4591 46.8347 49.2184 49.626 48.2049L48.8714 40.6848C46.9211 41.1661 44.0117 41.1939 42.0523 41.0689C36.1515 40.6987 32.2646 36.9362 32.2646 30.5545C32.2646 24.9363 33.9512 20.0725 36.9379 17.5642C39.0246 15.8242 42.2978 14.9357 45.28 14.9172C48.5122 14.894 50.6034 14.9773 52.2582 15.1856L53.8265 6.50378C51.8535 6.21223 50.2488 6.01782 46.1937 6.01782ZM117.471 11.5698L110.22 13.6199L109.52 17.5536H107.029L105.997 23.07H108.479L107.07 30.4235C106.783 32.0432 106.656 33.1539 106.656 34.3109C106.656 37.1338 108.561 39.0174 112.416 39.0174C113.784 39.0174 115.439 38.8416 116.312 38.4991L117.221 32.8161C116.644 32.8578 116.062 32.8578 115.566 32.8578C114.28 32.8578 113.907 32.1312 113.907 31.238C113.907 30.6364 114.071 29.5211 114.198 28.8408L115.362 23.07H119.499L120.535 17.5536H116.394L117.471 11.5698ZM14.82 17.0797C4.30959 17.0797 0 24.5675 0 31.5786C0 36.1509 2.65487 39.0571 6.29626 39.0571C8.44654 39.0571 10.965 38.076 12.7016 34.9522H12.8243C12.7789 36.1508 12.7016 37.3958 12.6152 38.5851H19.0979C19.0115 35.8547 19.4707 31.5323 19.8844 29.2647L22.0847 18.2366C20.2571 17.635 17.4386 17.0797 14.82 17.0797ZM133.425 17.0797C122.919 17.0797 118.609 24.5675 118.609 31.5786C118.609 36.1509 121.264 39.0571 124.905 39.0571C127.056 39.0571 129.574 38.076 131.311 34.9522H131.429C131.388 36.1508 131.311 37.3958 131.224 38.5851H137.707C137.621 35.8547 138.08 31.5323 138.493 29.2647L140.689 18.2366C138.866 17.635 136.048 17.0797 133.425 17.0797ZM75.7376 17.0848C68.0775 17.0848 63.5951 23.5405 63.5951 29.9547C63.5951 35.8042 66.8727 39.0159 72.8781 39.0159C74.9056 39.0159 78.1015 38.7197 80.8337 37.3452L80.42 32.1344C78.6789 32.9859 76.7331 33.4162 74.6601 33.4162C73.0463 33.4162 71.8007 33.0321 71.0142 32.3056C70.6414 31.9168 70.396 31.4078 70.3096 30.9404C78.6789 31.195 83.3204 29.0106 83.3204 23.7534C83.3204 19.4773 80.0018 17.0848 75.7376 17.0848ZM99.337 17.0861C96.7685 17.0861 94.3273 18.1552 92.3771 20.8069H92.2951L92.6225 17.5536H86.4081C86.1217 19.5204 85.7943 21.9176 85.2488 24.7359L82.7212 38.5916H89.7676L91.4269 29.6089C92.2498 25.2449 93.9908 22.9403 95.6911 22.9403C96.8549 22.9403 97.2277 23.7548 97.2277 24.9905C97.2277 25.68 97.1413 26.4899 97.0186 27.1748L94.9455 38.5916H101.987L104.269 26.4066C104.433 25.4255 104.601 23.7549 104.601 22.8154C104.601 19.4741 103.069 17.0861 99.337 17.0861ZM44.7753 17.5526L42.6205 29.2193C42.3705 30.7187 42.2068 32.0423 42.2068 33.2455C42.2068 36.8783 43.8616 39.0581 47.3848 39.0581C49.7442 39.0581 52.1082 38.1186 54.3403 35.3789H54.4266L54.0993 38.586H60.3092C60.6001 36.6238 60.932 34.2219 61.473 31.4036L63.996 17.5526H56.9542L55.2585 26.873C54.513 30.8483 52.8946 33.153 51.0716 33.153C49.9123 33.153 49.5397 32.2598 49.5397 31.2787C49.5397 30.5521 49.6669 29.4831 49.8306 28.6269L51.8581 17.5526H44.7753ZM74.9057 22.3419C76.0695 22.3419 76.7332 22.9852 76.7332 23.7117V23.7534C76.7332 25.0769 75.242 25.7202 70.9324 25.6786C71.1415 24.3088 72.3826 22.3419 74.9057 22.3419ZM12.8243 22.5543C13.1971 22.5543 13.6972 22.596 14.1518 22.6839L13.279 26.9138C12.4107 31.8748 10.6741 33.1984 9.40123 33.1984C8.20107 33.1984 7.37362 32.1709 7.37362 30.2134C7.37362 27.1266 9.56483 22.5543 12.8243 22.5543ZM131.429 22.5543C131.802 22.5543 132.302 22.596 132.761 22.6839L131.888 26.9138C131.015 31.8748 129.283 33.1984 128.01 33.1984C126.81 33.1984 125.983 32.1709 125.983 30.2134C125.983 27.1266 128.174 22.5543 131.429 22.5543ZM114.779 40.9071C113.809 40.9041 112.898 40.9523 112.898 40.9523L105.511 41.4797C105.511 41.4797 102.933 41.8314 101.288 42.0119C99.2375 42.2526 98.06 42.2434 96.0188 42.5488C93.9413 42.8635 90.7363 43.6178 90.7363 43.6178L80.185 46.2696C80.185 46.2696 78.2211 46.8157 77.0209 47.3294C76.1754 47.695 75.7526 48.0281 74.907 48.3937C73.8614 48.8473 72.9613 48.8473 72.1567 49.3702C71.9158 49.5183 71.1338 50.0921 70.4246 50.467C69.77 50.8141 69.3881 50.9899 68.6926 51.2444C68.1789 51.4388 67.3606 51.6609 67.3606 51.6609L66.4695 52.1098L65.4149 52.6467C65.4149 52.6467 64.3829 53.1789 63.6783 53.4149C63.4146 53.5074 63.0009 53.6231 63.0009 53.6231C63.0009 53.6231 61.2597 54.6644 60.1687 55.377C58.7412 56.3119 56.5728 57.8715 56.5728 57.8715L60.2869 56.585C60.2869 56.585 61.7916 55.7334 62.2508 55.5159C63.21 55.0485 64.8875 54.7754 64.8875 54.7754C64.8875 54.7754 65.1694 54.4007 65.4149 54.2479C65.7967 54.0119 66.1423 54.2247 66.5468 54.0396C66.8787 53.8962 66.9878 53.6694 67.3106 53.5213C67.7697 53.2899 68.5835 53.1789 68.5835 53.1789C68.5835 53.1789 69.0199 53.1789 69.2927 53.1049C69.6609 53.0077 69.8018 52.7624 70.1655 52.6467C70.7519 52.4708 71.1338 52.73 71.7429 52.6467C72.834 52.4986 73.3341 51.9618 74.3751 51.5777C77.7619 50.3513 83.3536 49.4581 83.3536 49.4581C83.3536 49.4581 88.8043 48.3659 92.3275 47.8569C96.2143 47.3062 102.342 46.8018 102.342 46.8018L111.312 46.2696H116.058C116.058 46.2696 118.945 46.7786 120.808 46.8063C122.686 46.8387 123.732 46.5148 125.614 46.4084C127.441 46.3065 130.305 46.2696 130.305 46.2696C130.305 46.2696 131.428 46.2094 131.887 45.742C132.21 45.4134 132.387 45.1311 132.419 44.6729C132.46 44.0112 132.096 43.6086 131.578 43.1967C130.773 42.572 129.878 42.3544 128.728 42.0119C126.932 41.4936 123.977 41.4797 123.977 41.4797L125.032 42.0119H123.977C123.977 42.0119 122.686 42.0952 121.872 42.0119C120.822 41.9286 120.258 41.6788 119.222 41.4844C117.994 41.2623 117.303 41.0541 116.058 40.9523C115.673 40.9204 115.22 40.9084 114.779 40.9071ZM138.559 41.1826C136.491 41.1826 134.686 42.8857 134.686 45.1163C134.686 47.3006 136.45 49.0546 138.559 49.0546C140.691 49.0546 142.428 47.2821 142.428 45.1163C142.428 42.8857 140.646 41.1826 138.559 41.1826ZM138.546 41.812C140.332 41.812 141.801 43.2744 141.801 45.1071C141.801 46.9119 140.346 48.4206 138.546 48.4206C136.773 48.4206 135.318 46.9397 135.318 45.1071C135.318 43.2513 136.791 41.812 138.546 41.812ZM137.109 42.9042V47.3237H137.941V45.556H138.7C139.01 45.556 139.091 45.6809 139.15 45.9261C139.15 45.9863 139.3 47.1155 139.319 47.3237H140.237C140.114 47.1155 140.055 46.5093 140.01 46.1576C139.932 45.593 139.887 45.1996 139.3 45.158C139.6 45.0561 140.114 44.8849 140.114 44.0751C140.114 42.9042 139.11 42.9042 138.6 42.9042H137.109ZM137.923 43.6169H138.618C138.846 43.6169 139.255 43.6169 139.255 44.2185C139.255 44.4499 139.15 44.8479 138.6 44.8479H137.923V43.6169Z" fill="white"/>
</svg>
