<svg width="192" height="28" viewBox="0 0 192 28" fill="none" xmlns="http://www.w3.org/2000/svg">
<path d="M43.1064 19.3184L48.675 18.9349C48.7961 19.9247 49.0498 20.5112 49.295 20.8496C49.7246 21.4361 50.0822 21.7604 50.9589 21.9295C51.7808 22.0846 52.7237 21.8675 53.1275 21.3994C53.8571 20.5422 53.3495 19.1774 52.1643 18.6529C51.6942 18.3512 51.3972 18.3117 49.9236 17.6688C47.4119 16.5691 46.5727 15.8951 45.4798 14.8433C44.3753 13.7944 43.8245 12.4578 43.8245 10.8307C43.8245 9.76203 44.1042 8.75253 44.6723 7.79943C45.2375 6.85197 46.0854 6.1019 47.2187 5.55768C48.3549 5.01627 50.0476 4.66661 52.023 4.66661C54.4482 4.66661 56.164 5.23904 57.4358 6.22879C58.7075 7.22137 59.4659 8.79765 59.7111 10.9604L55.074 11.8938C54.924 10.9463 54.6184 10.264 54.1483 9.83252C53.6783 9.40391 53.0265 9.18678 52.1989 9.18678C51.5183 9.18678 50.982 9.40109 50.6359 9.71691C50.2927 10.0299 50.0736 10.921 50.6619 11.6485C50.8983 11.9502 51.3568 12.438 52.3431 12.8243C54.7481 13.7662 54.6905 13.8846 55.7978 14.505C56.9081 15.1253 58.2605 16.2391 58.7392 16.8454C59.3448 17.6124 59.9072 18.8898 59.9072 20.0262C59.9072 21.3599 59.7514 21.8168 59.0795 22.9419C58.4076 24.0698 57.6953 24.817 56.487 25.3979C55.2787 25.9788 53.759 26.5569 51.9192 26.5569C48.6923 26.5569 46.4602 25.5897 45.2173 24.2277C43.9745 22.8629 43.2708 21.4163 43.1064 19.3184ZM156.318 18.4826L159.551 10.4405L162.856 18.4826H156.318ZM163.225 5.19843H155.952L146.479 26.1666H153.161L154.632 22.1484H164.324L165.942 26.0905H172.698L163.225 5.19843ZM101.946 18.9135C101.505 20.1344 99.7804 21.973 97.2168 21.973H93.3295V9.43324H96.2017C98.3472 9.43324 100.677 10.4935 101.542 12.2023C102.079 13.333 102.904 15.8991 101.946 18.9135ZM107.05 9.72368C105.029 6.8531 100.553 5.20069 96.9918 5.20069H86.8555V26.3098H98.6788C104.663 26.3098 106.869 22.7935 107.748 21.1778C110.283 16.3277 108.299 11.6271 107.05 9.72368ZM72.801 21.2827C69.5942 21.2827 66.9989 18.8238 66.9989 15.7897C66.9989 12.7584 69.5942 10.2995 72.801 10.2995C76.0048 10.2995 78.6002 12.7584 78.6002 15.7897C78.6002 18.8238 76.0048 21.2827 72.801 21.2827ZM72.8384 4.84031C66.0443 4.84031 60.5364 9.71296 60.5364 15.722C60.5364 21.7254 66.0443 26.5952 72.8384 26.5952C79.6297 26.5952 85.1376 21.7254 85.1376 15.722C85.1376 9.71296 79.6297 4.84031 72.8384 4.84031ZM191.707 19.4179V24.8743C189.285 25.9853 184.985 26.5352 182.958 26.5352C180.498 26.5352 178.635 26.0445 177.075 25.3847C175.518 24.7248 174.027 23.7351 172.896 22.0798C171.766 20.4274 171.195 18.3069 171.195 15.724C171.195 12.281 172.444 9.85875 174.433 8.00612C176.423 6.16196 179.382 5.06506 183.024 5.06506C185.873 5.06506 188.662 5.34422 191.597 6.7795V12.092C191.047 11.6606 189.086 10.6286 186.551 10.0928C185.115 9.78261 180.668 9.50627 178.635 12.7068C177.79 14.0293 177.003 16.4797 178.843 19.3531C179.454 20.3146 182.251 21.5695 183.627 21.5695C184.968 21.5695 187.704 22.0742 191.707 19.4179ZM120.44 5.4212H126.421L132.869 13.5L139.326 5.4212H145.563V26.2484H138.965V14.1034L132.705 21.4913L126.741 14.1034V26.2484H120.44V5.4212ZM110.873 5.36875H117.298V26.1959H110.873V5.36875Z" fill="white"/>
<path d="M0.37207 27.6572V11.6125L9.25401 2.99791H17.1007V0.341639H21.3802V2.99791H29.1086L37.9906 11.6125V27.6572L0.37207 27.6572Z" fill="white"/>
<path d="M14.127 6.00011L20.823 12.5195H34.8582L27.9084 6.00011H14.127Z" fill="#0072CE"/>
<path d="M3.63161 24.0408H17.5918L17.6091 15.5757L3.61719 15.5729L3.63161 24.0408Z" fill="#0072CE"/>
<path d="M20.6855 15.5638V24.012H34.7899V15.5666L20.6855 15.5638Z" fill="#0072CE"/>
<path d="M3.60547 12.5579H16.7467L10.2035 6.16533L3.60547 12.5579Z" fill="#0072CE"/>
</svg>
