<svg width="179" height="61" viewBox="0 0 179 61" fill="none" xmlns="http://www.w3.org/2000/svg">
<path d="M32.0422 15.7478C32.0422 18.3599 29.9862 19.4389 27.4506 19.4389C24.9151 19.4389 22.8548 17.7858 22.8548 15.7478C22.8548 13.7099 24.9108 12.0618 27.4506 12.0618C29.9904 12.0618 32.0422 13.7105 32.0422 15.7478ZM30.6822 22.2984C28.8626 30.687 26.7262 39.255 24.9653 47.7074H17.6803C19.186 41.0158 20.7034 34.338 22.2326 27.6741L18.4229 27.658L19.7442 22.3027L30.6822 22.2984ZM112.555 22.1746C112.555 22.1746 110.637 27.7347 110.582 27.919C108.622 27.3412 107.79 26.2486 105.116 26.5233C98.2118 27.2212 96.6003 36.1827 95.2947 43.3835L94.6204 47.7074H87.4848C89.4199 39.3881 91.4154 30.4179 93.4291 22.1746C95.7071 22.1746 98.2124 22.1784 100.487 22.1784L100.109 24.1909C103.019 22.2217 107.94 21.0103 112.554 22.1734L112.555 22.1746ZM67.9265 36.4648C66.6796 44.7408 78.8622 43.5054 82.8025 40.3482C82.3707 42.2334 82.2927 44.4841 81.8954 46.4051C72.3204 49.358 61.4476 47.2521 60.4886 38.486C59.336 27.9277 67.8757 22.3794 76.733 21.7137C81.8071 21.3326 87.6136 22.2514 89.178 25.9059C90.1274 28.1245 89.331 31.0687 88.1155 32.5876C84.5477 37.0359 74.9176 38.1111 67.9265 36.4704V36.4648ZM75.0622 32.4311C78.0773 32.2226 83.4925 31.1751 82.5001 28.2389C81.8954 26.4379 78.399 26.1447 76.2776 26.5301C72.9801 27.1321 70.5843 29.6353 69.2944 31.9658C70.8588 32.3946 72.9408 32.5795 75.0622 32.4311ZM63.7443 12.4262L58.1882 35.5028C54.7849 47.3981 43.0299 47.6431 43.0299 47.6431C36.2897 48.1726 30.4434 45.3843 29.8241 39.255C28.5186 26.3303 42.0811 18.3191 53.9613 23.2573C54.6906 19.5546 56.0082 16.1426 56.7297 12.4262H63.7443ZM38.9323 31.1819C37.5209 33.3962 36.4978 37.6842 38.0192 40.5004C39.6108 43.4447 45.1119 43.4812 47.7352 41.4285C50.5737 39.2142 51.5267 32.6798 52.5928 28.6924C48.1034 24.6648 41.4419 27.236 38.9323 31.1795V31.1819ZM15.3249 12.4515C15.3249 12.4515 11.6864 25.1598 9.20461 35.397L8.17659 39.3924C7.71762 41.2484 8.92523 41.306 8.92523 41.306H15.776L14.1058 47.6963H6.57713C6.57713 47.6963 2.93856 47.8862 1.27137 46.0679C-0.395829 44.2496 0.00993369 42.0706 0.135109 40.9849C0.229445 40.1268 3.47192 27.6029 3.47192 27.6029L7.63175 12.4515H15.3249Z" fill="white"/>
<path d="M178.529 46.4583C178.514 46.1452 178.494 45.7641 178.499 45.4313H178.487C178.412 45.7326 178.31 46.0654 178.208 46.3704L177.855 47.4222H177.522L177.205 46.3791C177.114 46.066 177.028 45.7375 176.963 45.4282C176.951 45.7493 176.931 46.1384 176.916 46.4713L176.865 47.45H176.453L176.614 45.0149H177.182L177.496 45.9899C177.583 46.2826 177.657 46.5678 177.716 46.8406H177.728C177.788 46.5758 177.873 46.2745 177.963 45.9899L178.292 45.0149H178.857L178.996 47.4531H178.577L178.529 46.4583ZM174.665 46.9712C174.841 47.0705 175.04 47.1228 175.241 47.1234C175.519 47.1234 175.676 46.9953 175.676 46.7905C175.676 46.6049 175.559 46.4979 175.253 46.3853C174.861 46.2411 174.607 46.0283 174.607 45.6794C174.607 45.2822 174.936 44.9772 175.45 44.9772C175.648 44.9711 175.846 45.0124 176.026 45.0978L175.916 45.4548C175.769 45.3775 175.607 45.3376 175.442 45.3385C175.167 45.3385 175.046 45.4907 175.046 45.6354C175.046 45.821 175.187 45.9083 175.504 46.0363C175.916 46.1929 176.12 46.4075 176.12 46.7627C176.12 47.1518 175.83 47.4927 175.218 47.4927C174.993 47.4939 174.772 47.4402 174.571 47.3362L174.665 46.9712ZM138.574 34.928C139.264 36.1437 139.213 37.5116 138.484 38.1253L125.863 47.1753C124.553 47.9536 122.585 47.0108 121.468 45.0372C120.35 43.0636 120.546 40.845 121.856 40.063L135.829 33.416C136.704 33.0788 137.896 33.7129 138.582 34.9323L138.574 34.928ZM155.18 34.9311C155.87 33.7117 157.054 33.0751 157.928 33.4184L171.907 40.0655C173.224 40.8481 173.408 43.0543 172.299 45.0396C171.177 47.0095 169.205 47.9474 167.899 47.1778L155.278 38.1241C154.552 37.5104 154.501 36.1443 155.188 34.9268L155.18 34.9311ZM146.876 39.8378C148.252 39.8378 149.382 40.5641 149.537 41.5082L150.898 57.2226C150.898 58.7792 149.117 60.0506 146.882 60.0506C144.647 60.0506 142.871 58.7792 142.871 57.2226L144.232 41.5082C144.381 40.566 145.51 39.8378 146.882 39.8378H146.876ZM155.18 25.1133C155.87 26.329 157.054 26.9693 157.928 26.634L171.907 19.9746C173.224 19.2006 173.408 16.9864 172.299 15.0128C171.177 13.033 169.205 12.092 167.899 12.8703L155.278 21.929C154.552 22.5347 154.501 23.9088 155.188 25.122L155.18 25.1139V25.1133ZM138.574 25.1214C139.264 23.9019 139.213 22.5341 138.484 21.9284L125.863 12.8753C124.553 12.0927 122.585 13.0318 121.468 15.0091C120.35 16.9864 120.546 19.2012 121.856 19.9752L135.829 26.6346C136.704 26.9675 137.896 26.3296 138.579 25.1139L138.574 25.1214ZM146.876 20.214C148.252 20.214 149.382 19.484 149.537 18.5368L150.898 2.82797C150.898 1.27571 149.117 0 146.882 0C144.647 0 142.871 1.27571 142.871 2.82797L144.232 18.5368C144.381 19.484 145.51 20.214 146.882 20.214H146.876Z" fill="white"/>
</svg>
