<svg width="104" height="259" viewBox="0 0 104 259" fill="none" xmlns="http://www.w3.org/2000/svg">
<path d="M18.4276 206.328C22.0129 206.328 24.9196 203.392 24.9196 199.77C24.9196 196.148 22.0129 193.213 18.4276 193.213C14.8422 193.213 11.9355 196.148 11.9355 199.77C11.9355 203.392 14.8422 206.328 18.4276 206.328Z" fill="#D1D5DB"/>
<path d="M44.7762 206.328C48.3616 206.328 51.2682 203.392 51.2682 199.77C51.2682 196.148 48.3616 193.213 44.7762 193.213C41.1908 193.213 38.2842 196.148 38.2842 199.77C38.2842 203.392 41.1908 206.328 44.7762 206.328Z" fill="#D1D5DB"/>
<path d="M57.949 206.328C61.5344 206.328 64.441 203.392 64.441 199.77C64.441 196.148 61.5344 193.213 57.949 193.213C54.3637 193.213 51.457 196.148 51.457 199.77C51.457 203.392 54.3637 206.328 57.949 206.328Z" fill="#D1D5DB"/>
<path d="M84.2967 206.328C87.8821 206.328 90.7887 203.392 90.7887 199.77C90.7887 196.148 87.8821 193.213 84.2967 193.213C80.7113 193.213 77.8047 196.148 77.8047 199.77C77.8047 203.392 80.7113 206.328 84.2967 206.328Z" fill="#D1D5DB"/>
<path d="M97.2809 206.328C100.866 206.328 103.773 203.392 103.773 199.77C103.773 196.148 100.866 193.213 97.2809 193.213C93.6956 193.213 90.7891 196.148 90.7891 199.77C90.7891 203.392 93.6956 206.328 97.2809 206.328Z" fill="#D1D5DB"/>
<path d="M25.9011 219.764C29.4866 219.764 32.3931 216.827 32.3931 213.206C32.3931 209.585 29.4866 206.648 25.9011 206.648C22.3157 206.648 19.4092 209.585 19.4092 213.206C19.4092 216.827 22.3157 219.764 25.9011 219.764Z" fill="#D1D5DB"/>
<path d="M12.409 219.764C15.9945 219.764 18.901 216.827 18.901 213.206C18.901 209.585 15.9945 206.648 12.409 206.648C8.82357 206.648 5.91699 209.585 5.91699 213.206C5.91699 216.827 8.82357 219.764 12.409 219.764Z" fill="#D1D5DB"/>
<path d="M39.074 219.764C42.6596 219.764 45.5661 216.827 45.5661 213.206C45.5661 209.585 42.6596 206.648 39.074 206.648C35.4887 206.648 32.582 209.585 32.582 213.206C32.582 216.827 35.4887 219.764 39.074 219.764Z" fill="#D1D5DB"/>
<path d="M52.2488 219.764C55.8342 219.764 58.7407 216.827 58.7407 213.206C58.7407 209.585 55.8342 206.648 52.2488 206.648C48.6633 206.648 45.7568 209.585 45.7568 213.206C45.7568 216.827 48.6633 219.764 52.2488 219.764Z" fill="#D1D5DB"/>
<path d="M65.4217 219.764C69.0072 219.764 71.9137 216.827 71.9137 213.206C71.9137 209.585 69.0072 206.648 65.4217 206.648C61.8363 206.648 58.9297 209.585 58.9297 213.206C58.9297 216.827 61.8363 219.764 65.4217 219.764Z" fill="#D1D5DB"/>
<path d="M78.5975 219.764C82.1829 219.764 85.0895 216.827 85.0895 213.206C85.0895 209.585 82.1829 206.648 78.5975 206.648C75.012 206.648 72.1055 209.585 72.1055 213.206C72.1055 216.827 75.012 219.764 78.5975 219.764Z" fill="#D1D5DB"/>
<path d="M71.9461 133.074C75.5316 133.074 78.4381 130.138 78.4381 126.516C78.4381 122.894 75.5316 119.958 71.9461 119.958C68.3607 119.958 65.4541 122.894 65.4541 126.516C65.4541 130.138 68.3607 133.074 71.9461 133.074Z" fill="#D1D5DB"/>
<path d="M32.6776 106.523C36.2629 106.523 39.1696 103.587 39.1696 99.9657C39.1696 96.344 36.2629 93.408 32.6776 93.408C29.0922 93.408 26.1855 96.344 26.1855 99.9657C26.1855 103.587 29.0922 106.523 32.6776 106.523Z" fill="#D1D5DB"/>
<path d="M45.6618 93.0875C49.2473 93.0875 52.1538 90.1515 52.1538 86.5298C52.1538 82.908 49.2473 79.9722 45.6618 79.9722C42.0764 79.9722 39.1699 82.908 39.1699 86.5298C39.1699 90.1515 42.0764 93.0875 45.6618 93.0875Z" fill="#D1D5DB"/>
<path d="M32.6776 66.5368C36.2629 66.5368 39.1696 63.6008 39.1696 59.979C39.1696 56.3574 36.2629 53.4214 32.6776 53.4214C29.0922 53.4214 26.1855 56.3574 26.1855 59.979C26.1855 63.6008 29.0922 66.5368 32.6776 66.5368Z" fill="#D1D5DB"/>
<path d="M59.5955 39.6664C63.1809 39.6664 66.0874 36.7304 66.0874 33.1088C66.0874 29.487 63.1809 26.551 59.5955 26.551C56.01 26.551 53.1035 29.487 53.1035 33.1088C53.1035 36.7304 56.01 39.6664 59.5955 39.6664Z" fill="#D1D5DB"/>
<path d="M19.0604 13.1154C22.6458 13.1154 25.5524 10.1795 25.5524 6.55772C25.5524 2.936 22.6458 0 19.0604 0C15.4749 0 12.5684 2.936 12.5684 6.55772C12.5684 10.1795 15.4749 13.1154 19.0604 13.1154Z" fill="#D1D5DB"/>
<path d="M7.02618 233.199C10.6116 233.199 13.5182 230.262 13.5182 226.641C13.5182 223.02 10.6116 220.083 7.02618 220.083C3.44075 220.083 0.53418 223.02 0.53418 226.641C0.53418 230.262 3.44075 233.199 7.02618 233.199Z" fill="#D1D5DB"/>
<path d="M31.284 233.199C34.8694 233.199 37.776 230.262 37.776 226.641C37.776 223.02 34.8694 220.083 31.284 220.083C27.6986 220.083 24.792 223.02 24.792 226.641C24.792 230.262 27.6986 233.199 31.284 233.199Z" fill="#D1D5DB"/>
<path d="M44.4569 233.199C48.0422 233.199 50.9489 230.262 50.9489 226.641C50.9489 223.02 48.0422 220.083 44.4569 220.083C40.8713 220.083 37.9648 223.02 37.9648 226.641C37.9648 230.262 40.8713 233.199 44.4569 233.199Z" fill="#D1D5DB"/>
<path d="M70.8055 233.199C74.3909 233.199 77.2975 230.262 77.2975 226.641C77.2975 223.02 74.3909 220.083 70.8055 220.083C67.22 220.083 64.3135 223.02 64.3135 226.641C64.3135 230.262 67.22 233.199 70.8055 233.199Z" fill="#D1D5DB"/>
<path d="M57.6961 233.199C61.2816 233.199 64.1881 230.262 64.1881 226.641C64.1881 223.02 61.2816 220.083 57.6961 220.083C54.1107 220.083 51.2041 223.02 51.2041 226.641C51.2041 230.262 54.1107 233.199 57.6961 233.199Z" fill="#D1D5DB"/>
<path d="M83.9803 233.199C87.5657 233.199 90.4723 230.262 90.4723 226.641C90.4723 223.02 87.5657 220.083 83.9803 220.083C80.3949 220.083 77.4883 223.02 77.4883 226.641C77.4883 230.262 80.3949 233.199 83.9803 233.199Z" fill="#D1D5DB"/>
<path d="M96.9647 233.199C100.55 233.199 103.457 230.262 103.457 226.641C103.457 223.02 100.55 220.083 96.9647 220.083C93.3791 220.083 90.4727 223.02 90.4727 226.641C90.4727 230.262 93.3791 233.199 96.9647 233.199Z" fill="#D1D5DB"/>
<path d="M25.9011 246.635C29.4866 246.635 32.3931 243.698 32.3931 240.077C32.3931 236.454 29.4866 233.519 25.9011 233.519C22.3157 233.519 19.4092 236.454 19.4092 240.077C19.4092 243.698 22.3157 246.635 25.9011 246.635Z" fill="#D1D5DB"/>
<path d="M12.409 246.635C15.9945 246.635 18.901 243.698 18.901 240.077C18.901 236.454 15.9945 233.519 12.409 233.519C8.82357 233.519 5.91699 236.454 5.91699 240.077C5.91699 243.698 8.82357 246.635 12.409 246.635Z" fill="#D1D5DB"/>
<path d="M52.2488 246.635C55.8342 246.635 58.7407 243.698 58.7407 240.077C58.7407 236.454 55.8342 233.519 52.2488 233.519C48.6633 233.519 45.7568 236.454 45.7568 240.077C45.7568 243.698 48.6633 246.635 52.2488 246.635Z" fill="#D1D5DB"/>
<path d="M65.4217 246.635C69.0072 246.635 71.9137 243.698 71.9137 240.077C71.9137 236.454 69.0072 233.519 65.4217 233.519C61.8363 233.519 58.9297 236.454 58.9297 240.077C58.9297 243.698 61.8363 246.635 65.4217 246.635Z" fill="#D1D5DB"/>
<path d="M78.5975 246.635C82.1829 246.635 85.0895 243.698 85.0895 240.077C85.0895 236.454 82.1829 233.519 78.5975 233.519C75.012 233.519 72.1055 236.454 72.1055 240.077C72.1055 243.698 75.012 246.635 78.5975 246.635Z" fill="#D1D5DB"/>
<path d="M91.8983 246.635C95.4837 246.635 98.3903 243.698 98.3903 240.077C98.3903 236.454 95.4837 233.519 91.8983 233.519C88.3129 233.519 85.4062 236.454 85.4062 240.077C85.4062 243.698 88.3129 246.635 91.8983 246.635Z" fill="#D1D5DB"/>
<path d="M103.773 153.067C103.769 149.886 102.517 146.837 100.291 144.588C98.0645 142.339 95.0458 141.075 91.8972 141.071H12.4098C9.26124 141.075 6.24255 142.339 4.01617 144.588C1.78978 146.837 0.537538 149.886 0.53418 153.067C0.53418 153.101 0.53418 153.137 0.53418 153.172C0.53418 153.207 0.53418 153.207 0.53418 153.227V253.375C0.535016 254.725 1.06679 256.021 2.01267 256.976C2.95858 257.932 4.24124 258.469 5.57894 258.47H98.7281C100.066 258.469 101.348 257.932 102.294 256.976C103.24 256.021 103.772 254.725 103.773 253.375V153.866C103.778 153.791 103.778 153.714 103.773 153.639C103.773 153.451 103.773 153.258 103.773 153.067ZM12.4098 144.909H91.8972C94.039 144.909 96.0929 145.769 97.6074 147.299C99.1219 148.829 99.9726 150.903 99.9726 153.067C99.9726 155.23 99.1219 157.305 97.6074 158.835C96.0929 160.365 94.039 161.223 91.8972 161.223H12.4098C10.268 161.223 8.21409 160.365 6.69962 158.835C5.18517 157.305 4.33438 155.23 4.33438 153.067C4.33438 150.903 5.18517 148.829 6.69962 147.299C8.21409 145.769 10.268 144.909 12.4098 144.909ZM98.7281 254.631H5.57894C5.24885 254.631 4.9323 254.498 4.69889 254.263C4.46549 254.027 4.33438 253.707 4.33438 253.375V161.863C6.52836 163.924 9.41414 165.067 12.4098 165.062H91.8972C94.8929 165.067 97.7786 163.924 99.9726 161.863V253.375C99.9726 253.707 99.8415 254.027 99.6081 254.263C99.3747 254.498 99.0582 254.631 98.7281 254.631Z" fill="#D1D5DB"/>
</svg>
