<svg width="151" height="269" viewBox="0 0 151 269" fill="none" xmlns="http://www.w3.org/2000/svg">
<path d="M20.9163 181.362H17.8386C16.5637 181.362 15.5303 182.397 15.5303 183.673V186.754C15.5303 188.029 16.5637 189.064 17.8386 189.064H20.9163C22.1911 189.064 23.2245 188.029 23.2245 186.754V183.673C23.2245 182.397 22.1911 181.362 20.9163 181.362Z" fill="#1DB954"/>
<path d="M36.9709 181.362H33.8933C32.6184 181.362 31.585 182.397 31.585 183.673V186.754C31.585 188.029 32.6184 189.064 33.8933 189.064H36.9709C38.2458 189.064 39.2792 188.029 39.2792 186.754V183.673C39.2792 182.397 38.2458 181.362 36.9709 181.362Z" fill="#1DB954"/>
<path d="M44.9984 181.362H41.9206C40.6459 181.362 39.6123 182.397 39.6123 183.673V186.754C39.6123 188.029 40.6459 189.064 41.9206 189.064H44.9984C46.2731 189.064 47.3067 188.029 47.3067 186.754V183.673C47.3067 182.397 46.2731 181.362 44.9984 181.362Z" fill="#1DB954"/>
<path d="M53.0266 181.362H49.9489C48.674 181.362 47.6406 182.397 47.6406 183.673V186.754C47.6406 188.029 48.674 189.064 49.9489 189.064H53.0266C54.3014 189.064 55.3349 188.029 55.3349 186.754V183.673C55.3349 182.397 54.3014 181.362 53.0266 181.362Z" fill="#1DB954"/>
<path d="M69.0812 181.362H66.0036C64.7287 181.362 63.6953 182.397 63.6953 183.673V186.754C63.6953 188.029 64.7287 189.064 66.0036 189.064H69.0812C70.3561 189.064 71.3896 188.029 71.3896 186.754V183.673C71.3896 182.397 70.3561 181.362 69.0812 181.362Z" fill="#1DB954"/>
<path d="M93.1644 181.362H90.0866C88.8119 181.362 87.7783 182.397 87.7783 183.673V186.754C87.7783 188.029 88.8119 189.064 90.0866 189.064H93.1644C94.4391 189.064 95.4726 188.029 95.4726 186.754V183.673C95.4726 182.397 94.4391 181.362 93.1644 181.362Z" fill="#1DB954"/>
<path d="M101.195 181.362H98.1169C96.8421 181.362 95.8086 182.397 95.8086 183.673V186.754C95.8086 188.029 96.8421 189.064 98.1169 189.064H101.195C102.469 189.064 103.503 188.029 103.503 186.754V183.673C103.503 182.397 102.469 181.362 101.195 181.362Z" fill="#1DB954"/>
<path d="M109.219 181.362H106.141C104.866 181.362 103.833 182.397 103.833 183.673V186.754C103.833 188.029 104.866 189.064 106.141 189.064H109.219C110.494 189.064 111.527 188.029 111.527 186.754V183.673C111.527 182.397 110.494 181.362 109.219 181.362Z" fill="#1DB954"/>
<path d="M117.246 181.362H114.169C112.894 181.362 111.86 182.397 111.86 183.673V186.754C111.86 188.029 112.894 189.064 114.169 189.064H117.246C118.521 189.064 119.555 188.029 119.555 186.754V183.673C119.555 182.397 118.521 181.362 117.246 181.362Z" fill="#1DB954"/>
<path d="M133.304 181.362H130.227C128.952 181.362 127.919 182.397 127.919 183.673V186.754C127.919 188.029 128.952 189.064 130.227 189.064H133.304C134.58 189.064 135.613 188.029 135.613 186.754V183.673C135.613 182.397 134.58 181.362 133.304 181.362Z" fill="#1DB954"/>
<path d="M24.9544 189.45H21.8767C20.6019 189.45 19.5684 190.483 19.5684 191.761V194.841C19.5684 196.117 20.6019 197.151 21.8767 197.151H24.9544C26.2292 197.151 27.2627 196.117 27.2627 194.841V191.761C27.2627 190.483 26.2292 189.45 24.9544 189.45Z" fill="#1DB954"/>
<path d="M41.0091 189.45H37.9314C36.6566 189.45 35.623 190.483 35.623 191.761V194.841C35.623 196.117 36.6566 197.151 37.9314 197.151H41.0091C42.2839 197.151 43.3173 196.117 43.3173 194.841V191.761C43.3173 190.483 42.2839 189.45 41.0091 189.45Z" fill="#1DB954"/>
<path d="M57.0676 189.45H53.99C52.7151 189.45 51.6816 190.483 51.6816 191.761V194.841C51.6816 196.117 52.7151 197.151 53.99 197.151H57.0676C58.3425 197.151 59.3759 196.117 59.3759 194.841V191.761C59.3759 190.483 58.3425 189.45 57.0676 189.45Z" fill="#1DB954"/>
<path d="M65.0951 189.45H62.0173C60.7424 189.45 59.709 190.483 59.709 191.761V194.841C59.709 196.117 60.7424 197.151 62.0173 197.151H65.0951C66.3698 197.151 67.4032 196.117 67.4032 194.841V191.761C67.4032 190.483 66.3698 189.45 65.0951 189.45Z" fill="#1DB954"/>
<path d="M73.1195 189.45H70.0417C68.7668 189.45 67.7334 190.483 67.7334 191.761V194.841C67.7334 196.117 68.7668 197.151 70.0417 197.151H73.1195C74.3942 197.151 75.4276 196.117 75.4276 194.841V191.761C75.4276 190.483 74.3942 189.45 73.1195 189.45Z" fill="#1DB954"/>
<path d="M105.233 189.45H102.155C100.88 189.45 99.8467 190.483 99.8467 191.761V194.841C99.8467 196.117 100.88 197.151 102.155 197.151H105.233C106.508 197.151 107.541 196.117 107.541 194.841V191.761C107.541 190.483 106.508 189.45 105.233 189.45Z" fill="#1DB954"/>
<path d="M113.26 189.45H110.182C108.907 189.45 107.874 190.483 107.874 191.761V194.841C107.874 196.117 108.907 197.151 110.182 197.151H113.26C114.535 197.151 115.568 196.117 115.568 194.841V191.761C115.568 190.483 114.535 189.45 113.26 189.45Z" fill="#1DB954"/>
<path d="M121.287 189.45H118.21C116.935 189.45 115.901 190.483 115.901 191.761V194.841C115.901 196.117 116.935 197.151 118.21 197.151H121.287C122.562 197.151 123.596 196.117 123.596 194.841V191.761C123.596 190.483 122.562 189.45 121.287 189.45Z" fill="#1DB954"/>
<path d="M129.316 189.45H126.238C124.963 189.45 123.93 190.483 123.93 191.761V194.841C123.93 196.117 124.963 197.151 126.238 197.151H129.316C130.591 197.151 131.624 196.117 131.624 194.841V191.761C131.624 190.483 130.591 189.45 129.316 189.45Z" fill="#1DB954"/>
<path d="M20.9163 197.536H17.8386C16.5637 197.536 15.5303 198.57 15.5303 199.847V202.928C15.5303 204.204 16.5637 205.238 17.8386 205.238H20.9163C22.1911 205.238 23.2245 204.204 23.2245 202.928V199.847C23.2245 198.57 22.1911 197.536 20.9163 197.536Z" fill="#1DB954"/>
<path d="M28.9436 197.536H25.8658C24.591 197.536 23.5576 198.57 23.5576 199.847V202.928C23.5576 204.204 24.591 205.238 25.8658 205.238H28.9436C30.2184 205.238 31.2519 204.204 31.2519 202.928V199.847C31.2519 198.57 30.2184 197.536 28.9436 197.536Z" fill="#1DB954"/>
<path d="M44.9984 197.536H41.9206C40.6459 197.536 39.6123 198.57 39.6123 199.847V202.928C39.6123 204.204 40.6459 205.238 41.9206 205.238H44.9984C46.2731 205.238 47.3067 204.204 47.3067 202.928V199.847C47.3067 198.57 46.2731 197.536 44.9984 197.536Z" fill="#1DB954"/>
<path d="M53.0266 197.536H49.9489C48.674 197.536 47.6406 198.57 47.6406 199.847V202.928C47.6406 204.204 48.674 205.238 49.9489 205.238H53.0266C54.3014 205.238 55.3349 204.204 55.3349 202.928V199.847C55.3349 198.57 54.3014 197.536 53.0266 197.536Z" fill="#1DB954"/>
<path d="M61.054 197.536H57.9763C56.7015 197.536 55.668 198.57 55.668 199.847V202.928C55.668 204.204 56.7015 205.238 57.9763 205.238H61.054C62.3288 205.238 63.3623 204.204 63.3623 202.928V199.847C63.3623 198.57 62.3288 197.536 61.054 197.536Z" fill="#1DB954"/>
<path d="M69.0812 197.536H66.0036C64.7287 197.536 63.6953 198.57 63.6953 199.847V202.928C63.6953 204.204 64.7287 205.238 66.0036 205.238H69.0812C70.3561 205.238 71.3896 204.204 71.3896 202.928V199.847C71.3896 198.57 70.3561 197.536 69.0812 197.536Z" fill="#1DB954"/>
<path d="M77.1087 197.536H74.031C72.7562 197.536 71.7227 198.57 71.7227 199.847V202.928C71.7227 204.204 72.7562 205.238 74.031 205.238H77.1087C78.3835 205.238 79.4169 204.204 79.4169 202.928V199.847C79.4169 198.57 78.3835 197.536 77.1087 197.536Z" fill="#1DB954"/>
<path d="M93.1644 197.536H90.0866C88.8119 197.536 87.7783 198.57 87.7783 199.847V202.928C87.7783 204.204 88.8119 205.238 90.0866 205.238H93.1644C94.4391 205.238 95.4726 204.204 95.4726 202.928V199.847C95.4726 198.57 94.4391 197.536 93.1644 197.536Z" fill="#1DB954"/>
<path d="M101.195 197.536H98.1169C96.8421 197.536 95.8086 198.57 95.8086 199.847V202.928C95.8086 204.204 96.8421 205.238 98.1169 205.238H101.195C102.469 205.238 103.503 204.204 103.503 202.928V199.847C103.503 198.57 102.469 197.536 101.195 197.536Z" fill="#1DB954"/>
<path d="M109.219 197.536H106.141C104.866 197.536 103.833 198.57 103.833 199.847V202.928C103.833 204.204 104.866 205.238 106.141 205.238H109.219C110.494 205.238 111.527 204.204 111.527 202.928V199.847C111.527 198.57 110.494 197.536 109.219 197.536Z" fill="#1DB954"/>
<path d="M125.277 197.536H122.199C120.924 197.536 119.891 198.57 119.891 199.847V202.928C119.891 204.204 120.924 205.238 122.199 205.238H125.277C126.551 205.238 127.585 204.204 127.585 202.928V199.847C127.585 198.57 126.551 197.536 125.277 197.536Z" fill="#1DB954"/>
<path d="M133.304 197.536H130.227C128.952 197.536 127.919 198.57 127.919 199.847V202.928C127.919 204.204 128.952 205.238 130.227 205.238H133.304C134.58 205.238 135.613 204.204 135.613 202.928V199.847C135.613 198.57 134.58 197.536 133.304 197.536Z" fill="#1DB954"/>
<path d="M25.1457 205.431H22.0679C20.7932 205.431 19.7598 206.464 19.7598 207.741V210.822C19.7598 212.098 20.7932 213.133 22.0679 213.133H25.1457C26.4206 213.133 27.454 212.098 27.454 210.822V207.741C27.454 206.464 26.4206 205.431 25.1457 205.431Z" fill="#1DB954"/>
<path d="M33.176 205.431H30.0982C28.8235 205.431 27.79 206.464 27.79 207.741V210.822C27.79 212.098 28.8235 213.133 30.0982 213.133H33.176C34.4509 213.133 35.4843 212.098 35.4843 210.822V207.741C35.4843 206.464 34.4509 205.431 33.176 205.431Z" fill="#1DB954"/>
<path d="M41.2034 205.431H38.1257C36.8508 205.431 35.8174 206.464 35.8174 207.741V210.822C35.8174 212.098 36.8508 213.133 38.1257 213.133H41.2034C42.4782 213.133 43.5116 212.098 43.5116 210.822V207.741C43.5116 206.464 42.4782 205.431 41.2034 205.431Z" fill="#1DB954"/>
<path d="M57.2591 205.431H54.1814C52.9065 205.431 51.873 206.464 51.873 207.741V210.822C51.873 212.098 52.9065 213.133 54.1814 213.133H57.2591C58.5339 213.133 59.5673 212.098 59.5673 210.822V207.741C59.5673 206.464 58.5339 205.431 57.2591 205.431Z" fill="#1DB954"/>
<path d="M65.2863 205.431H62.2086C60.9338 205.431 59.9004 206.464 59.9004 207.741V210.822C59.9004 212.098 60.9338 213.133 62.2086 213.133H65.2863C66.5612 213.133 67.5946 212.098 67.5946 210.822V207.741C67.5946 206.464 66.5612 205.431 65.2863 205.431Z" fill="#1DB954"/>
<path d="M73.3137 205.431H70.2361C68.9612 205.431 67.9277 206.464 67.9277 207.741V210.822C67.9277 212.098 68.9612 213.133 70.2361 213.133H73.3137C74.5886 213.133 75.622 212.098 75.622 210.822V207.741C75.622 206.464 74.5886 205.431 73.3137 205.431Z" fill="#1DB954"/>
<path d="M81.341 205.431H78.2633C76.9885 205.431 75.9551 206.464 75.9551 207.741V210.822C75.9551 212.098 76.9885 213.133 78.2633 213.133H81.341C82.6158 213.133 83.6493 212.098 83.6493 210.822V207.741C83.6493 206.464 82.6158 205.431 81.341 205.431Z" fill="#1DB954"/>
<path d="M89.3684 205.431H86.2907C85.0158 205.431 83.9824 206.464 83.9824 207.741V210.822C83.9824 212.098 85.0158 213.133 86.2907 213.133H89.3684C90.6432 213.133 91.6767 212.098 91.6767 210.822V207.741C91.6767 206.464 90.6432 205.431 89.3684 205.431Z" fill="#1DB954"/>
<path d="M105.424 205.431H102.346C101.072 205.431 100.038 206.464 100.038 207.741V210.822C100.038 212.098 101.072 213.133 102.346 213.133H105.424C106.699 213.133 107.732 212.098 107.732 210.822V207.741C107.732 206.464 106.699 205.431 105.424 205.431Z" fill="#1DB954"/>
<path d="M113.451 205.431H110.374C109.099 205.431 108.065 206.464 108.065 207.741V210.822C108.065 212.098 109.099 213.133 110.374 213.133H113.451C114.726 213.133 115.76 212.098 115.76 210.822V207.741C115.76 206.464 114.726 205.431 113.451 205.431Z" fill="#1DB954"/>
<path d="M121.479 205.431H118.401C117.126 205.431 116.093 206.464 116.093 207.741V210.822C116.093 212.098 117.126 213.133 118.401 213.133H121.479C122.754 213.133 123.787 212.098 123.787 210.822V207.741C123.787 206.464 122.754 205.431 121.479 205.431Z" fill="#1DB954"/>
<path d="M129.507 205.431H126.429C125.155 205.431 124.121 206.464 124.121 207.741V210.822C124.121 212.098 125.155 213.133 126.429 213.133H129.507C130.782 213.133 131.815 212.098 131.815 210.822V207.741C131.815 206.464 130.782 205.431 129.507 205.431Z" fill="#1DB954"/>
<path d="M21.1077 213.517H18.03C16.7552 213.517 15.7217 214.552 15.7217 215.828V218.909C15.7217 220.185 16.7552 221.219 18.03 221.219H21.1077C22.3825 221.219 23.4161 220.185 23.4161 218.909V215.828C23.4161 214.552 22.3825 213.517 21.1077 213.517Z" fill="#1DB954"/>
<path d="M29.138 213.517H26.0603C24.7855 213.517 23.752 214.552 23.752 215.828V218.909C23.752 220.185 24.7855 221.219 26.0603 221.219H29.138C30.4128 221.219 31.4463 220.185 31.4463 218.909V215.828C31.4463 214.552 30.4128 213.517 29.138 213.517Z" fill="#1DB954"/>
<path d="M37.1624 213.517H34.0847C32.8099 213.517 31.7764 214.552 31.7764 215.828V218.909C31.7764 220.185 32.8099 221.219 34.0847 221.219H37.1624C38.4372 221.219 39.4707 220.185 39.4707 218.909V215.828C39.4707 214.552 38.4372 213.517 37.1624 213.517Z" fill="#1DB954"/>
<path d="M45.1896 213.517H42.112C40.8371 213.517 39.8037 214.552 39.8037 215.828V218.909C39.8037 220.185 40.8371 221.219 42.112 221.219H45.1896C46.4645 221.219 47.498 220.185 47.498 218.909V215.828C47.498 214.552 46.4645 213.517 45.1896 213.517Z" fill="#1DB954"/>
<path d="M53.2199 213.517H50.1423C48.8674 213.517 47.834 214.552 47.834 215.828V218.909C47.834 220.185 48.8674 221.219 50.1423 221.219H53.2199C54.4948 221.219 55.5282 220.185 55.5282 218.909V215.828C55.5282 214.552 54.4948 213.517 53.2199 213.517Z" fill="#1DB954"/>
<path d="M69.2728 213.517H66.195C64.9201 213.517 63.8867 214.552 63.8867 215.828V218.909C63.8867 220.185 64.9201 221.219 66.195 221.219H69.2728C70.5475 221.219 71.581 220.185 71.581 218.909V215.828C71.581 214.552 70.5475 213.517 69.2728 213.517Z" fill="#1DB954"/>
<path d="M77.3031 213.517H74.2253C72.9504 213.517 71.917 214.552 71.917 215.828V218.909C71.917 220.185 72.9504 221.219 74.2253 221.219H77.3031C78.5778 221.219 79.6112 220.185 79.6112 218.909V215.828C79.6112 214.552 78.5778 213.517 77.3031 213.517Z" fill="#1DB954"/>
<path d="M93.3557 213.517H90.2779C89.0031 213.517 87.9697 214.552 87.9697 215.828V218.909C87.9697 220.185 89.0031 221.219 90.2779 221.219H93.3557C94.6305 221.219 95.664 220.185 95.664 218.909V215.828C95.664 214.552 94.6305 213.517 93.3557 213.517Z" fill="#1DB954"/>
<path d="M101.386 213.517H98.3082C97.0334 213.517 96 214.552 96 215.828V218.909C96 220.185 97.0334 221.219 98.3082 221.219H101.386C102.661 221.219 103.694 220.185 103.694 218.909V215.828C103.694 214.552 102.661 213.517 101.386 213.517Z" fill="#1DB954"/>
<path d="M109.413 213.517H106.336C105.061 213.517 104.027 214.552 104.027 215.828V218.909C104.027 220.185 105.061 221.219 106.336 221.219H109.413C110.688 221.219 111.722 220.185 111.722 218.909V215.828C111.722 214.552 110.688 213.517 109.413 213.517Z" fill="#1DB954"/>
<path d="M117.441 213.517H114.363C113.088 213.517 112.055 214.552 112.055 215.828V218.909C112.055 220.185 113.088 221.219 114.363 221.219H117.441C118.715 221.219 119.749 220.185 119.749 218.909V215.828C119.749 214.552 118.715 213.517 117.441 213.517Z" fill="#1DB954"/>
<path d="M25.1457 221.412H22.0679C20.7932 221.412 19.7598 222.446 19.7598 223.722V226.803C19.7598 228.08 20.7932 229.114 22.0679 229.114H25.1457C26.4206 229.114 27.454 228.08 27.454 226.803V223.722C27.454 222.446 26.4206 221.412 25.1457 221.412Z" fill="#1DB954"/>
<path d="M33.176 221.412H30.0982C28.8235 221.412 27.79 222.446 27.79 223.722V226.803C27.79 228.08 28.8235 229.114 30.0982 229.114H33.176C34.4509 229.114 35.4843 228.08 35.4843 226.803V223.722C35.4843 222.446 34.4509 221.412 33.176 221.412Z" fill="#1DB954"/>
<path d="M49.2307 221.412H46.1529C44.8781 221.412 43.8447 222.446 43.8447 223.722V226.803C43.8447 228.08 44.8781 229.114 46.1529 229.114H49.2307C50.5055 229.114 51.539 228.08 51.539 226.803V223.722C51.539 222.446 50.5055 221.412 49.2307 221.412Z" fill="#1DB954"/>
<path d="M57.2591 221.412H54.1814C52.9065 221.412 51.873 222.446 51.873 223.722V226.803C51.873 228.08 52.9065 229.114 54.1814 229.114H57.2591C58.5339 229.114 59.5673 228.08 59.5673 226.803V223.722C59.5673 222.446 58.5339 221.412 57.2591 221.412Z" fill="#1DB954"/>
<path d="M73.3137 221.412H70.2361C68.9612 221.412 67.9277 222.446 67.9277 223.722V226.803C67.9277 228.08 68.9612 229.114 70.2361 229.114H73.3137C74.5886 229.114 75.622 228.08 75.622 226.803V223.722C75.622 222.446 74.5886 221.412 73.3137 221.412Z" fill="#1DB954"/>
<path d="M81.341 221.412H78.2633C76.9885 221.412 75.9551 222.446 75.9551 223.722V226.803C75.9551 228.08 76.9885 229.114 78.2633 229.114H81.341C82.6158 229.114 83.6493 228.08 83.6493 226.803V223.722C83.6493 222.446 82.6158 221.412 81.341 221.412Z" fill="#1DB954"/>
<path d="M89.3684 221.412H86.2907C85.0158 221.412 83.9824 222.446 83.9824 223.722V226.803C83.9824 228.08 85.0158 229.114 86.2907 229.114H89.3684C90.6432 229.114 91.6767 228.08 91.6767 226.803V223.722C91.6767 222.446 90.6432 221.412 89.3684 221.412Z" fill="#1DB954"/>
<path d="M97.3968 221.412H94.3191C93.0443 221.412 92.0107 222.446 92.0107 223.722V226.803C92.0107 228.08 93.0443 229.114 94.3191 229.114H97.3968C98.6716 229.114 99.7051 228.08 99.7051 226.803V223.722C99.7051 222.446 98.6716 221.412 97.3968 221.412Z" fill="#1DB954"/>
<path d="M105.424 221.412H102.346C101.072 221.412 100.038 222.446 100.038 223.722V226.803C100.038 228.08 101.072 229.114 102.346 229.114H105.424C106.699 229.114 107.732 228.08 107.732 226.803V223.722C107.732 222.446 106.699 221.412 105.424 221.412Z" fill="#1DB954"/>
<path d="M113.451 221.412H110.374C109.099 221.412 108.065 222.446 108.065 223.722V226.803C108.065 228.08 109.099 229.114 110.374 229.114H113.451C114.726 229.114 115.76 228.08 115.76 226.803V223.722C115.76 222.446 114.726 221.412 113.451 221.412Z" fill="#1DB954"/>
<path d="M121.479 221.412H118.401C117.126 221.412 116.093 222.446 116.093 223.722V226.803C116.093 228.08 117.126 229.114 118.401 229.114H121.479C122.754 229.114 123.787 228.08 123.787 226.803V223.722C123.787 222.446 122.754 221.412 121.479 221.412Z" fill="#1DB954"/>
<path d="M129.507 221.412H126.429C125.155 221.412 124.121 222.446 124.121 223.722V226.803C124.121 228.08 125.155 229.114 126.429 229.114H129.507C130.782 229.114 131.815 228.08 131.815 226.803V223.722C131.815 222.446 130.782 221.412 129.507 221.412Z" fill="#1DB954"/>
<path d="M29.138 229.5H26.0603C24.7855 229.5 23.752 230.533 23.752 231.809V234.89C23.752 236.167 24.7855 237.2 26.0603 237.2H29.138C30.4128 237.2 31.4463 236.167 31.4463 234.89V231.809C31.4463 230.533 30.4128 229.5 29.138 229.5Z" fill="#1DB954"/>
<path d="M37.1624 229.5H34.0847C32.8099 229.5 31.7764 230.533 31.7764 231.809V234.89C31.7764 236.167 32.8099 237.2 34.0847 237.2H37.1624C38.4372 237.2 39.4707 236.167 39.4707 234.89V231.809C39.4707 230.533 38.4372 229.5 37.1624 229.5Z" fill="#1DB954"/>
<path d="M45.1896 229.5H42.112C40.8371 229.5 39.8037 230.533 39.8037 231.809V234.89C39.8037 236.167 40.8371 237.2 42.112 237.2H45.1896C46.4645 237.2 47.498 236.167 47.498 234.89V231.809C47.498 230.533 46.4645 229.5 45.1896 229.5Z" fill="#1DB954"/>
<path d="M53.2199 229.5H50.1423C48.8674 229.5 47.834 230.533 47.834 231.809V234.89C47.834 236.167 48.8674 237.2 50.1423 237.2H53.2199C54.4948 237.2 55.5282 236.167 55.5282 234.89V231.809C55.5282 230.533 54.4948 229.5 53.2199 229.5Z" fill="#1DB954"/>
<path d="M61.2453 229.5H58.1677C56.8928 229.5 55.8594 230.533 55.8594 231.809V234.89C55.8594 236.167 56.8928 237.2 58.1677 237.2H61.2453C62.5202 237.2 63.5536 236.167 63.5536 234.89V231.809C63.5536 230.533 62.5202 229.5 61.2453 229.5Z" fill="#1DB954"/>
<path d="M69.2728 229.5H66.195C64.9201 229.5 63.8867 230.533 63.8867 231.809V234.89C63.8867 236.167 64.9201 237.2 66.195 237.2H69.2728C70.5475 237.2 71.581 236.167 71.581 234.89V231.809C71.581 230.533 70.5475 229.5 69.2728 229.5Z" fill="#1DB954"/>
<path d="M77.3031 229.5H74.2253C72.9504 229.5 71.917 230.533 71.917 231.809V234.89C71.917 236.167 72.9504 237.2 74.2253 237.2H77.3031C78.5778 237.2 79.6112 236.167 79.6112 234.89V231.809C79.6112 230.533 78.5778 229.5 77.3031 229.5Z" fill="#1DB954"/>
<path d="M85.3303 229.5H82.2525C80.9778 229.5 79.9443 230.533 79.9443 231.809V234.89C79.9443 236.167 80.9778 237.2 82.2525 237.2H85.3303C86.6052 237.2 87.6386 236.167 87.6386 234.89V231.809C87.6386 230.533 86.6052 229.5 85.3303 229.5Z" fill="#1DB954"/>
<path d="M101.386 229.5H98.3082C97.0334 229.5 96 230.533 96 231.809V234.89C96 236.167 97.0334 237.2 98.3082 237.2H101.386C102.661 237.2 103.694 236.167 103.694 234.89V231.809C103.694 230.533 102.661 229.5 101.386 229.5Z" fill="#1DB954"/>
<path d="M109.413 229.5H106.336C105.061 229.5 104.027 230.533 104.027 231.809V234.89C104.027 236.167 105.061 237.2 106.336 237.2H109.413C110.688 237.2 111.722 236.167 111.722 234.89V231.809C111.722 230.533 110.688 229.5 109.413 229.5Z" fill="#1DB954"/>
<path d="M117.441 229.5H114.363C113.088 229.5 112.055 230.533 112.055 231.809V234.89C112.055 236.167 113.088 237.2 114.363 237.2H117.441C118.715 237.2 119.749 236.167 119.749 234.89V231.809C119.749 230.533 118.715 229.5 117.441 229.5Z" fill="#1DB954"/>
<path d="M125.468 229.5H122.39C121.115 229.5 120.082 230.533 120.082 231.809V234.89C120.082 236.167 121.115 237.2 122.39 237.2H125.468C126.743 237.2 127.776 236.167 127.776 234.89V231.809C127.776 230.533 126.743 229.5 125.468 229.5Z" fill="#1DB954"/>
<path d="M25.1457 237.586H22.0679C20.7932 237.586 19.7598 238.621 19.7598 239.897V242.978C19.7598 244.253 20.7932 245.288 22.0679 245.288H25.1457C26.4206 245.288 27.454 244.253 27.454 242.978V239.897C27.454 238.621 26.4206 237.586 25.1457 237.586Z" fill="#1DB954"/>
<path d="M33.176 237.586H30.0982C28.8235 237.586 27.79 238.621 27.79 239.897V242.978C27.79 244.253 28.8235 245.288 30.0982 245.288H33.176C34.4509 245.288 35.4843 244.253 35.4843 242.978V239.897C35.4843 238.621 34.4509 237.586 33.176 237.586Z" fill="#1DB954"/>
<path d="M41.2034 237.586H38.1257C36.8508 237.586 35.8174 238.621 35.8174 239.897V242.978C35.8174 244.253 36.8508 245.288 38.1257 245.288H41.2034C42.4782 245.288 43.5116 244.253 43.5116 242.978V239.897C43.5116 238.621 42.4782 237.586 41.2034 237.586Z" fill="#1DB954"/>
<path d="M73.3137 237.586H70.2361C68.9612 237.586 67.9277 238.621 67.9277 239.897V242.978C67.9277 244.253 68.9612 245.288 70.2361 245.288H73.3137C74.5886 245.288 75.622 244.253 75.622 242.978V239.897C75.622 238.621 74.5886 237.586 73.3137 237.586Z" fill="#1DB954"/>
<path d="M81.341 237.586H78.2633C76.9885 237.586 75.9551 238.621 75.9551 239.897V242.978C75.9551 244.253 76.9885 245.288 78.2633 245.288H81.341C82.6158 245.288 83.6493 244.253 83.6493 242.978V239.897C83.6493 238.621 82.6158 237.586 81.341 237.586Z" fill="#1DB954"/>
<path d="M89.3684 237.586H86.2907C85.0158 237.586 83.9824 238.621 83.9824 239.897V242.978C83.9824 244.253 85.0158 245.288 86.2907 245.288H89.3684C90.6432 245.288 91.6767 244.253 91.6767 242.978V239.897C91.6767 238.621 90.6432 237.586 89.3684 237.586Z" fill="#1DB954"/>
<path d="M97.3968 237.586H94.3191C93.0443 237.586 92.0107 238.621 92.0107 239.897V242.978C92.0107 244.253 93.0443 245.288 94.3191 245.288H97.3968C98.6716 245.288 99.7051 244.253 99.7051 242.978V239.897C99.7051 238.621 98.6716 237.586 97.3968 237.586Z" fill="#1DB954"/>
<path d="M105.424 237.586H102.346C101.072 237.586 100.038 238.621 100.038 239.897V242.978C100.038 244.253 101.072 245.288 102.346 245.288H105.424C106.699 245.288 107.732 244.253 107.732 242.978V239.897C107.732 238.621 106.699 237.586 105.424 237.586Z" fill="#1DB954"/>
<path d="M113.451 237.586H110.374C109.099 237.586 108.065 238.621 108.065 239.897V242.978C108.065 244.253 109.099 245.288 110.374 245.288H113.451C114.726 245.288 115.76 244.253 115.76 242.978V239.897C115.76 238.621 114.726 237.586 113.451 237.586Z" fill="#1DB954"/>
<path d="M121.479 237.586H118.401C117.126 237.586 116.093 238.621 116.093 239.897V242.978C116.093 244.253 117.126 245.288 118.401 245.288H121.479C122.754 245.288 123.787 244.253 123.787 242.978V239.897C123.787 238.621 122.754 237.586 121.479 237.586Z" fill="#1DB954"/>
<path d="M129.507 237.586H126.429C125.155 237.586 124.121 238.621 124.121 239.897V242.978C124.121 244.253 125.155 245.288 126.429 245.288H129.507C130.782 245.288 131.815 244.253 131.815 242.978V239.897C131.815 238.621 130.782 237.586 129.507 237.586Z" fill="#1DB954"/>
<path d="M29.138 245.674H26.0603C24.7855 245.674 23.752 246.708 23.752 247.985V251.066C23.752 252.341 24.7855 253.376 26.0603 253.376H29.138C30.4128 253.376 31.4463 252.341 31.4463 251.066V247.985C31.4463 246.708 30.4128 245.674 29.138 245.674Z" fill="#1DB954"/>
<path d="M37.1624 245.674H34.0847C32.8099 245.674 31.7764 246.708 31.7764 247.985V251.066C31.7764 252.341 32.8099 253.376 34.0847 253.376H37.1624C38.4372 253.376 39.4707 252.341 39.4707 251.066V247.985C39.4707 246.708 38.4372 245.674 37.1624 245.674Z" fill="#1DB954"/>
<path d="M45.1896 245.674H42.112C40.8371 245.674 39.8037 246.708 39.8037 247.985V251.066C39.8037 252.341 40.8371 253.376 42.112 253.376H45.1896C46.4645 253.376 47.498 252.341 47.498 251.066V247.985C47.498 246.708 46.4645 245.674 45.1896 245.674Z" fill="#1DB954"/>
<path d="M53.2199 245.674H50.1423C48.8674 245.674 47.834 246.708 47.834 247.985V251.066C47.834 252.341 48.8674 253.376 50.1423 253.376H53.2199C54.4948 253.376 55.5282 252.341 55.5282 251.066V247.985C55.5282 246.708 54.4948 245.674 53.2199 245.674Z" fill="#1DB954"/>
<path d="M61.2453 245.674H58.1677C56.8928 245.674 55.8594 246.708 55.8594 247.985V251.066C55.8594 252.341 56.8928 253.376 58.1677 253.376H61.2453C62.5202 253.376 63.5536 252.341 63.5536 251.066V247.985C63.5536 246.708 62.5202 245.674 61.2453 245.674Z" fill="#1DB954"/>
<path d="M69.2728 245.674H66.195C64.9201 245.674 63.8867 246.708 63.8867 247.985V251.066C63.8867 252.341 64.9201 253.376 66.195 253.376H69.2728C70.5475 253.376 71.581 252.341 71.581 251.066V247.985C71.581 246.708 70.5475 245.674 69.2728 245.674Z" fill="#1DB954"/>
<path d="M77.3031 245.674H74.2253C72.9504 245.674 71.917 246.708 71.917 247.985V251.066C71.917 252.341 72.9504 253.376 74.2253 253.376H77.3031C78.5778 253.376 79.6112 252.341 79.6112 251.066V247.985C79.6112 246.708 78.5778 245.674 77.3031 245.674Z" fill="#1DB954"/>
<path d="M93.3557 245.674H90.2779C89.0031 245.674 87.9697 246.708 87.9697 247.985V251.066C87.9697 252.341 89.0031 253.376 90.2779 253.376H93.3557C94.6305 253.376 95.664 252.341 95.664 251.066V247.985C95.664 246.708 94.6305 245.674 93.3557 245.674Z" fill="#1DB954"/>
<path d="M101.386 245.674H98.3082C97.0334 245.674 96 246.708 96 247.985V251.066C96 252.341 97.0334 253.376 98.3082 253.376H101.386C102.661 253.376 103.694 252.341 103.694 251.066V247.985C103.694 246.708 102.661 245.674 101.386 245.674Z" fill="#1DB954"/>
<path d="M125.468 245.674H122.39C121.115 245.674 120.082 246.708 120.082 247.985V251.066C120.082 252.341 121.115 253.376 122.39 253.376H125.468C126.743 253.376 127.776 252.341 127.776 251.066V247.985C127.776 246.708 126.743 245.674 125.468 245.674Z" fill="#1DB954"/>
<path d="M33.176 253.568H30.0982C28.8235 253.568 27.79 254.603 27.79 255.879V258.96C27.79 260.236 28.8235 261.27 30.0982 261.27H33.176C34.4509 261.27 35.4843 260.236 35.4843 258.96V255.879C35.4843 254.603 34.4509 253.568 33.176 253.568Z" fill="#1DB954"/>
<path d="M41.2034 253.568H38.1257C36.8508 253.568 35.8174 254.603 35.8174 255.879V258.96C35.8174 260.236 36.8508 261.27 38.1257 261.27H41.2034C42.4782 261.27 43.5116 260.236 43.5116 258.96V255.879C43.5116 254.603 42.4782 253.568 41.2034 253.568Z" fill="#1DB954"/>
<path d="M49.2307 253.568H46.1529C44.8781 253.568 43.8447 254.603 43.8447 255.879V258.96C43.8447 260.236 44.8781 261.27 46.1529 261.27H49.2307C50.5055 261.27 51.539 260.236 51.539 258.96V255.879C51.539 254.603 50.5055 253.568 49.2307 253.568Z" fill="#1DB954"/>
<path d="M73.3137 253.568H70.2361C68.9612 253.568 67.9277 254.603 67.9277 255.879V258.96C67.9277 260.236 68.9612 261.27 70.2361 261.27H73.3137C74.5886 261.27 75.622 260.236 75.622 258.96V255.879C75.622 254.603 74.5886 253.568 73.3137 253.568Z" fill="#1DB954"/>
<path d="M89.3684 253.568H86.2907C85.0158 253.568 83.9824 254.603 83.9824 255.879V258.96C83.9824 260.236 85.0158 261.27 86.2907 261.27H89.3684C90.6432 261.27 91.6767 260.236 91.6767 258.96V255.879C91.6767 254.603 90.6432 253.568 89.3684 253.568Z" fill="#1DB954"/>
<path d="M97.3968 253.568H94.3191C93.0443 253.568 92.0107 254.603 92.0107 255.879V258.96C92.0107 260.236 93.0443 261.27 94.3191 261.27H97.3968C98.6716 261.27 99.7051 260.236 99.7051 258.96V255.879C99.7051 254.603 98.6716 253.568 97.3968 253.568Z" fill="#1DB954"/>
<path d="M105.424 253.568H102.346C101.072 253.568 100.038 254.603 100.038 255.879V258.96C100.038 260.236 101.072 261.27 102.346 261.27H105.424C106.699 261.27 107.732 260.236 107.732 258.96V255.879C107.732 254.603 106.699 253.568 105.424 253.568Z" fill="#1DB954"/>
<path d="M113.451 253.568H110.374C109.099 253.568 108.065 254.603 108.065 255.879V258.96C108.065 260.236 109.099 261.27 110.374 261.27H113.451C114.726 261.27 115.76 260.236 115.76 258.96V255.879C115.76 254.603 114.726 253.568 113.451 253.568Z" fill="#1DB954"/>
<path d="M121.479 253.568H118.401C117.126 253.568 116.093 254.603 116.093 255.879V258.96C116.093 260.236 117.126 261.27 118.401 261.27H121.479C122.754 261.27 123.787 260.236 123.787 258.96V255.879C123.787 254.603 122.754 253.568 121.479 253.568Z" fill="#1DB954"/>
<path d="M80.2766 88.272L77.3133 89.1042C76.0859 89.4487 75.3699 90.7243 75.7143 91.9529L76.5456 94.9192C76.8899 96.1479 78.1641 96.8645 79.3916 96.5198L82.3549 95.6877C83.5824 95.343 84.2983 94.0676 83.9539 92.839L83.1226 89.8727C82.7783 88.644 81.5041 87.9274 80.2766 88.272Z" fill="#1DB954"/>
<path d="M48.1517 24.1546L45.1883 24.9867C43.9609 25.3314 43.2449 26.6069 43.5893 27.8355L44.4206 30.8018C44.7649 32.0305 46.0391 32.7471 47.2666 32.4024L50.2299 31.5703C51.4572 31.2257 52.1732 29.9503 51.8289 28.7215L50.9976 25.7553C50.6532 24.5265 49.3791 23.8099 48.1517 24.1546Z" fill="#1DB954"/>
<path d="M73.5009 8.64785L70.4417 8.31138C69.1745 8.17202 68.0343 9.08734 67.8951 10.3558L67.5589 13.4181C67.4197 14.6867 68.3342 15.8279 69.6014 15.9673L72.6606 16.3037C73.9278 16.4432 75.068 15.5279 75.2072 14.2593L75.5434 11.197C75.6826 9.9285 74.7681 8.78722 73.5009 8.64785Z" fill="#1DB954"/>
<path d="M88.5931 0.167818L85.558 0.678417C84.3007 0.889915 83.4529 2.08155 83.6641 3.34001L84.1742 6.3782C84.3855 7.63666 85.576 8.48539 86.8331 8.27389L89.8682 7.7633C91.1255 7.5518 91.9734 6.36016 91.7621 5.1017L91.252 2.06351C91.0407 0.805052 89.8502 -0.0436798 88.5931 0.167818Z" fill="#1DB954"/>
<path d="M98.6252 65.4891L95.8341 64.191C94.678 63.6533 93.3052 64.1556 92.7681 65.3129L91.4714 68.1069C90.9341 69.2642 91.436 70.6383 92.5921 71.176L95.3832 72.474C96.5394 73.0117 97.912 72.5094 98.4492 71.3522L99.746 68.5582C100.283 67.4009 99.7814 66.0268 98.6252 65.4891Z" fill="#1DB954"/>
<path d="M80.511 48.3055L77.4758 48.8161C76.2187 49.0276 75.3707 50.2192 75.5821 51.4778L76.0922 54.516C76.3035 55.7744 77.4939 56.6232 78.7511 56.4116L81.7862 55.901C83.0434 55.6896 83.8914 54.4979 83.68 53.2394L83.1699 50.2012C82.9586 48.9428 81.7682 48.094 80.511 48.3055Z" fill="#1DB954"/>
<path fill-rule="evenodd" clip-rule="evenodd" d="M7.21338 117.243H143.786C145.273 117.243 146.712 116.784 147.914 115.944L132.214 266.276H18.5399L2.81932 115.749C4.07262 116.712 5.61568 117.243 7.21338 117.243ZM0.222215 111.801C0.0758278 111.224 0 110.627 0 110.022C0 108.107 0.759979 106.271 2.11275 104.917C3.46552 103.562 5.30027 102.802 7.21338 102.802H143.786C145.699 102.802 147.535 103.562 148.887 104.917C150.24 106.271 151 108.107 151 110.022C151 110.827 150.866 111.618 150.609 112.365L134.402 267.557C134.371 267.84 134.238 268.102 134.026 268.292C133.814 268.482 133.54 268.587 133.256 268.587H133.133H133.126H133.11H17.5042C17.4882 268.587 17.4723 268.587 17.4563 268.586C17.1874 268.576 16.9299 268.472 16.7287 268.292C16.5154 268.1 16.3808 267.836 16.3513 267.551L0.143288 112.356C0.127627 112.205 0.141823 112.052 0.185065 111.907C0.195748 111.871 0.208151 111.835 0.222215 111.801ZM3.74495 106.55C4.66484 105.63 5.91246 105.112 7.21338 105.112H143.786C145.087 105.112 146.335 105.63 147.255 106.55C148.175 107.471 148.691 108.72 148.691 110.022C148.691 111.325 148.175 112.573 147.255 113.494C146.335 114.415 145.087 114.932 143.786 114.932H7.21338C5.91246 114.932 4.66484 114.415 3.74495 113.494C2.82506 112.573 2.30829 111.325 2.30829 110.022C2.30829 108.72 2.82506 107.471 3.74495 106.55Z" fill="#1DB954"/>
</svg>
