<svg width="109" height="273" viewBox="0 0 109 273" fill="none" xmlns="http://www.w3.org/2000/svg">
<path d="M79.6638 148.198C84.9045 148.198 90.474 151.747 93.7366 157.762C98.1972 165.98 96.6614 175.687 90.3096 179.444C88.6415 180.427 86.7403 180.94 84.8066 180.928C79.566 180.928 73.9965 177.377 70.7338 171.362C66.2732 163.145 67.8089 153.438 74.1609 149.68C75.8291 148.698 77.7302 148.185 79.6638 148.198ZM79.6638 145.517C77.2544 145.501 74.8857 146.142 72.8095 147.371C69.0313 149.605 66.5332 153.528 65.7576 158.427C65.0197 163.105 65.9554 168.155 68.3912 172.647C70.1008 175.852 72.5579 178.593 75.5521 180.635C78.4681 182.58 81.6685 183.608 84.8066 183.608C87.2168 183.623 89.5862 182.983 91.663 181.753C95.4412 179.521 97.9371 175.598 98.7128 170.697C99.4506 166.02 98.5171 160.97 96.0791 156.478C94.3696 153.273 91.9125 150.531 88.9183 148.49C86.0046 146.544 82.8042 145.517 79.6638 145.517Z" fill="#008FFF"/>
<path d="M77.5517 133.107C77.2952 133.1 77.0512 132.995 76.8714 132.81C76.6916 132.627 76.5905 132.38 76.5893 132.121V111.284C76.5883 111.171 76.5733 111.058 76.5449 110.949C76.2605 105.923 66.4725 101.902 54.4378 101.902C42.2252 101.902 32.324 106.052 32.324 111.172C32.3245 111.45 32.3544 111.727 32.4128 111.998V132.121C32.4112 132.38 32.3096 132.627 32.1294 132.811C31.9493 132.995 31.7049 133.1 31.4483 133.107C24.0718 133.233 0 136.479 0 172.866V271.66C0 272.016 0.140492 272.356 0.390571 272.608C0.640649 272.859 0.979831 273 1.33349 273H107.667C108.02 273 108.359 272.859 108.609 272.608C108.859 272.356 109 272.016 109 271.66V172.868C109 136.479 84.9304 133.233 77.5517 133.107ZM39.8272 107.091C43.6876 105.476 48.8748 104.583 54.4378 104.583C60.0007 104.583 65.1879 105.476 69.0485 107.091C72.6178 108.588 73.8845 110.218 73.8845 111.172C73.8845 112.126 72.6178 113.756 69.0485 115.253C65.1879 116.868 60.0007 117.761 54.4378 117.761C48.8748 117.761 43.6876 116.868 39.8272 115.253C36.7889 113.98 35.4199 112.604 35.0799 111.639V111.284C35.08 111.153 35.0604 111.024 35.0221 110.899C35.2376 109.93 36.58 108.454 39.8272 107.091ZM106.333 270.32H2.66699V172.868C2.66699 158.289 6.63415 147.772 14.4596 141.612C20.7092 136.698 27.8146 135.851 31.495 135.787C32.45 135.765 33.3591 135.371 34.0286 134.687C34.6982 134.002 35.0754 133.082 35.0799 132.121V115.655C38.8581 118.51 46.1035 120.442 54.4378 120.442C62.8632 120.442 70.1887 118.465 73.9224 115.559V132.121C73.9268 133.082 74.304 134.002 74.9736 134.687C75.6431 135.371 76.5523 135.765 77.5073 135.787C81.1854 135.851 88.293 136.681 94.5404 141.612C102.366 147.772 106.333 158.289 106.333 172.868V270.32Z" fill="#008FFF"/>
<path d="M107.876 191.347H1.12305V270.732H107.876V191.347Z" fill="#008FFF"/>
<path d="M57.107 -20.7253C57.107 -16.6503 55.1033 -14.6645 51.5581 -11.5074C47.7658 -8.12948 43.0449 -3.91397 43.0449 4.33068C43.0449 12.5753 47.7658 16.7908 51.5581 20.1687C55.1033 23.3282 57.107 25.3116 57.107 29.389C57.107 33.4665 55.0965 35.4476 51.5581 38.6001C47.7658 41.978 43.0449 46.1936 43.0449 54.4382C43.0449 62.6829 47.7772 66.9029 51.5581 70.2832C55.1033 73.4403 57.107 75.4261 57.107 79.5011C57.107 83.5764 55.1033 85.5621 51.5581 88.7214C47.7658 92.0994 43.0449 96.3149 43.0449 104.56C43.0449 112.804 47.7658 117.02 51.5581 120.398C55.1033 123.557 57.107 125.54 57.107 129.618C57.107 133.695 55.1033 135.678 51.5581 138.836C47.7658 142.213 43.0449 146.43 43.0449 154.674C43.0449 162.919 47.7658 167.134 51.5581 170.512C55.1033 173.672 57.107 175.658 57.107 179.733C57.107 183.808 55.1033 185.793 51.5581 188.953C47.7658 192.33 43.0449 196.545 43.0449 204.791C43.0449 213.035 47.7658 217.251 51.5581 220.631C55.1033 223.789 57.107 225.774 57.107 229.849H65.897C65.897 221.596 61.176 217.388 57.3838 214.011C53.8408 210.852 51.8349 208.869 51.8349 204.791C51.8349 200.713 53.8408 198.729 57.3838 195.571C61.176 192.192 65.897 187.977 65.897 179.733C65.897 171.488 61.176 167.273 57.3838 163.894C53.8408 160.735 51.8349 158.749 51.8349 154.674C51.8349 150.598 53.8408 148.614 57.3838 145.456C61.176 142.076 65.897 137.862 65.897 129.618C65.897 121.373 61.176 117.158 57.3838 113.778C53.8408 110.62 51.8349 108.635 51.8349 104.56C51.8349 100.484 53.8408 98.4986 57.3838 95.3416C61.176 91.9613 65.897 87.7481 65.897 79.5011C65.897 71.2543 61.176 67.0434 57.3838 63.663C53.8408 60.506 51.8349 58.5202 51.8349 54.4451C51.8349 50.3699 53.8408 48.3841 57.3838 45.2271C61.176 41.8469 65.897 37.6336 65.897 29.389C65.897 21.1444 61.176 16.9289 57.3838 13.5487C53.8408 10.3916 51.8349 8.40582 51.8349 4.33068C51.8349 0.255524 53.8408 -1.73028 57.3838 -4.88732C61.176 -8.26755 65.897 -12.4808 65.897 -20.7253H57.107Z" fill="#008FFF"/>
</svg>
