<svg width="79" height="272" viewBox="0 0 79 272" fill="none" xmlns="http://www.w3.org/2000/svg">
<path d="M78.5974 163.419V163.373C78.2653 154.76 60.8212 147.818 39.3483 147.818C17.8754 147.818 0.428813 154.76 0.0966797 163.373V163.417C0.0966797 163.485 0.0966797 163.555 0.0966797 163.624C0.0982501 164.343 0.21642 165.058 0.44661 165.74L15.7785 269.084C15.8684 269.687 16.1706 270.236 16.6303 270.634C17.0901 271.032 17.6766 271.252 18.2837 271.252H61.1609C61.771 271.252 62.3604 271.031 62.8211 270.629C63.2816 270.227 63.5826 269.673 63.6685 269.067L78.2907 165.661C78.5029 165.004 78.6115 164.316 78.6127 163.626C78.6152 163.562 78.6 163.496 78.5974 163.419ZM12.6929 155.249C19.7593 152.405 29.2217 150.838 39.3357 150.838C49.4496 150.838 58.9094 152.405 65.9784 155.249C71.9975 157.673 75.5929 160.807 75.5929 163.631C75.5929 166.455 71.9975 169.591 65.9784 172.026C58.9094 174.869 49.4471 176.436 39.3357 176.436C29.2242 176.436 19.7593 174.869 12.6929 172.026C6.67117 169.602 3.07593 166.468 3.07593 163.631C3.07593 160.795 6.68124 157.673 12.6929 155.249ZM60.7351 268.248H18.6766L4.20163 170.683C10.6392 175.871 23.9581 179.438 39.3459 179.438C54.7818 179.438 68.1335 175.851 74.5483 170.634L60.7351 268.248Z" fill="#D1D5DB"/>
<path d="M61.0066 270.514H17.9569C17.7459 270.514 17.537 270.474 17.3422 270.392C17.1473 270.312 16.9703 270.193 16.8212 270.043C16.672 269.894 16.5539 269.716 16.4734 269.52C16.3928 269.325 16.3515 269.116 16.3518 268.904L7.38643 210.906C7.3422 210.666 7.35437 210.42 7.4219 210.185C7.52266 209.859 7.72445 209.573 7.99796 209.37C8.2716 209.166 8.60268 209.056 8.94319 209.053H69.7489C70.1468 209.054 70.5304 209.202 70.8255 209.47C71.1204 209.738 71.3061 210.106 71.3463 210.503C71.3577 210.609 71.3577 210.717 71.3463 210.824L62.614 268.909C62.6137 269.121 62.5719 269.329 62.4909 269.525C62.4099 269.72 62.2914 269.897 62.1421 270.046C61.9928 270.196 61.8156 270.313 61.6207 270.393C61.426 270.474 61.2173 270.516 61.0066 270.514Z" fill="#D1D5DB"/>
<path d="M42.636 -60.5725C42.636 -55.8407 40.3025 -53.535 36.1739 -49.8693C31.7575 -45.9471 26.2598 -41.0525 26.2598 -31.4795C26.2598 -21.9064 31.7575 -17.0118 36.1739 -13.0896C40.3025 -9.42127 42.636 -7.11819 42.636 -2.3838C42.636 2.35059 40.2946 4.65099 36.1739 8.31134C31.7575 12.2335 26.2598 17.1282 26.2598 26.7012C26.2598 36.2741 31.7709 41.1742 36.1739 45.099C40.3025 48.7647 42.636 51.0705 42.636 55.8022C42.636 60.534 40.3025 62.8397 36.1739 66.5081C31.7575 70.4302 26.2598 75.325 26.2598 84.8979C26.2598 94.4709 31.7575 99.3657 36.1739 103.288C40.3025 106.956 42.636 109.259 42.636 113.994C42.636 118.728 40.3025 121.031 36.1739 124.697C31.7575 128.619 26.2598 133.514 26.2598 143.087C26.2598 152.66 31.7575 157.554 36.1739 161.477C40.3025 165.144 42.636 167.45 42.636 172.183C42.636 176.914 40.3025 179.22 36.1739 182.888C31.7575 186.811 26.2598 191.705 26.2598 201.279C26.2598 210.852 31.7575 215.746 36.1739 219.67C40.3025 223.336 42.636 225.642 42.636 230.373H52.8724C52.8724 220.789 47.3746 215.905 42.9583 211.984C38.8323 208.315 36.4962 206.012 36.4962 201.279C36.4962 196.543 38.8323 194.24 42.9583 190.572C47.3746 186.65 52.8724 181.756 52.8724 172.183C52.8724 162.61 47.3746 157.715 42.9583 153.792C38.8323 150.124 36.4962 147.818 36.4962 143.087C36.4962 138.356 38.8323 136.049 42.9583 132.384C47.3746 128.459 52.8724 123.567 52.8724 113.994C52.8724 104.421 47.3746 99.5259 42.9583 95.6011C38.8323 91.9354 36.4962 89.6297 36.4962 84.8979C36.4962 80.1662 38.8323 77.8605 42.9583 74.1948C47.3746 70.2699 52.8724 65.3779 52.8724 55.8022C52.8724 46.2266 47.3746 41.3372 42.9583 37.4124C38.8323 33.7467 36.4962 31.441 36.4962 26.7092C36.4962 21.9774 38.8323 19.6717 42.9583 16.006C47.3746 12.0812 52.8724 7.18919 52.8724 -2.3838C52.8724 -11.9568 47.3746 -16.8515 42.9583 -20.7764C38.8323 -24.4421 36.4962 -26.7478 36.4962 -31.4795C36.4962 -36.2112 38.8323 -38.517 42.9583 -42.1827C47.3746 -46.1075 52.8724 -50.9995 52.8724 -60.5725H42.636Z" fill="#D1D5DB"/>
</svg>
