<svg width="99" height="269" viewBox="0 0 99 269" fill="none" xmlns="http://www.w3.org/2000/svg">
<path d="M97.6675 192.962H1.33008V267.265H97.6675V192.962Z" fill="#D1D5DB"/>
<path d="M23.9635 87.8133C23.9635 84.4261 27.725 82.1019 30.8873 80.7529C35.7236 78.6906 42.4808 77.5071 49.4637 77.5071C56.4468 77.5071 63.2201 78.6906 68.0428 80.7529C71.2025 82.0886 74.9694 84.4261 74.9694 87.8133L75.0313 110.787C81.4976 111.133 87.585 113.928 92.0424 118.599C96.4999 123.269 98.9888 129.46 98.9972 135.898V265.942C98.9966 266.643 98.7159 267.316 98.2167 267.813C97.7175 268.309 97.0407 268.588 96.3348 268.589H2.66265C1.95691 268.588 1.28046 268.309 0.781437 267.813C0.28241 267.316 0.00141999 266.643 0 265.942V135.896C0.00913734 129.458 2.49776 123.268 6.95455 118.598C11.4113 113.927 17.4979 111.132 23.9635 110.785V87.8133ZM26.6261 112.07C26.6226 112.419 26.4813 112.754 26.2328 113.001C25.9841 113.248 25.6477 113.388 25.2961 113.392C19.2955 113.399 13.5427 115.772 9.29965 119.991C5.05659 124.21 2.66975 129.93 2.66265 135.896V265.939H96.3374V135.896C96.331 129.93 93.9447 124.21 89.7021 119.991C85.4594 115.772 79.707 113.399 73.7066 113.392C73.3531 113.392 73.0138 113.253 72.7624 113.006C72.5108 112.759 72.3674 112.424 72.3632 112.072L72.2988 92.4296C70.9934 93.4282 69.5604 94.2501 68.0374 94.8739C63.2012 96.9362 56.4387 98.1169 49.4558 98.1169C42.4728 98.1169 35.702 96.9362 30.8793 94.8739C29.3555 94.2502 27.9217 93.4282 26.6153 92.4296L26.6261 112.07ZM31.9325 83.1839C28.6062 84.6077 26.6181 86.3387 26.6181 87.8133C26.6181 89.2879 28.6062 91.019 31.9325 92.4455C36.4382 94.3689 42.8248 95.4722 49.4584 95.4722C56.0921 95.4722 62.4839 94.3689 66.987 92.4429C70.316 91.0217 72.3014 89.2907 72.3014 87.8133C72.3014 86.3361 70.316 84.6077 66.987 83.1839C62.4839 81.2605 56.0947 80.1545 49.4584 80.1545C42.822 80.1545 36.4463 81.2578 31.9325 83.1839Z" fill="#D1D5DB"/>
<path d="M52.5633 -61.8804C52.5633 -57.1493 50.2097 -54.8439 46.0452 -51.1788C41.5905 -47.2571 36.0449 -42.3632 36.0449 -32.7916C36.0449 -23.2199 41.5905 -18.326 46.0452 -14.4043C50.2097 -10.7366 52.5633 -8.43383 52.5633 -3.70012C52.5633 1.03358 50.2017 3.33364 46.0452 6.99345C41.5905 10.9151 36.0449 15.809 36.0449 25.3806C36.0449 34.9522 41.604 39.8515 46.0452 43.7758C50.2097 47.4409 52.5633 49.7464 52.5633 54.4774C52.5633 59.2085 50.2097 61.5138 46.0452 65.1818C41.5905 69.1033 36.0449 73.9973 36.0449 83.5689C36.0449 93.1405 41.5905 98.0345 46.0452 101.956C50.2097 105.624 52.5633 107.927 52.5633 112.66C52.5633 117.394 50.2097 119.697 46.0452 123.362C41.5905 127.284 36.0449 132.178 36.0449 141.749C36.0449 151.321 41.5905 156.215 46.0452 160.137C50.2097 163.804 52.5633 166.109 52.5633 170.841C52.5633 175.572 50.2097 177.877 46.0452 181.545C41.5905 185.467 36.0449 190.361 36.0449 199.933C36.0449 209.504 41.5905 214.398 46.0452 218.322C50.2097 221.987 52.5633 224.292 52.5633 229.023H62.8887C62.8887 219.441 57.3431 214.557 52.8884 210.637C48.7266 206.969 46.3702 204.666 46.3702 199.933C46.3702 195.198 48.7266 192.895 52.8884 189.227C57.3431 185.306 62.8887 180.413 62.8887 170.841C62.8887 161.269 57.3431 156.375 52.8884 152.453C48.7266 148.785 46.3702 146.48 46.3702 141.749C46.3702 137.019 48.7266 134.712 52.8884 131.048C57.3431 127.123 62.8887 122.232 62.8887 112.66C62.8887 103.089 57.3431 98.1948 52.8884 94.2705C48.7266 90.6054 46.3702 88.3 46.3702 83.5689C46.3702 78.8378 48.7266 76.5325 52.8884 72.8673C57.3431 68.943 62.8887 64.0517 62.8887 54.4774C62.8887 44.9032 57.3431 40.0145 52.8884 36.0902C48.7266 32.4251 46.3702 30.1197 46.3702 25.3886C46.3702 20.6576 48.7266 18.3522 52.8884 14.687C57.3431 10.7628 62.8887 5.87148 62.8887 -3.70012C62.8887 -13.2717 57.3431 -18.1657 52.8884 -22.09C48.7266 -25.7552 46.3702 -28.0605 46.3702 -32.7916C46.3702 -37.5226 48.7266 -39.8281 52.8884 -43.4932C57.3431 -47.4175 62.8887 -52.3088 62.8887 -61.8804H52.5633Z" fill="#D1D5DB"/>
</svg>
